<svg xmlns="http://www.w3.org/2000/svg" xmlns:xlink="http://www.w3.org/1999/xlink" width="500" zoomAndPan="magnify" viewBox="0 0 375 374.999991" height="500" preserveAspectRatio="xMidYMid meet" version="1.0"><defs><g><g id="id1"/></g><clipPath id="id2"><path d="M 44 57 L 335 57 L 335 347 L 44 347 Z M 44 57 " clip-rule="nonzero"/></clipPath><clipPath id="id3"><path d="M -25.761719 202.679688 L 185.308594 -8.390625 L 400.621094 206.921875 L 189.550781 417.996094 Z M -25.761719 202.679688 " clip-rule="nonzero"/></clipPath><clipPath id="id4"><path d="M -25.761719 202.679688 L 185.308594 -8.390625 L 400.621094 206.921875 L 189.550781 417.996094 Z M -25.761719 202.679688 " clip-rule="nonzero"/></clipPath><clipPath id="id5"><path d="M 120.914062 327.382812 C 115.808594 322.460938 111.734375 316.65625 108.609375 310.214844 C 107.925781 308.808594 107.023438 308.1875 105.558594 307.804688 C 90.132812 303.820312 76.988281 295.964844 67.0625 283.46875 C 52.375 264.976562 48.566406 244.207031 55.53125 221.617188 C 56.097656 219.785156 55.894531 218.46875 54.988281 216.859375 C 44.03125 197.4375 41.34375 177.128906 49.179688 156.011719 C 55.023438 140.265625 65.800781 128.699219 80.75 121.082031 C 82.457031 120.210938 83.246094 119.125 83.722656 117.328125 C 87.535156 102.792969 94.828125 90.246094 106.363281 80.601562 C 125.144531 64.898438 146.460938 60.703125 169.933594 67.984375 C 171.582031 68.496094 172.761719 68.335938 174.242188 67.496094 C 192.933594 56.894531 212.605469 53.953125 233.222656 60.914062 C 249.851562 66.535156 262.125 77.476562 270.164062 93.078125 C 271.121094 94.933594 272.304688 95.816406 274.289062 96.351562 C 288.378906 100.121094 300.652344 107.148438 310.171875 118.246094 C 326.324219 137.082031 330.839844 158.558594 323.59375 182.347656 C 323.078125 184.035156 323.097656 185.289062 324.019531 186.890625 C 333.53125 203.441406 336.945312 221.074219 332.457031 239.773438 C 327.761719 259.3125 316.15625 273.632812 298.355469 282.875 C 296.652344 283.757812 295.871094 284.84375 295.40625 286.628906 C 291.535156 301.328125 284.109375 313.972656 272.375 323.667969 C 253.734375 339.054688 232.617188 343.183594 209.417969 336.035156 C 207.621094 335.480469 206.3125 335.648438 204.664062 336.578125 C 185.09375 347.5625 164.675781 350.101562 143.359375 342.136719 C 134.820312 338.9375 127.359375 333.984375 120.914062 327.382812 Z M 242.617188 284.5 C 242.992188 284.738281 243.117188 284.855469 243.261719 284.902344 C 259.90625 290.15625 276.371094 289.945312 292.6875 283.542969 C 294.253906 282.929688 294.695312 281.914062 294.945312 280.445312 C 298.132812 261.898438 295.242188 244.367188 286.179688 227.847656 C 285.757812 227.085938 285.25 226.371094 284.71875 225.527344 C 272.433594 231.226562 259.652344 233.691406 246.613281 233.167969 C 244.234375 236.632812 242.070312 239.78125 239.828125 243.046875 C 244.773438 256.503906 245.566406 270.351562 242.617188 284.5 Z M 207.808594 264.296875 C 204.515625 264.964844 201.5 265.714844 198.441406 266.152344 C 196.710938 266.398438 195.773438 267.109375 195 268.675781 C 190.773438 277.269531 185.050781 284.746094 177.722656 290.933594 C 174.871094 293.34375 171.871094 295.582031 168.8125 297.992188 C 168.910156 298.261719 169.003906 298.65625 169.1875 299.003906 C 177.3125 314.226562 189.023438 325.601562 204.957031 332.488281 C 206.238281 333.042969 207.257812 333.023438 208.324219 332.171875 C 211.125 329.933594 214.0625 327.851562 216.726562 325.457031 C 228.050781 315.273438 235.703125 302.773438 239.804688 288.097656 C 239.996094 287.414062 240.097656 286.707031 240.265625 285.882812 C 227.648438 281.269531 216.914062 274.023438 207.808594 264.296875 Z M 273.480469 151.355469 C 272.589844 153.472656 271.851562 155.367188 271.019531 157.226562 C 266.933594 166.328125 261.339844 174.402344 254.261719 181.417969 C 253.0625 182.609375 252.808594 183.65625 253.1875 185.289062 C 253.855469 188.144531 254.273438 191.0625 254.617188 193.980469 C 254.78125 195.335938 255.214844 196.105469 256.5 196.753906 C 268.074219 202.558594 277.3125 211.027344 284.558594 221.726562 C 284.859375 222.171875 285.320312 222.503906 285.726562 222.910156 C 286.375 222.585938 286.964844 222.304688 287.539062 222.003906 C 296.128906 217.402344 303.542969 211.335938 309.746094 203.828125 C 314.03125 198.640625 317.457031 192.917969 320.082031 186.710938 C 320.578125 185.546875 320.726562 184.566406 319.796875 183.570312 C 319.46875 183.21875 319.265625 182.75 318.980469 182.351562 C 311.097656 171.277344 301.039062 162.765625 288.8125 156.824219 C 283.953125 154.464844 278.910156 152.613281 273.480469 151.355469 Z M 158.425781 260.277344 C 154.816406 257.964844 151.558594 255.945312 148.378906 253.804688 C 147.347656 253.109375 146.488281 252.855469 145.242188 253.253906 C 133.320312 257.074219 121.199219 257.570312 108.925781 255.261719 C 108.304688 255.144531 107.671875 255.105469 107.003906 255.027344 C 106.8125 255.421875 106.628906 255.695312 106.539062 256 C 101.53125 272.5 101.746094 288.828125 108.152344 304.980469 C 108.71875 306.40625 109.5625 306.957031 110.980469 307.203125 C 129.976562 310.539062 147.875 307.542969 164.664062 298.074219 C 165.140625 297.804688 165.539062 297.402344 166.09375 296.972656 C 160.640625 285.21875 158.09375 272.929688 158.425781 260.277344 Z M 272.078125 149.003906 C 272.289062 148.578125 272.433594 148.367188 272.503906 148.140625 C 277.617188 131.566406 277.359375 115.167969 270.960938 98.933594 C 270.394531 97.488281 269.5 96.988281 268.097656 96.742188 C 249.109375 93.425781 231.214844 96.402344 214.429688 105.890625 C 213.957031 106.15625 213.558594 106.558594 213.054688 106.957031 C 213.449219 107.875 213.804688 108.6875 214.148438 109.507812 C 214.492188 110.335938 214.84375 111.167969 215.164062 112.003906 C 218.605469 120.929688 220.515625 130.160156 220.652344 139.738281 C 220.664062 140.71875 220.6875 141.523438 221.726562 142.230469 C 225.164062 144.570312 228.515625 147.039062 231.820312 149.566406 C 232.964844 150.4375 233.929688 150.660156 235.355469 150.234375 C 246.597656 146.902344 258.007812 146.460938 269.535156 148.582031 C 270.339844 148.730469 271.140625 148.847656 272.078125 149.003906 Z M 105.488281 252.582031 C 105.734375 252.257812 105.871094 252.140625 105.925781 252 C 109.882812 241.296875 115.855469 231.847656 123.75 223.625 C 124.578125 222.761719 124.464844 222.007812 124.195312 220.988281 C 123.136719 216.882812 122.082031 212.773438 121.230469 208.625 C 120.914062 207.070312 120.429688 206.0625 118.964844 205.222656 C 110.214844 200.195312 102.828125 193.59375 96.855469 185.445312 C 95.765625 183.953125 94.664062 182.46875 93.632812 181.058594 C 93.21875 181.179688 93.054688 181.195312 92.914062 181.269531 C 77.480469 189.332031 66.019531 201.132812 59.046875 217.183594 C 58.433594 218.59375 58.726562 219.605469 59.535156 220.765625 C 66 230.105469 74.074219 237.71875 83.785156 243.601562 C 90.527344 247.679688 97.71875 250.710938 105.488281 252.582031 Z M 210.25 105.976562 C 210.25 105.898438 210.265625 105.804688 210.242188 105.734375 C 210.125 105.433594 210.003906 105.125 209.851562 104.84375 C 201.859375 89.851562 190.316406 78.652344 174.726562 71.675781 C 172.855469 70.832031 171.582031 71.171875 170.070312 72.246094 C 163.792969 76.730469 158.222656 81.949219 153.421875 88.003906 C 146.800781 96.363281 142.089844 105.679688 139.285156 115.960938 C 139.101562 116.636719 139.019531 117.339844 138.878906 118.089844 C 149.242188 121.875 158.328125 127.40625 166.28125 134.75 C 167.203125 135.597656 168.027344 135.347656 168.976562 135.085938 C 173.792969 133.746094 178.691406 132.882812 183.691406 132.726562 C 185.003906 132.683594 185.695312 132.199219 186.351562 131.074219 C 190.28125 124.324219 195.160156 118.332031 201.117188 113.261719 C 204.019531 110.773438 207.089844 108.484375 210.25 105.976562 Z M 136.445312 119.359375 C 135.882812 119.125 135.449219 118.902344 134.992188 118.765625 C 118.8125 113.882812 102.808594 114.113281 86.953125 120.1875 C 85.222656 120.855469 84.414062 121.785156 84.105469 123.644531 C 81 142.285156 83.910156 159.886719 93.125 176.425781 C 93.472656 177.054688 93.902344 177.632812 94.308594 178.257812 C 94.738281 178.15625 95.070312 178.128906 95.355469 178 C 104.902344 173.660156 114.917969 171.265625 125.398438 170.828125 C 126.597656 170.777344 127.09375 170.183594 127.558594 169.234375 C 129.835938 164.601562 132.667969 160.3125 136 156.382812 C 136.941406 155.269531 137.234375 154.34375 136.875 152.90625 C 134.3125 142.609375 134.144531 132.226562 136.046875 121.800781 C 136.195312 121 136.3125 120.207031 136.445312 119.359375 Z M 57.679688 221.382812 C 44.421875 258.96875 69.28125 297.5625 106.585938 305.96875 C 103.230469 297.640625 101.445312 289.136719 101.230469 280.328125 C 101.011719 271.527344 102.355469 262.9375 105.070312 254.441406 C 85.199219 249.238281 69.609375 238.175781 57.679688 221.382812 Z M 204.394531 334.277344 C 187.566406 326.910156 175.421875 314.945312 166.980469 298.882812 C 161.140625 302.328125 155.214844 304.992188 148.953125 306.875 C 142.679688 308.765625 136.265625 309.847656 129.710938 310.257812 C 123.195312 310.664062 116.746094 309.949219 110.125 309.007812 C 127.472656 345.082031 172.59375 354.710938 204.394531 334.277344 Z M 321.554688 182.796875 C 325.71875 170.164062 326.269531 157.941406 322.941406 145.625 C 318.742188 130.09375 309.75 117.871094 296.640625 108.667969 C 289.402344 103.582031 281.484375 99.953125 272.488281 97.816406 C 279.332031 115.121094 279.460938 132.183594 274.089844 149.480469 C 293.871094 154.8125 309.597656 165.675781 321.554688 182.796875 Z M 136.988281 117.382812 C 139.441406 107.605469 143.503906 98.765625 149.136719 90.667969 C 154.765625 82.578125 161.746094 75.824219 169.949219 70.082031 C 130.039062 55.847656 92.039062 84.902344 85.667969 118.722656 C 102.566406 112.082031 119.621094 111.957031 136.988281 117.382812 Z M 209.273438 333.8125 C 246.660156 347.742188 286.085938 321.5 293.542969 285.1875 C 276.570312 291.886719 259.453125 291.984375 242.132812 286.574219 C 239.644531 296.34375 235.640625 305.125 230.050781 313.171875 C 224.429688 321.277344 217.433594 328.03125 209.273438 333.8125 Z M 57.171875 216.832031 C 64.539062 199.855469 76.546875 187.683594 92.574219 179.25 C 82.269531 161.4375 78.929688 142.640625 82.417969 122.550781 C 50.882812 136.640625 34.660156 179.164062 57.171875 216.832031 Z M 269.191406 95.085938 C 263.96875 84.648438 256.988281 76.414062 247.738281 70.171875 C 235.007812 61.570312 220.898438 58.105469 205.644531 59.324219 C 194.597656 60.214844 184.363281 63.605469 174.378906 69.546875 C 182.96875 73.253906 190.203125 78.023438 196.578125 84.097656 C 202.9375 90.160156 207.972656 97.207031 212.132812 105.070312 C 220.820312 99.933594 229.859375 96.5625 239.511719 94.835938 C 249.25 93.097656 258.976562 93.191406 269.191406 95.085938 Z M 286.535156 224.695312 C 289.878906 230.53125 292.613281 236.4375 294.503906 242.695312 C 296.402344 248.980469 297.507812 255.398438 297.925781 261.957031 C 298.34375 268.464844 297.671875 274.902344 296.707031 281.519531 C 333.179688 264.125 342.140625 218.355469 321.816406 187.40625 C 314.558594 204.066406 302.617188 216.210938 286.535156 224.695312 Z M 182.335938 191.972656 C 182.457031 191.871094 182.574219 191.769531 182.695312 191.671875 C 182.402344 190.925781 182.117188 190.175781 181.816406 189.429688 C 179.746094 184.332031 178.335938 179.070312 177.601562 173.617188 C 176.710938 167.015625 176.820312 160.429688 177.96875 153.867188 C 178.152344 152.824219 178.265625 151.890625 177.589844 150.855469 C 174.769531 146.527344 171.453125 142.613281 167.976562 138.808594 C 167.144531 137.894531 166.328125 137.75 165.171875 138.164062 C 155.789062 141.511719 147.730469 146.890625 140.640625 153.824219 C 139.617188 154.820312 139.464844 155.753906 139.914062 157.089844 C 141.570312 161.976562 143.660156 166.648438 146.265625 171.121094 C 147.039062 172.4375 147.996094 173.085938 149.4375 173.472656 C 161.148438 176.625 171.578125 182.148438 180.488281 190.453125 C 181.074219 191 181.71875 191.46875 182.335938 191.972656 Z M 127.976562 172.578125 C 123.546875 182.613281 121.765625 192.953125 122.46875 203.746094 C 122.546875 204.90625 123.070312 205.539062 124.089844 205.910156 C 128.296875 207.46875 132.503906 209.023438 136.703125 210.59375 C 138.347656 211.207031 139.742188 210.933594 141.308594 210.03125 C 151.890625 203.941406 163.292969 200.574219 175.539062 200.164062 C 176.238281 200.140625 176.925781 200.058594 177.621094 200.003906 C 177.121094 199.410156 176.546875 199.148438 175.976562 198.882812 C 173.910156 197.910156 171.796875 197.019531 169.785156 195.941406 C 160.695312 191.082031 153.167969 184.414062 147.257812 175.964844 C 146.675781 175.136719 146.128906 174.46875 145.039062 174.246094 C 139.484375 173.128906 133.90625 172.503906 127.976562 172.578125 Z M 191.519531 190.054688 C 191.90625 189.789062 191.996094 189.757812 192.03125 189.699219 C 192.210938 189.339844 192.390625 188.972656 192.542969 188.59375 C 197.457031 176.671875 205.109375 166.9375 215.742188 159.59375 C 216.621094 158.984375 217.132812 158.277344 217.257812 157.234375 C 217.777344 152.859375 218.285156 148.484375 218.871094 144.121094 C 219.054688 142.757812 218.277344 142.234375 217.273438 141.730469 C 208.234375 137.160156 198.675781 134.703125 188.546875 134.398438 C 186.976562 134.351562 186.234375 134.953125 185.59375 136.308594 C 183.59375 140.519531 181.996094 144.867188 180.78125 149.371094 C 180.363281 150.902344 180.535156 152.121094 181.339844 153.515625 C 187.480469 164.179688 190.921875 175.652344 191.363281 187.980469 C 191.375 188.617188 191.453125 189.253906 191.519531 190.054688 Z M 127.019531 222.902344 C 127.109375 223.402344 127.109375 223.65625 127.195312 223.875 C 131.300781 234.082031 137.75 242.578125 146.039062 249.75 C 146.910156 250.503906 147.707031 250.613281 148.703125 250.117188 C 152.191406 248.367188 155.683594 246.621094 159.195312 244.921875 C 160.261719 244.40625 160.707031 243.589844 160.992188 242.492188 C 164.171875 230.261719 170.054688 219.503906 178.671875 210.253906 C 179.015625 209.886719 179.292969 209.453125 179.828125 208.746094 C 176.324219 209.945312 173.304688 211.140625 170.195312 212.015625 C 160.792969 214.679688 151.25 215.175781 141.601562 213.511719 C 140.582031 213.332031 139.628906 213.097656 138.566406 213.789062 C 134.460938 216.476562 130.695312 219.570312 127.019531 222.902344 Z M 199.238281 195.140625 C 199.800781 195.0625 200.035156 195.082031 200.234375 195 C 212.484375 189.734375 225.167969 188.207031 238.324219 190.535156 C 239.035156 190.660156 239.996094 190.460938 240.578125 190.050781 C 243.957031 187.65625 247.261719 185.15625 250.664062 182.628906 C 247.296875 170.960938 241.394531 161.226562 232.9375 152.972656 C 228.503906 154.367188 224.597656 156.355469 220.746094 158.492188 C 219.238281 159.328125 218.378906 160.40625 217.914062 162.160156 C 215.09375 172.699219 210.269531 182.230469 203.160156 190.5625 C 201.917969 192.011719 200.679688 193.460938 199.238281 195.140625 Z M 187.574219 213.445312 C 187.101562 214.34375 186.804688 214.804688 186.601562 215.292969 C 181.664062 227.28125 173.988281 237.082031 163.265625 244.425781 C 162.355469 245.050781 161.980469 245.832031 161.839844 246.835938 C 161.382812 250.0625 160.875 253.285156 160.484375 256.519531 C 160.207031 258.847656 160.273438 258.878906 162.410156 259.78125 C 172.203125 263.933594 182.398438 265.699219 193.007812 264.96875 C 193.640625 264.925781 194.257812 264.769531 195.089844 264.632812 C 196.125 261.433594 197.101562 258.246094 198.195312 255.101562 C 198.828125 253.269531 198.585938 251.75 197.597656 250.042969 C 191.492188 239.457031 188.179688 228.046875 187.757812 215.820312 C 187.738281 215.191406 187.664062 214.5625 187.574219 213.445312 Z M 201.335938 203.917969 C 201.3125 204.027344 201.289062 204.140625 201.265625 204.246094 C 201.527344 204.371094 201.789062 204.492188 202.050781 204.617188 C 204.640625 205.824219 207.304688 206.898438 209.808594 208.261719 C 218.628906 213.074219 225.976562 219.589844 231.71875 227.859375 C 232.523438 229.019531 233.484375 229.683594 234.886719 229.863281 C 237.636719 230.21875 240.378906 230.707031 243.128906 231.046875 C 245.402344 231.320312 245.425781 231.269531 246.457031 229.167969 C 251.101562 219.773438 253.292969 209.816406 253.144531 199.339844 C 253.136719 198.621094 253.039062 197.894531 252.960938 196.851562 C 249.492188 195.703125 246.011719 194.578125 242.546875 193.394531 C 240.816406 192.796875 239.351562 193.039062 237.714844 193.980469 C 226.972656 200.148438 215.402344 203.496094 202.976562 203.8125 C 202.421875 203.816406 201.878906 203.878906 201.335938 203.917969 Z M 196.308594 211.964844 C 196.617188 212.761719 196.890625 213.507812 197.1875 214.242188 C 201.734375 225.394531 203.210938 236.9375 201.28125 248.816406 C 200.890625 251.214844 201.246094 253.074219 202.726562 254.90625 C 204.605469 257.238281 206.386719 259.65625 208.222656 262.050781 C 220.027344 258.191406 229.695312 251.742188 237.757812 242.363281 C 236.125 239.199219 234.496094 236.097656 232.914062 232.972656 C 232.195312 231.5625 231.113281 230.855469 229.5625 230.449219 C 222.164062 228.519531 215.152344 225.585938 208.804688 221.316406 C 204.550781 218.453125 200.578125 215.175781 196.308594 211.964844 Z M 209.714844 263.535156 C 218.570312 272.976562 228.777344 279.65625 240.585938 284.011719 C 243.902344 274.007812 242.414062 251.125 238.042969 244.921875 C 230.277344 253.457031 220.878906 259.566406 209.714844 263.535156 Z M 255.117188 198.097656 C 254.957031 201.234375 254.921875 204.089844 254.628906 206.914062 C 254.339844 209.671875 253.925781 212.429688 253.308594 215.128906 C 252.675781 217.910156 251.84375 220.652344 250.894531 223.339844 C 249.964844 225.980469 248.789062 228.527344 247.628906 231.351562 C 260.390625 231.65625 272.222656 229.277344 283.761719 223.894531 C 276.40625 212.65625 267.09375 204.066406 255.117188 198.097656 Z M 167.671875 295.933594 C 177.007812 291.378906 192.078125 274.269531 193.425781 266.789062 C 181.980469 267.585938 171.027344 265.59375 160.28125 260.871094 C 160.070312 273.289062 162.523438 284.789062 167.671875 295.933594 Z M 252.035156 180.734375 C 259.214844 174.863281 268.679688 160.632812 271.324219 151.089844 C 263.667969 147.984375 241.453125 148.859375 235.230469 152.574219 C 242.90625 160.613281 248.632812 169.832031 252.035156 180.734375 Z M 125.527344 224.691406 C 118.984375 230.085938 108.558594 247.027344 107.9375 253.027344 C 118.175781 255.996094 139.625 254.859375 144.683594 250.984375 C 136.285156 243.789062 129.917969 235.105469 125.527344 224.691406 Z M 218.867188 140.457031 C 218.613281 128.816406 216.207031 118.203125 211.34375 107.824219 C 201.425781 114.195312 193.617188 122.21875 187.652344 132.554688 C 193.304688 132.738281 198.546875 133.375 203.691406 134.679688 C 208.824219 135.972656 213.707031 137.953125 218.867188 140.457031 Z M 125.789062 172.960938 C 118.96875 172.050781 100.480469 176.582031 95.652344 180.246094 C 100.394531 189.058594 114.082031 201.617188 120.199219 203.410156 C 120.613281 198.28125 120.851562 193.082031 121.484375 187.925781 C 122.117188 182.757812 123.820312 177.828125 125.789062 172.960938 Z M 138.679688 152.574219 C 142.953125 149.316406 146.832031 145.953125 151.113281 143.210938 C 155.398438 140.472656 160.089844 138.359375 164.578125 135.984375 C 161.003906 131.253906 145.46875 121.558594 138.257812 120.179688 C 136.003906 131.015625 136.046875 141.769531 138.679688 152.574219 Z M 149.542969 175.359375 C 154.25 185.40625 176.5 200.050781 186.714844 199.878906 C 176.964844 187.574219 164.59375 179.773438 149.542969 175.359375 Z M 199.277344 248.839844 C 202.441406 236.558594 197.09375 211.273438 190.246094 205.703125 C 187.628906 217.015625 192.339844 239.78125 199.277344 248.839844 Z M 216.160156 161.832031 C 205.140625 167.964844 190.613281 190.257812 191.71875 199.113281 C 203.882812 189.449219 211.714844 177.074219 216.160156 161.832031 Z M 187.542969 205.121094 C 175.179688 214.527344 167.378906 226.917969 163.355469 241.796875 C 176.113281 232.683594 184.148438 220.4375 187.542969 205.121094 Z M 236.316406 192.386719 C 220.851562 189.808594 206.511719 192.738281 193.289062 201.15625 C 208.652344 203.238281 222.945312 200.054688 236.316406 192.386719 Z M 179.890625 155.003906 C 176.546875 166.671875 181.3125 189.753906 188.730469 198.351562 C 191.847656 188.988281 187.210938 165.972656 179.890625 155.003906 Z M 142.34375 211.503906 C 154.316406 214.9375 180.824219 209.375 185.914062 202.464844 C 170.492188 200.730469 156.199219 203.878906 142.34375 211.503906 Z M 229.347656 228.292969 C 222.542969 216.949219 201.972656 203.523438 192.429688 204.113281 C 202.140625 216.3125 214.476562 224.195312 229.347656 228.292969 Z M 144.296875 171.992188 C 142.113281 167.097656 139.964844 162.289062 137.71875 157.253906 C 134.152344 161.214844 131.378906 165.621094 128.992188 170.464844 C 134.199219 170.988281 139.195312 171.484375 144.296875 171.992188 Z M 178.742188 148.816406 C 180.527344 144.050781 182.265625 139.390625 184.101562 134.488281 C 178.921875 134.757812 174.015625 135.507812 169.015625 136.992188 C 172.382812 141.085938 175.546875 144.929688 178.742188 148.816406 Z M 122.875 207.683594 C 123.535156 212.230469 124.476562 216.570312 126.132812 220.992188 C 129.765625 218.09375 133.09375 215.4375 136.503906 212.710938 C 131.9375 211.03125 127.542969 209.410156 122.875 207.683594 Z M 231.121094 151.347656 C 227.867188 148.402344 224.625 145.921875 220.871094 143.855469 C 220.363281 148.347656 219.890625 152.574219 219.394531 156.933594 C 223.332031 155.054688 227.039062 153.289062 231.121094 151.347656 Z M 158.425781 258.0625 C 158.691406 255.6875 158.9375 253.917969 159.070312 252.144531 C 159.203125 250.460938 159.925781 248.800781 159.539062 247.054688 C 156.042969 248.765625 152.722656 250.386719 148.976562 252.214844 C 152.21875 254.226562 155.15625 256.039062 158.425781 258.0625 Z M 251.308594 184.410156 C 248.175781 186.839844 245.421875 188.980469 242.4375 191.292969 C 246.039062 192.511719 249.332031 193.621094 253.03125 194.871094 C 252.449219 191.359375 251.914062 188.117188 251.308594 184.410156 Z M 200.3125 254.820312 C 199.210938 258.167969 198.21875 261.191406 197.125 264.53125 C 200.371094 264.089844 203.230469 263.574219 206.242188 262.558594 C 204.175781 259.859375 202.335938 257.46875 200.3125 254.820312 Z M 239.023438 240.71875 C 241.132812 238.289062 242.785156 235.898438 244.230469 233.085938 C 242.390625 232.851562 240.871094 232.664062 239.351562 232.464844 C 237.808594 232.253906 236.257812 232.023438 234.484375 231.761719 C 236.074219 234.890625 237.460938 237.625 239.023438 240.71875 Z M 239.023438 240.71875 " clip-rule="nonzero"/></clipPath><linearGradient x1="-94.511387" gradientTransform="matrix(0.409249, -0.409249, 0.409888, 0.409888, -15.227117, 201.817475)" y1="649.468377" x2="589.386967" gradientUnits="userSpaceOnUse" y2="-143.562106" xlink:type="simple" xlink:actuate="onLoad" id="id6" xlink:show="other"><stop stop-opacity="1" stop-color="rgb(100%, 100%, 100%)" offset="0"/><stop stop-opacity="1" stop-color="rgb(100%, 100%, 100%)" offset="0.25"/><stop stop-opacity="1" stop-color="rgb(100%, 100%, 100%)" offset="0.375"/><stop stop-opacity="1" stop-color="rgb(100%, 100%, 100%)" offset="0.40625"/><stop stop-opacity="1" stop-color="rgb(99.598694%, 99.598694%, 99.598694%)" offset="0.410156"/><stop stop-opacity="1" stop-color="rgb(99.198914%, 99.198914%, 99.198914%)" offset="0.414063"/><stop stop-opacity="1" stop-color="rgb(97.920227%, 97.920227%, 97.920227%)" offset="0.417969"/><stop stop-opacity="1" stop-color="rgb(96.641541%, 96.641541%, 96.641541%)" offset="0.421875"/><stop stop-opacity="1" stop-color="rgb(95.362854%, 95.362854%, 95.362854%)" offset="0.425781"/><stop stop-opacity="1" stop-color="rgb(94.085693%, 94.085693%, 94.085693%)" offset="0.429688"/><stop stop-opacity="1" stop-color="rgb(92.807007%, 92.807007%, 92.807007%)" offset="0.433594"/><stop stop-opacity="1" stop-color="rgb(91.52832%, 91.52832%, 91.52832%)" offset="0.4375"/><stop stop-opacity="1" stop-color="rgb(90.249634%, 90.249634%, 90.249634%)" offset="0.441406"/><stop stop-opacity="1" stop-color="rgb(88.972473%, 88.972473%, 88.972473%)" offset="0.445313"/><stop stop-opacity="1" stop-color="rgb(87.693787%, 87.693787%, 87.693787%)" offset="0.449219"/><stop stop-opacity="1" stop-color="rgb(86.4151%, 86.4151%, 86.4151%)" offset="0.453125"/><stop stop-opacity="1" stop-color="rgb(85.136414%, 85.136414%, 85.136414%)" offset="0.457031"/><stop stop-opacity="1" stop-color="rgb(83.859253%, 83.859253%, 83.859253%)" offset="0.460938"/><stop stop-opacity="1" stop-color="rgb(82.580566%, 82.580566%, 82.580566%)" offset="0.464844"/><stop stop-opacity="1" stop-color="rgb(81.30188%, 81.30188%, 81.30188%)" offset="0.46875"/><stop stop-opacity="1" stop-color="rgb(80.023193%, 80.023193%, 80.023193%)" offset="0.472656"/><stop stop-opacity="1" stop-color="rgb(78.746033%, 78.746033%, 78.746033%)" offset="0.476563"/><stop stop-opacity="1" stop-color="rgb(77.467346%, 77.467346%, 77.467346%)" offset="0.480469"/><stop stop-opacity="1" stop-color="rgb(76.18866%, 76.18866%, 76.18866%)" offset="0.484375"/><stop stop-opacity="1" stop-color="rgb(74.909973%, 74.909973%, 74.909973%)" offset="0.488281"/><stop stop-opacity="1" stop-color="rgb(73.632812%, 73.632812%, 73.632812%)" offset="0.492188"/><stop stop-opacity="1" stop-color="rgb(72.354126%, 72.354126%, 72.354126%)" offset="0.496094"/><stop stop-opacity="1" stop-color="rgb(71.075439%, 71.075439%, 71.075439%)" offset="0.5"/><stop stop-opacity="1" stop-color="rgb(69.796753%, 69.796753%, 69.796753%)" offset="0.503906"/><stop stop-opacity="1" stop-color="rgb(68.519592%, 68.519592%, 68.519592%)" offset="0.507813"/><stop stop-opacity="1" stop-color="rgb(67.240906%, 67.240906%, 67.240906%)" offset="0.511719"/><stop stop-opacity="1" stop-color="rgb(65.962219%, 65.962219%, 65.962219%)" offset="0.515625"/><stop stop-opacity="1" stop-color="rgb(64.683533%, 64.683533%, 64.683533%)" offset="0.519531"/><stop stop-opacity="1" stop-color="rgb(63.406372%, 63.406372%, 63.406372%)" offset="0.523438"/><stop stop-opacity="1" stop-color="rgb(62.127686%, 62.127686%, 62.127686%)" offset="0.527344"/><stop stop-opacity="1" stop-color="rgb(60.848999%, 60.848999%, 60.848999%)" offset="0.53125"/><stop stop-opacity="1" stop-color="rgb(59.570312%, 59.570312%, 59.570312%)" offset="0.535156"/><stop stop-opacity="1" stop-color="rgb(58.293152%, 58.293152%, 58.293152%)" offset="0.539063"/><stop stop-opacity="1" stop-color="rgb(57.014465%, 57.014465%, 57.014465%)" offset="0.542969"/><stop stop-opacity="1" stop-color="rgb(55.735779%, 55.735779%, 55.735779%)" offset="0.546875"/><stop stop-opacity="1" stop-color="rgb(54.457092%, 54.457092%, 54.457092%)" offset="0.550781"/><stop stop-opacity="1" stop-color="rgb(53.179932%, 53.179932%, 53.179932%)" offset="0.554688"/><stop stop-opacity="1" stop-color="rgb(51.901245%, 51.901245%, 51.901245%)" offset="0.558594"/><stop stop-opacity="1" stop-color="rgb(50.622559%, 50.622559%, 50.622559%)" offset="0.5625"/><stop stop-opacity="1" stop-color="rgb(49.343872%, 49.343872%, 49.343872%)" offset="0.566406"/><stop stop-opacity="1" stop-color="rgb(48.066711%, 48.066711%, 48.066711%)" offset="0.570312"/><stop stop-opacity="1" stop-color="rgb(46.788025%, 46.788025%, 46.788025%)" offset="0.574219"/><stop stop-opacity="1" stop-color="rgb(45.509338%, 45.509338%, 45.509338%)" offset="0.578125"/><stop stop-opacity="1" stop-color="rgb(44.230652%, 44.230652%, 44.230652%)" offset="0.582031"/><stop stop-opacity="1" stop-color="rgb(42.953491%, 42.953491%, 42.953491%)" offset="0.585938"/><stop stop-opacity="1" stop-color="rgb(41.674805%, 41.674805%, 41.674805%)" offset="0.589844"/><stop stop-opacity="1" stop-color="rgb(40.396118%, 40.396118%, 40.396118%)" offset="0.59375"/><stop stop-opacity="1" stop-color="rgb(39.117432%, 39.117432%, 39.117432%)" offset="0.597656"/><stop stop-opacity="1" stop-color="rgb(37.840271%, 37.840271%, 37.840271%)" offset="0.601562"/><stop stop-opacity="1" stop-color="rgb(36.561584%, 36.561584%, 36.561584%)" offset="0.605469"/><stop stop-opacity="1" stop-color="rgb(35.282898%, 35.282898%, 35.282898%)" offset="0.609375"/><stop stop-opacity="1" stop-color="rgb(34.004211%, 34.004211%, 34.004211%)" offset="0.613281"/><stop stop-opacity="1" stop-color="rgb(32.727051%, 32.727051%, 32.727051%)" offset="0.617188"/><stop stop-opacity="1" stop-color="rgb(31.448364%, 31.448364%, 31.448364%)" offset="0.621094"/><stop stop-opacity="1" stop-color="rgb(30.169678%, 30.169678%, 30.169678%)" offset="0.625"/><stop stop-opacity="1" stop-color="rgb(28.890991%, 28.890991%, 28.890991%)" offset="0.628906"/><stop stop-opacity="1" stop-color="rgb(27.613831%, 27.613831%, 27.613831%)" offset="0.632812"/><stop stop-opacity="1" stop-color="rgb(26.335144%, 26.335144%, 26.335144%)" offset="0.636719"/><stop stop-opacity="1" stop-color="rgb(25.056458%, 25.056458%, 25.056458%)" offset="0.640625"/><stop stop-opacity="1" stop-color="rgb(23.777771%, 23.777771%, 23.777771%)" offset="0.644531"/><stop stop-opacity="1" stop-color="rgb(22.50061%, 22.50061%, 22.50061%)" offset="0.648438"/><stop stop-opacity="1" stop-color="rgb(21.221924%, 21.221924%, 21.221924%)" offset="0.652344"/><stop stop-opacity="1" stop-color="rgb(19.943237%, 19.943237%, 19.943237%)" offset="0.65625"/><stop stop-opacity="1" stop-color="rgb(18.664551%, 18.664551%, 18.664551%)" offset="0.660156"/><stop stop-opacity="1" stop-color="rgb(17.38739%, 17.38739%, 17.38739%)" offset="0.664062"/><stop stop-opacity="1" stop-color="rgb(16.108704%, 16.108704%, 16.108704%)" offset="0.667969"/><stop stop-opacity="1" stop-color="rgb(14.830017%, 14.830017%, 14.830017%)" offset="0.671875"/><stop stop-opacity="1" stop-color="rgb(13.551331%, 13.551331%, 13.551331%)" offset="0.675781"/><stop stop-opacity="1" stop-color="rgb(12.27417%, 12.27417%, 12.27417%)" offset="0.679688"/><stop stop-opacity="1" stop-color="rgb(10.995483%, 10.995483%, 10.995483%)" offset="0.683594"/><stop stop-opacity="1" stop-color="rgb(9.716797%, 9.716797%, 9.716797%)" offset="0.6875"/><stop stop-opacity="1" stop-color="rgb(8.43811%, 8.43811%, 8.43811%)" offset="0.691406"/><stop stop-opacity="1" stop-color="rgb(7.159424%, 7.159424%, 7.159424%)" offset="0.695313"/><stop stop-opacity="1" stop-color="rgb(5.880737%, 5.880737%, 5.880737%)" offset="0.699219"/><stop stop-opacity="1" stop-color="rgb(4.603577%, 4.603577%, 4.603577%)" offset="0.703125"/><stop stop-opacity="1" stop-color="rgb(3.32489%, 3.32489%, 3.32489%)" offset="0.707031"/><stop stop-opacity="1" stop-color="rgb(2.046204%, 2.046204%, 2.046204%)" offset="0.710938"/><stop stop-opacity="1" stop-color="rgb(1.022339%, 1.022339%, 1.022339%)" offset="0.714844"/><stop stop-opacity="1" stop-color="rgb(0%, 0%, 0%)" offset="0.71875"/><stop stop-opacity="1" stop-color="rgb(0%, 0%, 0%)" offset="0.75"/><stop stop-opacity="1" stop-color="rgb(0%, 0%, 0%)" offset="1"/></linearGradient><clipPath id="id7"><path d="M 44 57 L 335 57 L 335 347 L 44 347 Z M 44 57 " clip-rule="nonzero"/></clipPath><clipPath id="id8"><path d="M -25.761719 202.679688 L 185.308594 -8.390625 L 400.621094 206.921875 L 189.550781 417.996094 Z M -25.761719 202.679688 " clip-rule="nonzero"/></clipPath><clipPath id="id9"><path d="M -25.761719 202.679688 L 185.308594 -8.390625 L 400.621094 206.921875 L 189.550781 417.996094 Z M -25.761719 202.679688 " clip-rule="nonzero"/></clipPath><clipPath id="id10"><path d="M 120.914062 327.382812 C 115.808594 322.460938 111.734375 316.65625 108.609375 310.214844 C 107.925781 308.808594 107.023438 308.1875 105.558594 307.804688 C 90.132812 303.820312 76.988281 295.964844 67.0625 283.46875 C 52.375 264.976562 48.566406 244.207031 55.53125 221.617188 C 56.097656 219.785156 55.894531 218.46875 54.988281 216.859375 C 44.03125 197.4375 41.34375 177.128906 49.179688 156.011719 C 55.023438 140.265625 65.800781 128.699219 80.75 121.082031 C 82.457031 120.210938 83.246094 119.125 83.722656 117.328125 C 87.535156 102.792969 94.828125 90.246094 106.363281 80.601562 C 125.144531 64.898438 146.460938 60.703125 169.933594 67.984375 C 171.582031 68.496094 172.761719 68.335938 174.242188 67.496094 C 192.933594 56.894531 212.605469 53.953125 233.222656 60.914062 C 249.851562 66.535156 262.125 77.476562 270.164062 93.078125 C 271.121094 94.933594 272.304688 95.816406 274.289062 96.351562 C 288.378906 100.121094 300.652344 107.148438 310.171875 118.246094 C 326.324219 137.082031 330.839844 158.558594 323.59375 182.347656 C 323.078125 184.035156 323.097656 185.289062 324.019531 186.890625 C 333.53125 203.441406 336.945312 221.074219 332.457031 239.773438 C 327.761719 259.3125 316.15625 273.632812 298.355469 282.875 C 296.652344 283.757812 295.871094 284.84375 295.40625 286.628906 C 291.535156 301.328125 284.109375 313.972656 272.375 323.667969 C 253.734375 339.054688 232.617188 343.183594 209.417969 336.035156 C 207.621094 335.480469 206.3125 335.648438 204.664062 336.578125 C 185.09375 347.5625 164.675781 350.101562 143.359375 342.136719 C 134.820312 338.9375 127.359375 333.984375 120.914062 327.382812 Z M 242.617188 284.5 C 242.992188 284.738281 243.117188 284.855469 243.261719 284.902344 C 259.90625 290.15625 276.371094 289.945312 292.6875 283.542969 C 294.253906 282.929688 294.695312 281.914062 294.945312 280.445312 C 298.132812 261.898438 295.242188 244.367188 286.179688 227.847656 C 285.757812 227.085938 285.25 226.371094 284.71875 225.527344 C 272.433594 231.226562 259.652344 233.691406 246.613281 233.167969 C 244.234375 236.632812 242.070312 239.78125 239.828125 243.046875 C 244.773438 256.503906 245.566406 270.351562 242.617188 284.5 Z M 207.808594 264.296875 C 204.515625 264.964844 201.5 265.714844 198.441406 266.152344 C 196.710938 266.398438 195.773438 267.109375 195 268.675781 C 190.773438 277.269531 185.050781 284.746094 177.722656 290.933594 C 174.871094 293.34375 171.871094 295.582031 168.8125 297.992188 C 168.910156 298.261719 169.003906 298.65625 169.1875 299.003906 C 177.3125 314.226562 189.023438 325.601562 204.957031 332.488281 C 206.238281 333.042969 207.257812 333.023438 208.324219 332.171875 C 211.125 329.933594 214.0625 327.851562 216.726562 325.457031 C 228.050781 315.273438 235.703125 302.773438 239.804688 288.097656 C 239.996094 287.414062 240.097656 286.707031 240.265625 285.882812 C 227.648438 281.269531 216.914062 274.023438 207.808594 264.296875 Z M 273.480469 151.355469 C 272.589844 153.472656 271.851562 155.367188 271.019531 157.226562 C 266.933594 166.328125 261.339844 174.402344 254.261719 181.417969 C 253.0625 182.609375 252.808594 183.65625 253.1875 185.289062 C 253.855469 188.144531 254.273438 191.0625 254.617188 193.980469 C 254.78125 195.335938 255.214844 196.105469 256.5 196.753906 C 268.074219 202.558594 277.3125 211.027344 284.558594 221.726562 C 284.859375 222.171875 285.320312 222.503906 285.726562 222.910156 C 286.375 222.585938 286.964844 222.304688 287.539062 222.003906 C 296.128906 217.402344 303.542969 211.335938 309.746094 203.828125 C 314.03125 198.640625 317.457031 192.917969 320.082031 186.710938 C 320.578125 185.546875 320.726562 184.566406 319.796875 183.570312 C 319.46875 183.21875 319.265625 182.75 318.980469 182.351562 C 311.097656 171.277344 301.039062 162.765625 288.8125 156.824219 C 283.953125 154.464844 278.910156 152.613281 273.480469 151.355469 Z M 158.425781 260.277344 C 154.816406 257.964844 151.558594 255.945312 148.378906 253.804688 C 147.347656 253.109375 146.488281 252.855469 145.242188 253.253906 C 133.320312 257.074219 121.199219 257.570312 108.925781 255.261719 C 108.304688 255.144531 107.671875 255.105469 107.003906 255.027344 C 106.8125 255.421875 106.628906 255.695312 106.539062 256 C 101.53125 272.5 101.746094 288.828125 108.152344 304.980469 C 108.71875 306.40625 109.5625 306.957031 110.980469 307.203125 C 129.976562 310.539062 147.875 307.542969 164.664062 298.074219 C 165.140625 297.804688 165.539062 297.402344 166.09375 296.972656 C 160.640625 285.21875 158.09375 272.929688 158.425781 260.277344 Z M 272.078125 149.003906 C 272.289062 148.578125 272.433594 148.367188 272.503906 148.140625 C 277.617188 131.566406 277.359375 115.167969 270.960938 98.933594 C 270.394531 97.488281 269.5 96.988281 268.097656 96.742188 C 249.109375 93.425781 231.214844 96.402344 214.429688 105.890625 C 213.957031 106.15625 213.558594 106.558594 213.054688 106.957031 C 213.449219 107.875 213.804688 108.6875 214.148438 109.507812 C 214.492188 110.335938 214.84375 111.167969 215.164062 112.003906 C 218.605469 120.929688 220.515625 130.160156 220.652344 139.738281 C 220.664062 140.71875 220.6875 141.523438 221.726562 142.230469 C 225.164062 144.570312 228.515625 147.039062 231.820312 149.566406 C 232.964844 150.4375 233.929688 150.660156 235.355469 150.234375 C 246.597656 146.902344 258.007812 146.460938 269.535156 148.582031 C 270.339844 148.730469 271.140625 148.847656 272.078125 149.003906 Z M 105.488281 252.582031 C 105.734375 252.257812 105.871094 252.140625 105.925781 252 C 109.882812 241.296875 115.855469 231.847656 123.75 223.625 C 124.578125 222.761719 124.464844 222.007812 124.195312 220.988281 C 123.136719 216.882812 122.082031 212.773438 121.230469 208.625 C 120.914062 207.070312 120.429688 206.0625 118.964844 205.222656 C 110.214844 200.195312 102.828125 193.59375 96.855469 185.445312 C 95.765625 183.953125 94.664062 182.46875 93.632812 181.058594 C 93.21875 181.179688 93.054688 181.195312 92.914062 181.269531 C 77.480469 189.332031 66.019531 201.132812 59.046875 217.183594 C 58.433594 218.59375 58.726562 219.605469 59.535156 220.765625 C 66 230.105469 74.074219 237.71875 83.785156 243.601562 C 90.527344 247.679688 97.71875 250.710938 105.488281 252.582031 Z M 210.25 105.976562 C 210.25 105.898438 210.265625 105.804688 210.242188 105.734375 C 210.125 105.433594 210.003906 105.125 209.851562 104.84375 C 201.859375 89.851562 190.316406 78.652344 174.726562 71.675781 C 172.855469 70.832031 171.582031 71.171875 170.070312 72.246094 C 163.792969 76.730469 158.222656 81.949219 153.421875 88.003906 C 146.800781 96.363281 142.089844 105.679688 139.285156 115.960938 C 139.101562 116.636719 139.019531 117.339844 138.878906 118.089844 C 149.242188 121.875 158.328125 127.40625 166.28125 134.75 C 167.203125 135.597656 168.027344 135.347656 168.976562 135.085938 C 173.792969 133.746094 178.691406 132.882812 183.691406 132.726562 C 185.003906 132.683594 185.695312 132.199219 186.351562 131.074219 C 190.28125 124.324219 195.160156 118.332031 201.117188 113.261719 C 204.019531 110.773438 207.089844 108.484375 210.25 105.976562 Z M 136.445312 119.359375 C 135.882812 119.125 135.449219 118.902344 134.992188 118.765625 C 118.8125 113.882812 102.808594 114.113281 86.953125 120.1875 C 85.222656 120.855469 84.414062 121.785156 84.105469 123.644531 C 81 142.285156 83.910156 159.886719 93.125 176.425781 C 93.472656 177.054688 93.902344 177.632812 94.308594 178.257812 C 94.738281 178.15625 95.070312 178.128906 95.355469 178 C 104.902344 173.660156 114.917969 171.265625 125.398438 170.828125 C 126.597656 170.777344 127.09375 170.183594 127.558594 169.234375 C 129.835938 164.601562 132.667969 160.3125 136 156.382812 C 136.941406 155.269531 137.234375 154.34375 136.875 152.90625 C 134.3125 142.609375 134.144531 132.226562 136.046875 121.800781 C 136.195312 121 136.3125 120.207031 136.445312 119.359375 Z M 57.679688 221.382812 C 44.421875 258.96875 69.28125 297.5625 106.585938 305.96875 C 103.230469 297.640625 101.445312 289.136719 101.230469 280.328125 C 101.011719 271.527344 102.355469 262.9375 105.070312 254.441406 C 85.199219 249.238281 69.609375 238.175781 57.679688 221.382812 Z M 204.394531 334.277344 C 187.566406 326.910156 175.421875 314.945312 166.980469 298.882812 C 161.140625 302.328125 155.214844 304.992188 148.953125 306.875 C 142.679688 308.765625 136.265625 309.847656 129.710938 310.257812 C 123.195312 310.664062 116.746094 309.949219 110.125 309.007812 C 127.472656 345.082031 172.59375 354.710938 204.394531 334.277344 Z M 321.554688 182.796875 C 325.71875 170.164062 326.269531 157.941406 322.941406 145.625 C 318.742188 130.09375 309.75 117.871094 296.640625 108.667969 C 289.402344 103.582031 281.484375 99.953125 272.488281 97.816406 C 279.332031 115.121094 279.460938 132.183594 274.089844 149.480469 C 293.871094 154.8125 309.597656 165.675781 321.554688 182.796875 Z M 136.988281 117.382812 C 139.441406 107.605469 143.503906 98.765625 149.136719 90.667969 C 154.765625 82.578125 161.746094 75.824219 169.949219 70.082031 C 130.039062 55.847656 92.039062 84.902344 85.667969 118.722656 C 102.566406 112.082031 119.621094 111.957031 136.988281 117.382812 Z M 209.273438 333.8125 C 246.660156 347.742188 286.085938 321.5 293.542969 285.1875 C 276.570312 291.886719 259.453125 291.984375 242.132812 286.574219 C 239.644531 296.34375 235.640625 305.125 230.050781 313.171875 C 224.429688 321.277344 217.433594 328.03125 209.273438 333.8125 Z M 57.171875 216.832031 C 64.539062 199.855469 76.546875 187.683594 92.574219 179.25 C 82.269531 161.4375 78.929688 142.640625 82.417969 122.550781 C 50.882812 136.640625 34.660156 179.164062 57.171875 216.832031 Z M 269.191406 95.085938 C 263.96875 84.648438 256.988281 76.414062 247.738281 70.171875 C 235.007812 61.570312 220.898438 58.105469 205.644531 59.324219 C 194.597656 60.214844 184.363281 63.605469 174.378906 69.546875 C 182.96875 73.253906 190.203125 78.023438 196.578125 84.097656 C 202.9375 90.160156 207.972656 97.207031 212.132812 105.070312 C 220.820312 99.933594 229.859375 96.5625 239.511719 94.835938 C 249.25 93.097656 258.976562 93.191406 269.191406 95.085938 Z M 286.535156 224.695312 C 289.878906 230.53125 292.613281 236.4375 294.503906 242.695312 C 296.402344 248.980469 297.507812 255.398438 297.925781 261.957031 C 298.34375 268.464844 297.671875 274.902344 296.707031 281.519531 C 333.179688 264.125 342.140625 218.355469 321.816406 187.40625 C 314.558594 204.066406 302.617188 216.210938 286.535156 224.695312 Z M 182.335938 191.972656 C 182.457031 191.871094 182.574219 191.769531 182.695312 191.671875 C 182.402344 190.925781 182.117188 190.175781 181.816406 189.429688 C 179.746094 184.332031 178.335938 179.070312 177.601562 173.617188 C 176.710938 167.015625 176.820312 160.429688 177.96875 153.867188 C 178.152344 152.824219 178.265625 151.890625 177.589844 150.855469 C 174.769531 146.527344 171.453125 142.613281 167.976562 138.808594 C 167.144531 137.894531 166.328125 137.75 165.171875 138.164062 C 155.789062 141.511719 147.730469 146.890625 140.640625 153.824219 C 139.617188 154.820312 139.464844 155.753906 139.914062 157.089844 C 141.570312 161.976562 143.660156 166.648438 146.265625 171.121094 C 147.039062 172.4375 147.996094 173.085938 149.4375 173.472656 C 161.148438 176.625 171.578125 182.148438 180.488281 190.453125 C 181.074219 191 181.71875 191.46875 182.335938 191.972656 Z M 127.976562 172.578125 C 123.546875 182.613281 121.765625 192.953125 122.46875 203.746094 C 122.546875 204.90625 123.070312 205.539062 124.089844 205.910156 C 128.296875 207.46875 132.503906 209.023438 136.703125 210.59375 C 138.347656 211.207031 139.742188 210.933594 141.308594 210.03125 C 151.890625 203.941406 163.292969 200.574219 175.539062 200.164062 C 176.238281 200.140625 176.925781 200.058594 177.621094 200.003906 C 177.121094 199.410156 176.546875 199.148438 175.976562 198.882812 C 173.910156 197.910156 171.796875 197.019531 169.785156 195.941406 C 160.695312 191.082031 153.167969 184.414062 147.257812 175.964844 C 146.675781 175.136719 146.128906 174.46875 145.039062 174.246094 C 139.484375 173.128906 133.90625 172.503906 127.976562 172.578125 Z M 191.519531 190.054688 C 191.90625 189.789062 191.996094 189.757812 192.03125 189.699219 C 192.210938 189.339844 192.390625 188.972656 192.542969 188.59375 C 197.457031 176.671875 205.109375 166.9375 215.742188 159.59375 C 216.621094 158.984375 217.132812 158.277344 217.257812 157.234375 C 217.777344 152.859375 218.285156 148.484375 218.871094 144.121094 C 219.054688 142.757812 218.277344 142.234375 217.273438 141.730469 C 208.234375 137.160156 198.675781 134.703125 188.546875 134.398438 C 186.976562 134.351562 186.234375 134.953125 185.59375 136.308594 C 183.59375 140.519531 181.996094 144.867188 180.78125 149.371094 C 180.363281 150.902344 180.535156 152.121094 181.339844 153.515625 C 187.480469 164.179688 190.921875 175.652344 191.363281 187.980469 C 191.375 188.617188 191.453125 189.253906 191.519531 190.054688 Z M 127.019531 222.902344 C 127.109375 223.402344 127.109375 223.65625 127.195312 223.875 C 131.300781 234.082031 137.75 242.578125 146.039062 249.75 C 146.910156 250.503906 147.707031 250.613281 148.703125 250.117188 C 152.191406 248.367188 155.683594 246.621094 159.195312 244.921875 C 160.261719 244.40625 160.707031 243.589844 160.992188 242.492188 C 164.171875 230.261719 170.054688 219.503906 178.671875 210.253906 C 179.015625 209.886719 179.292969 209.453125 179.828125 208.746094 C 176.324219 209.945312 173.304688 211.140625 170.195312 212.015625 C 160.792969 214.679688 151.25 215.175781 141.601562 213.511719 C 140.582031 213.332031 139.628906 213.097656 138.566406 213.789062 C 134.460938 216.476562 130.695312 219.570312 127.019531 222.902344 Z M 199.238281 195.140625 C 199.800781 195.0625 200.035156 195.082031 200.234375 195 C 212.484375 189.734375 225.167969 188.207031 238.324219 190.535156 C 239.035156 190.660156 239.996094 190.460938 240.578125 190.050781 C 243.957031 187.65625 247.261719 185.15625 250.664062 182.628906 C 247.296875 170.960938 241.394531 161.226562 232.9375 152.972656 C 228.503906 154.367188 224.597656 156.355469 220.746094 158.492188 C 219.238281 159.328125 218.378906 160.40625 217.914062 162.160156 C 215.09375 172.699219 210.269531 182.230469 203.160156 190.5625 C 201.917969 192.011719 200.679688 193.460938 199.238281 195.140625 Z M 187.574219 213.445312 C 187.101562 214.34375 186.804688 214.804688 186.601562 215.292969 C 181.664062 227.28125 173.988281 237.082031 163.265625 244.425781 C 162.355469 245.050781 161.980469 245.832031 161.839844 246.835938 C 161.382812 250.0625 160.875 253.285156 160.484375 256.519531 C 160.207031 258.847656 160.273438 258.878906 162.410156 259.78125 C 172.203125 263.933594 182.398438 265.699219 193.007812 264.96875 C 193.640625 264.925781 194.257812 264.769531 195.089844 264.632812 C 196.125 261.433594 197.101562 258.246094 198.195312 255.101562 C 198.828125 253.269531 198.585938 251.75 197.597656 250.042969 C 191.492188 239.457031 188.179688 228.046875 187.757812 215.820312 C 187.738281 215.191406 187.664062 214.5625 187.574219 213.445312 Z M 201.335938 203.917969 C 201.3125 204.027344 201.289062 204.140625 201.265625 204.246094 C 201.527344 204.371094 201.789062 204.492188 202.050781 204.617188 C 204.640625 205.824219 207.304688 206.898438 209.808594 208.261719 C 218.628906 213.074219 225.976562 219.589844 231.71875 227.859375 C 232.523438 229.019531 233.484375 229.683594 234.886719 229.863281 C 237.636719 230.21875 240.378906 230.707031 243.128906 231.046875 C 245.402344 231.320312 245.425781 231.269531 246.457031 229.167969 C 251.101562 219.773438 253.292969 209.816406 253.144531 199.339844 C 253.136719 198.621094 253.039062 197.894531 252.960938 196.851562 C 249.492188 195.703125 246.011719 194.578125 242.546875 193.394531 C 240.816406 192.796875 239.351562 193.039062 237.714844 193.980469 C 226.972656 200.148438 215.402344 203.496094 202.976562 203.8125 C 202.421875 203.816406 201.878906 203.878906 201.335938 203.917969 Z M 196.308594 211.964844 C 196.617188 212.761719 196.890625 213.507812 197.1875 214.242188 C 201.734375 225.394531 203.210938 236.9375 201.28125 248.816406 C 200.890625 251.214844 201.246094 253.074219 202.726562 254.90625 C 204.605469 257.238281 206.386719 259.65625 208.222656 262.050781 C 220.027344 258.191406 229.695312 251.742188 237.757812 242.363281 C 236.125 239.199219 234.496094 236.097656 232.914062 232.972656 C 232.195312 231.5625 231.113281 230.855469 229.5625 230.449219 C 222.164062 228.519531 215.152344 225.585938 208.804688 221.316406 C 204.550781 218.453125 200.578125 215.175781 196.308594 211.964844 Z M 209.714844 263.535156 C 218.570312 272.976562 228.777344 279.65625 240.585938 284.011719 C 243.902344 274.007812 242.414062 251.125 238.042969 244.921875 C 230.277344 253.457031 220.878906 259.566406 209.714844 263.535156 Z M 255.117188 198.097656 C 254.957031 201.234375 254.921875 204.089844 254.628906 206.914062 C 254.339844 209.671875 253.925781 212.429688 253.308594 215.128906 C 252.675781 217.910156 251.84375 220.652344 250.894531 223.339844 C 249.964844 225.980469 248.789062 228.527344 247.628906 231.351562 C 260.390625 231.65625 272.222656 229.277344 283.761719 223.894531 C 276.40625 212.65625 267.09375 204.066406 255.117188 198.097656 Z M 167.671875 295.933594 C 177.007812 291.378906 192.078125 274.269531 193.425781 266.789062 C 181.980469 267.585938 171.027344 265.59375 160.28125 260.871094 C 160.070312 273.289062 162.523438 284.789062 167.671875 295.933594 Z M 252.035156 180.734375 C 259.214844 174.863281 268.679688 160.632812 271.324219 151.089844 C 263.667969 147.984375 241.453125 148.859375 235.230469 152.574219 C 242.90625 160.613281 248.632812 169.832031 252.035156 180.734375 Z M 125.527344 224.691406 C 118.984375 230.085938 108.558594 247.027344 107.9375 253.027344 C 118.175781 255.996094 139.625 254.859375 144.683594 250.984375 C 136.285156 243.789062 129.917969 235.105469 125.527344 224.691406 Z M 218.867188 140.457031 C 218.613281 128.816406 216.207031 118.203125 211.34375 107.824219 C 201.425781 114.195312 193.617188 122.21875 187.652344 132.554688 C 193.304688 132.738281 198.546875 133.375 203.691406 134.679688 C 208.824219 135.972656 213.707031 137.953125 218.867188 140.457031 Z M 125.789062 172.960938 C 118.96875 172.050781 100.480469 176.582031 95.652344 180.246094 C 100.394531 189.058594 114.082031 201.617188 120.199219 203.410156 C 120.613281 198.28125 120.851562 193.082031 121.484375 187.925781 C 122.117188 182.757812 123.820312 177.828125 125.789062 172.960938 Z M 138.679688 152.574219 C 142.953125 149.316406 146.832031 145.953125 151.113281 143.210938 C 155.398438 140.472656 160.089844 138.359375 164.578125 135.984375 C 161.003906 131.253906 145.46875 121.558594 138.257812 120.179688 C 136.003906 131.015625 136.046875 141.769531 138.679688 152.574219 Z M 149.542969 175.359375 C 154.25 185.40625 176.5 200.050781 186.714844 199.878906 C 176.964844 187.574219 164.59375 179.773438 149.542969 175.359375 Z M 199.277344 248.839844 C 202.441406 236.558594 197.09375 211.273438 190.246094 205.703125 C 187.628906 217.015625 192.339844 239.78125 199.277344 248.839844 Z M 216.160156 161.832031 C 205.140625 167.964844 190.613281 190.257812 191.71875 199.113281 C 203.882812 189.449219 211.714844 177.074219 216.160156 161.832031 Z M 187.542969 205.121094 C 175.179688 214.527344 167.378906 226.917969 163.355469 241.796875 C 176.113281 232.683594 184.148438 220.4375 187.542969 205.121094 Z M 236.316406 192.386719 C 220.851562 189.808594 206.511719 192.738281 193.289062 201.15625 C 208.652344 203.238281 222.945312 200.054688 236.316406 192.386719 Z M 179.890625 155.003906 C 176.546875 166.671875 181.3125 189.753906 188.730469 198.351562 C 191.847656 188.988281 187.210938 165.972656 179.890625 155.003906 Z M 142.34375 211.503906 C 154.316406 214.9375 180.824219 209.375 185.914062 202.464844 C 170.492188 200.730469 156.199219 203.878906 142.34375 211.503906 Z M 229.347656 228.292969 C 222.542969 216.949219 201.972656 203.523438 192.429688 204.113281 C 202.140625 216.3125 214.476562 224.195312 229.347656 228.292969 Z M 144.296875 171.992188 C 142.113281 167.097656 139.964844 162.289062 137.71875 157.253906 C 134.152344 161.214844 131.378906 165.621094 128.992188 170.464844 C 134.199219 170.988281 139.195312 171.484375 144.296875 171.992188 Z M 178.742188 148.816406 C 180.527344 144.050781 182.265625 139.390625 184.101562 134.488281 C 178.921875 134.757812 174.015625 135.507812 169.015625 136.992188 C 172.382812 141.085938 175.546875 144.929688 178.742188 148.816406 Z M 122.875 207.683594 C 123.535156 212.230469 124.476562 216.570312 126.132812 220.992188 C 129.765625 218.09375 133.09375 215.4375 136.503906 212.710938 C 131.9375 211.03125 127.542969 209.410156 122.875 207.683594 Z M 231.121094 151.347656 C 227.867188 148.402344 224.625 145.921875 220.871094 143.855469 C 220.363281 148.347656 219.890625 152.574219 219.394531 156.933594 C 223.332031 155.054688 227.039062 153.289062 231.121094 151.347656 Z M 158.425781 258.0625 C 158.691406 255.6875 158.9375 253.917969 159.070312 252.144531 C 159.203125 250.460938 159.925781 248.800781 159.539062 247.054688 C 156.042969 248.765625 152.722656 250.386719 148.976562 252.214844 C 152.21875 254.226562 155.15625 256.039062 158.425781 258.0625 Z M 251.308594 184.410156 C 248.175781 186.839844 245.421875 188.980469 242.4375 191.292969 C 246.039062 192.511719 249.332031 193.621094 253.03125 194.871094 C 252.449219 191.359375 251.914062 188.117188 251.308594 184.410156 Z M 200.3125 254.820312 C 199.210938 258.167969 198.21875 261.191406 197.125 264.53125 C 200.371094 264.089844 203.230469 263.574219 206.242188 262.558594 C 204.175781 259.859375 202.335938 257.46875 200.3125 254.820312 Z M 239.023438 240.71875 C 241.132812 238.289062 242.785156 235.898438 244.230469 233.085938 C 242.390625 232.851562 240.871094 232.664062 239.351562 232.464844 C 237.808594 232.253906 236.257812 232.023438 234.484375 231.761719 C 236.074219 234.890625 237.460938 237.625 239.023438 240.71875 Z M 239.023438 240.71875 " clip-rule="nonzero"/></clipPath><linearGradient x1="-94.511387" gradientTransform="matrix(0.409249, -0.409249, 0.409888, 0.409888, -15.227117, 201.817475)" y1="649.468377" x2="589.386967" gradientUnits="userSpaceOnUse" y2="-143.562106" xlink:type="simple" xlink:actuate="onLoad" id="id11" xlink:show="other"><stop stop-opacity="1" stop-color="rgb(100%, 100%, 100%)" offset="0"/><stop stop-opacity="1" stop-color="rgb(100%, 100%, 100%)" offset="0.25"/><stop stop-opacity="1" stop-color="rgb(100%, 100%, 100%)" offset="0.375"/><stop stop-opacity="1" stop-color="rgb(100%, 100%, 100%)" offset="0.40625"/><stop stop-opacity="1" stop-color="rgb(99.598694%, 99.598694%, 99.598694%)" offset="0.410156"/><stop stop-opacity="1" stop-color="rgb(99.198914%, 99.198914%, 99.198914%)" offset="0.414063"/><stop stop-opacity="1" stop-color="rgb(97.920227%, 97.920227%, 97.920227%)" offset="0.417969"/><stop stop-opacity="1" stop-color="rgb(96.641541%, 96.641541%, 96.641541%)" offset="0.421875"/><stop stop-opacity="1" stop-color="rgb(95.362854%, 95.362854%, 95.362854%)" offset="0.425781"/><stop stop-opacity="1" stop-color="rgb(94.085693%, 94.085693%, 94.085693%)" offset="0.429688"/><stop stop-opacity="1" stop-color="rgb(92.807007%, 92.807007%, 92.807007%)" offset="0.433594"/><stop stop-opacity="1" stop-color="rgb(91.52832%, 91.52832%, 91.52832%)" offset="0.4375"/><stop stop-opacity="1" stop-color="rgb(90.249634%, 90.249634%, 90.249634%)" offset="0.441406"/><stop stop-opacity="1" stop-color="rgb(88.972473%, 88.972473%, 88.972473%)" offset="0.445313"/><stop stop-opacity="1" stop-color="rgb(87.693787%, 87.693787%, 87.693787%)" offset="0.449219"/><stop stop-opacity="1" stop-color="rgb(86.4151%, 86.4151%, 86.4151%)" offset="0.453125"/><stop stop-opacity="1" stop-color="rgb(85.136414%, 85.136414%, 85.136414%)" offset="0.457031"/><stop stop-opacity="1" stop-color="rgb(83.859253%, 83.859253%, 83.859253%)" offset="0.460938"/><stop stop-opacity="1" stop-color="rgb(82.580566%, 82.580566%, 82.580566%)" offset="0.464844"/><stop stop-opacity="1" stop-color="rgb(81.30188%, 81.30188%, 81.30188%)" offset="0.46875"/><stop stop-opacity="1" stop-color="rgb(80.023193%, 80.023193%, 80.023193%)" offset="0.472656"/><stop stop-opacity="1" stop-color="rgb(78.746033%, 78.746033%, 78.746033%)" offset="0.476563"/><stop stop-opacity="1" stop-color="rgb(77.467346%, 77.467346%, 77.467346%)" offset="0.480469"/><stop stop-opacity="1" stop-color="rgb(76.18866%, 76.18866%, 76.18866%)" offset="0.484375"/><stop stop-opacity="1" stop-color="rgb(74.909973%, 74.909973%, 74.909973%)" offset="0.488281"/><stop stop-opacity="1" stop-color="rgb(73.632812%, 73.632812%, 73.632812%)" offset="0.492188"/><stop stop-opacity="1" stop-color="rgb(72.354126%, 72.354126%, 72.354126%)" offset="0.496094"/><stop stop-opacity="1" stop-color="rgb(71.075439%, 71.075439%, 71.075439%)" offset="0.5"/><stop stop-opacity="1" stop-color="rgb(69.796753%, 69.796753%, 69.796753%)" offset="0.503906"/><stop stop-opacity="1" stop-color="rgb(68.519592%, 68.519592%, 68.519592%)" offset="0.507813"/><stop stop-opacity="1" stop-color="rgb(67.240906%, 67.240906%, 67.240906%)" offset="0.511719"/><stop stop-opacity="1" stop-color="rgb(65.962219%, 65.962219%, 65.962219%)" offset="0.515625"/><stop stop-opacity="1" stop-color="rgb(64.683533%, 64.683533%, 64.683533%)" offset="0.519531"/><stop stop-opacity="1" stop-color="rgb(63.406372%, 63.406372%, 63.406372%)" offset="0.523438"/><stop stop-opacity="1" stop-color="rgb(62.127686%, 62.127686%, 62.127686%)" offset="0.527344"/><stop stop-opacity="1" stop-color="rgb(60.848999%, 60.848999%, 60.848999%)" offset="0.53125"/><stop stop-opacity="1" stop-color="rgb(59.570312%, 59.570312%, 59.570312%)" offset="0.535156"/><stop stop-opacity="1" stop-color="rgb(58.293152%, 58.293152%, 58.293152%)" offset="0.539063"/><stop stop-opacity="1" stop-color="rgb(57.014465%, 57.014465%, 57.014465%)" offset="0.542969"/><stop stop-opacity="1" stop-color="rgb(55.735779%, 55.735779%, 55.735779%)" offset="0.546875"/><stop stop-opacity="1" stop-color="rgb(54.457092%, 54.457092%, 54.457092%)" offset="0.550781"/><stop stop-opacity="1" stop-color="rgb(53.179932%, 53.179932%, 53.179932%)" offset="0.554688"/><stop stop-opacity="1" stop-color="rgb(51.901245%, 51.901245%, 51.901245%)" offset="0.558594"/><stop stop-opacity="1" stop-color="rgb(50.622559%, 50.622559%, 50.622559%)" offset="0.5625"/><stop stop-opacity="1" stop-color="rgb(49.343872%, 49.343872%, 49.343872%)" offset="0.566406"/><stop stop-opacity="1" stop-color="rgb(48.066711%, 48.066711%, 48.066711%)" offset="0.570312"/><stop stop-opacity="1" stop-color="rgb(46.788025%, 46.788025%, 46.788025%)" offset="0.574219"/><stop stop-opacity="1" stop-color="rgb(45.509338%, 45.509338%, 45.509338%)" offset="0.578125"/><stop stop-opacity="1" stop-color="rgb(44.230652%, 44.230652%, 44.230652%)" offset="0.582031"/><stop stop-opacity="1" stop-color="rgb(42.953491%, 42.953491%, 42.953491%)" offset="0.585938"/><stop stop-opacity="1" stop-color="rgb(41.674805%, 41.674805%, 41.674805%)" offset="0.589844"/><stop stop-opacity="1" stop-color="rgb(40.396118%, 40.396118%, 40.396118%)" offset="0.59375"/><stop stop-opacity="1" stop-color="rgb(39.117432%, 39.117432%, 39.117432%)" offset="0.597656"/><stop stop-opacity="1" stop-color="rgb(37.840271%, 37.840271%, 37.840271%)" offset="0.601562"/><stop stop-opacity="1" stop-color="rgb(36.561584%, 36.561584%, 36.561584%)" offset="0.605469"/><stop stop-opacity="1" stop-color="rgb(35.282898%, 35.282898%, 35.282898%)" offset="0.609375"/><stop stop-opacity="1" stop-color="rgb(34.004211%, 34.004211%, 34.004211%)" offset="0.613281"/><stop stop-opacity="1" stop-color="rgb(32.727051%, 32.727051%, 32.727051%)" offset="0.617188"/><stop stop-opacity="1" stop-color="rgb(31.448364%, 31.448364%, 31.448364%)" offset="0.621094"/><stop stop-opacity="1" stop-color="rgb(30.169678%, 30.169678%, 30.169678%)" offset="0.625"/><stop stop-opacity="1" stop-color="rgb(28.890991%, 28.890991%, 28.890991%)" offset="0.628906"/><stop stop-opacity="1" stop-color="rgb(27.613831%, 27.613831%, 27.613831%)" offset="0.632812"/><stop stop-opacity="1" stop-color="rgb(26.335144%, 26.335144%, 26.335144%)" offset="0.636719"/><stop stop-opacity="1" stop-color="rgb(25.056458%, 25.056458%, 25.056458%)" offset="0.640625"/><stop stop-opacity="1" stop-color="rgb(23.777771%, 23.777771%, 23.777771%)" offset="0.644531"/><stop stop-opacity="1" stop-color="rgb(22.50061%, 22.50061%, 22.50061%)" offset="0.648438"/><stop stop-opacity="1" stop-color="rgb(21.221924%, 21.221924%, 21.221924%)" offset="0.652344"/><stop stop-opacity="1" stop-color="rgb(19.943237%, 19.943237%, 19.943237%)" offset="0.65625"/><stop stop-opacity="1" stop-color="rgb(18.664551%, 18.664551%, 18.664551%)" offset="0.660156"/><stop stop-opacity="1" stop-color="rgb(17.38739%, 17.38739%, 17.38739%)" offset="0.664062"/><stop stop-opacity="1" stop-color="rgb(16.108704%, 16.108704%, 16.108704%)" offset="0.667969"/><stop stop-opacity="1" stop-color="rgb(14.830017%, 14.830017%, 14.830017%)" offset="0.671875"/><stop stop-opacity="1" stop-color="rgb(13.551331%, 13.551331%, 13.551331%)" offset="0.675781"/><stop stop-opacity="1" stop-color="rgb(12.27417%, 12.27417%, 12.27417%)" offset="0.679688"/><stop stop-opacity="1" stop-color="rgb(10.995483%, 10.995483%, 10.995483%)" offset="0.683594"/><stop stop-opacity="1" stop-color="rgb(9.716797%, 9.716797%, 9.716797%)" offset="0.6875"/><stop stop-opacity="1" stop-color="rgb(8.43811%, 8.43811%, 8.43811%)" offset="0.691406"/><stop stop-opacity="1" stop-color="rgb(7.159424%, 7.159424%, 7.159424%)" offset="0.695313"/><stop stop-opacity="1" stop-color="rgb(5.880737%, 5.880737%, 5.880737%)" offset="0.699219"/><stop stop-opacity="1" stop-color="rgb(4.603577%, 4.603577%, 4.603577%)" offset="0.703125"/><stop stop-opacity="1" stop-color="rgb(3.32489%, 3.32489%, 3.32489%)" offset="0.707031"/><stop stop-opacity="1" stop-color="rgb(2.046204%, 2.046204%, 2.046204%)" offset="0.710938"/><stop stop-opacity="1" stop-color="rgb(1.022339%, 1.022339%, 1.022339%)" offset="0.714844"/><stop stop-opacity="1" stop-color="rgb(0%, 0%, 0%)" offset="0.71875"/><stop stop-opacity="1" stop-color="rgb(0%, 0%, 0%)" offset="0.75"/><stop stop-opacity="1" stop-color="rgb(0%, 0%, 0%)" offset="1"/></linearGradient></defs><g clip-path="url(#id2)"><g clip-path="url(#id3)"><g clip-path="url(#id4)"><g clip-path="url(#id5)"><path fill="url(#id6)" d="M -115.71875 204.332031 L 188.402344 508.453125 L 492.523438 204.332031 L 188.402344 -99.789062 Z M -115.71875 204.332031 " fill-rule="nonzero"/></g></g></g></g><g fill="rgb(100%, 100%, 100%)" fill-opacity="1"><g transform="translate(1.869453, 347.574851)"><g><path d="M 2.308594 -9.46875 C 2.308594 -8.699219 2.617188 -8.007812 3.15625 -7.46875 L 9.546875 -0.925781 C 10.164062 -0.308594 10.855469 0 11.855469 0 L 36.648438 0 C 37.652344 0 38.34375 -0.308594 38.960938 -0.925781 L 45.351562 -7.46875 C 45.890625 -8.007812 46.195312 -8.699219 46.195312 -9.46875 L 46.195312 -28.640625 C 46.195312 -29.410156 45.890625 -30.105469 45.351562 -30.644531 L 38.574219 -37.574219 C 37.957031 -38.191406 37.265625 -38.496094 36.265625 -38.496094 L 12.242188 -38.496094 C 11.242188 -38.496094 10.546875 -38.191406 9.933594 -37.574219 L 3.15625 -30.644531 C 2.617188 -30.105469 2.308594 -29.410156 2.308594 -28.640625 Z M 9.777344 -11.472656 L 9.777344 -26.640625 C 9.777344 -27.179688 9.933594 -27.5625 10.316406 -27.949219 L 12.78125 -30.257812 L 13.242188 -30.644531 C 13.398438 -30.796875 13.628906 -30.875 14.011719 -30.875 L 34.492188 -30.875 C 34.800781 -30.875 35.03125 -30.796875 35.265625 -30.644531 L 35.726562 -30.257812 L 38.191406 -27.949219 C 38.574219 -27.5625 38.726562 -27.179688 38.726562 -26.640625 L 38.726562 -11.472656 C 38.726562 -10.933594 38.574219 -10.546875 38.191406 -10.164062 L 36.109375 -8.238281 L 35.648438 -7.851562 C 35.417969 -7.699219 35.1875 -7.621094 34.878906 -7.621094 L 13.628906 -7.621094 C 13.242188 -7.621094 13.011719 -7.699219 12.859375 -7.851562 L 12.394531 -8.238281 L 10.316406 -10.164062 C 9.933594 -10.546875 9.777344 -10.933594 9.777344 -11.472656 Z M 14.167969 3.542969 L 14.167969 8.855469 C 14.167969 9.46875 14.707031 10.007812 15.320312 10.007812 L 33.339844 10.007812 C 33.953125 10.007812 34.492188 9.46875 34.492188 8.855469 L 34.492188 3.542969 C 34.492188 2.925781 33.953125 2.386719 33.339844 2.386719 L 15.320312 2.386719 C 14.707031 2.386719 14.167969 2.925781 14.167969 3.542969 Z M 14.167969 3.542969 "/></g></g></g><g fill="rgb(100%, 100%, 100%)" fill-opacity="1"><g transform="translate(50.374581, 347.574851)"><g><path d="M 2.308594 -37.34375 L 2.308594 -9.316406 C 2.308594 -8.546875 2.617188 -7.851562 3.15625 -7.316406 L 9.933594 -0.925781 C 10.625 -0.386719 11.242188 0 12.242188 0 L 34.339844 0 C 35.339844 0 36.035156 -0.386719 36.648438 -0.925781 L 43.425781 -7.316406 C 44.042969 -7.851562 44.273438 -8.546875 44.273438 -9.316406 L 44.273438 -37.34375 C 44.273438 -37.957031 43.734375 -38.496094 43.117188 -38.496094 L 37.957031 -38.496094 C 37.34375 -38.496094 36.804688 -37.957031 36.804688 -37.34375 L 36.804688 -11.855469 C 36.804688 -11.316406 36.726562 -10.933594 36.265625 -10.546875 L 33.339844 -7.851562 C 33.109375 -7.699219 32.875 -7.621094 32.570312 -7.621094 L 14.011719 -7.621094 C 13.628906 -7.621094 13.398438 -7.699219 13.242188 -7.851562 L 10.316406 -10.546875 C 9.933594 -10.933594 9.777344 -11.316406 9.777344 -11.855469 L 9.777344 -37.34375 C 9.777344 -37.957031 9.238281 -38.496094 8.625 -38.496094 L 3.464844 -38.496094 C 2.847656 -38.496094 2.308594 -37.957031 2.308594 -37.34375 Z M 2.308594 -37.34375 "/></g></g></g><g fill="rgb(100%, 100%, 100%)" fill-opacity="1"><g transform="translate(96.954904, 347.574851)"><g><path d="M 43.425781 -30.644531 L 36.648438 -37.574219 C 36.035156 -38.191406 35.339844 -38.496094 34.339844 -38.496094 L 12.242188 -38.496094 C 11.242188 -38.496094 10.546875 -38.191406 9.933594 -37.574219 L 3.15625 -30.644531 C 2.617188 -30.105469 2.308594 -29.410156 2.308594 -28.640625 L 2.308594 -1.15625 C 2.308594 -0.539062 2.847656 0 3.464844 0 L 8.625 0 C 9.238281 0 9.777344 -0.539062 9.777344 -1.15625 L 9.777344 -12.628906 L 36.804688 -12.628906 L 36.804688 -1.15625 C 36.804688 -0.539062 37.34375 0 37.957031 0 L 43.117188 0 C 43.734375 0 44.273438 -0.539062 44.273438 -1.15625 L 44.273438 -28.640625 C 44.273438 -29.410156 43.964844 -30.105469 43.425781 -30.644531 Z M 9.777344 -19.324219 L 9.777344 -26.640625 C 9.777344 -27.179688 9.933594 -27.5625 10.316406 -27.949219 L 12.78125 -30.257812 L 13.242188 -30.644531 C 13.398438 -30.796875 13.628906 -30.875 14.011719 -30.875 L 32.570312 -30.875 C 32.875 -30.875 33.109375 -30.796875 33.339844 -30.644531 L 33.800781 -30.257812 L 36.265625 -27.949219 C 36.648438 -27.5625 36.804688 -27.179688 36.804688 -26.640625 L 36.804688 -19.324219 Z M 9.777344 -19.324219 "/></g></g></g><g fill="rgb(100%, 100%, 100%)" fill-opacity="1"><g transform="translate(143.535226, 347.574851)"><g><path d="M 2.308594 -1.15625 C 2.308594 -0.539062 2.847656 0 3.464844 0 L 8.625 0 C 9.238281 0 9.777344 -0.539062 9.777344 -1.15625 L 9.777344 -30.875 L 30.488281 -30.875 C 30.796875 -30.875 31.027344 -30.796875 31.261719 -30.644531 L 36.265625 -25.871094 C 36.648438 -25.484375 36.804688 -25.101562 36.804688 -24.5625 L 36.804688 -1.15625 C 36.804688 -0.539062 37.34375 0 37.957031 0 L 43.117188 0 C 43.734375 0 44.273438 -0.539062 44.273438 -1.15625 L 44.273438 -26.71875 C 44.273438 -27.488281 43.964844 -28.179688 43.425781 -28.71875 L 34.726562 -37.574219 C 34.109375 -38.191406 33.414062 -38.496094 32.414062 -38.496094 L 4.695312 -38.496094 C 3.386719 -38.496094 2.308594 -37.496094 2.308594 -36.1875 Z M 2.308594 -1.15625 "/></g></g></g><g fill="rgb(100%, 100%, 100%)" fill-opacity="1"><g transform="translate(190.115549, 347.574851)"><g><path d="M 51.203125 -38.496094 L 3.464844 -38.496094 C 2.847656 -38.496094 2.308594 -37.957031 2.308594 -37.34375 L 2.308594 -31.566406 C 2.308594 -30.953125 2.847656 -30.414062 3.464844 -30.414062 L 23.328125 -30.414062 L 23.328125 -1.15625 C 23.328125 -0.539062 23.867188 0 24.484375 0 L 30.257812 0 C 30.875 0 31.414062 -0.539062 31.414062 -1.15625 L 31.414062 -30.414062 L 51.203125 -30.414062 C 51.816406 -30.414062 52.355469 -30.953125 52.355469 -31.566406 L 52.355469 -37.34375 C 52.355469 -37.957031 51.816406 -38.496094 51.203125 -38.496094 Z M 51.203125 -38.496094 "/></g></g></g><g fill="rgb(100%, 100%, 100%)" fill-opacity="1"><g transform="translate(244.780058, 347.574851)"><g><path d="M 2.308594 -37.34375 L 2.308594 -9.316406 C 2.308594 -8.546875 2.617188 -7.851562 3.15625 -7.316406 L 9.933594 -0.925781 C 10.625 -0.386719 11.242188 0 12.242188 0 L 34.339844 0 C 35.339844 0 36.035156 -0.386719 36.648438 -0.925781 L 43.425781 -7.316406 C 44.042969 -7.851562 44.273438 -8.546875 44.273438 -9.316406 L 44.273438 -37.34375 C 44.273438 -37.957031 43.734375 -38.496094 43.117188 -38.496094 L 37.957031 -38.496094 C 37.34375 -38.496094 36.804688 -37.957031 36.804688 -37.34375 L 36.804688 -11.855469 C 36.804688 -11.316406 36.726562 -10.933594 36.265625 -10.546875 L 33.339844 -7.851562 C 33.109375 -7.699219 32.875 -7.621094 32.570312 -7.621094 L 14.011719 -7.621094 C 13.628906 -7.621094 13.398438 -7.699219 13.242188 -7.851562 L 10.316406 -10.546875 C 9.933594 -10.933594 9.777344 -11.316406 9.777344 -11.855469 L 9.777344 -37.34375 C 9.777344 -37.957031 9.238281 -38.496094 8.625 -38.496094 L 3.464844 -38.496094 C 2.847656 -38.496094 2.308594 -37.957031 2.308594 -37.34375 Z M 2.308594 -37.34375 "/></g></g></g><g fill="rgb(100%, 100%, 100%)" fill-opacity="1"><g transform="translate(291.36037, 347.574851)"><g><path d="M 78.613281 -29.875 L 71.066406 -37.574219 C 70.449219 -38.191406 69.757812 -38.496094 68.757812 -38.496094 L 48.816406 -38.496094 C 47.8125 -38.496094 47.042969 -38.191406 46.503906 -37.574219 L 41.886719 -32.800781 L 37.1875 -37.574219 C 36.648438 -38.191406 35.878906 -38.496094 34.878906 -38.496094 L 13.011719 -38.496094 C 12.011719 -38.496094 11.316406 -38.191406 10.703125 -37.574219 L 3.15625 -29.875 C 2.695312 -29.335938 2.308594 -28.640625 2.308594 -27.871094 L 2.308594 -1.15625 C 2.308594 -0.539062 2.847656 0 3.464844 0 L 8.625 0 C 9.238281 0 9.777344 -0.539062 9.777344 -1.15625 L 9.777344 -25.484375 C 9.777344 -26.023438 9.933594 -26.410156 10.316406 -26.792969 L 14.242188 -30.644531 C 14.476562 -30.796875 14.707031 -30.875 15.015625 -30.875 L 33.109375 -30.875 C 33.414062 -30.875 33.648438 -30.796875 33.878906 -30.644531 L 37.574219 -27.179688 C 37.957031 -26.871094 38.113281 -26.410156 38.113281 -25.871094 L 38.113281 -1.15625 C 38.113281 -0.539062 38.652344 0 39.265625 0 L 44.425781 0 C 45.042969 0 45.582031 -0.539062 45.582031 -1.15625 L 45.582031 -25.871094 C 45.582031 -26.410156 45.734375 -26.871094 46.121094 -27.179688 L 49.816406 -30.644531 C 50.046875 -30.796875 50.277344 -30.875 50.585938 -30.875 L 66.832031 -30.875 C 67.140625 -30.875 67.371094 -30.796875 67.601562 -30.644531 L 71.453125 -26.871094 C 71.835938 -26.5625 71.992188 -26.101562 71.992188 -25.5625 L 71.992188 -1.15625 C 71.992188 -0.539062 72.527344 0 73.144531 0 L 78.304688 0 C 78.917969 0 79.457031 -0.539062 79.457031 -1.15625 L 79.457031 -27.871094 C 79.457031 -28.640625 79.074219 -29.335938 78.613281 -29.875 Z M 78.613281 -29.875 "/></g></g></g><g fill="rgb(100%, 100%, 100%)" fill-opacity="1"><g transform="translate(111.527799, 370.249984)"><g><path d="M 6.359375 0 L 4.703125 0 L 4.703125 -12.796875 L 0.171875 -12.796875 L 0.171875 -14.28125 L 10.875 -14.28125 L 10.875 -12.796875 L 6.359375 -12.796875 Z M 6.359375 0 "/></g></g></g><g fill="rgb(100%, 100%, 100%)" fill-opacity="1"><g transform="translate(122.58793, 370.249984)"><g><path d="M 9.921875 0 L 1.96875 0 L 1.96875 -14.28125 L 9.921875 -14.28125 L 9.921875 -12.796875 L 3.625 -12.796875 L 3.625 -8.203125 L 9.546875 -8.203125 L 9.546875 -6.734375 L 3.625 -6.734375 L 3.625 -1.484375 L 9.921875 -1.484375 Z M 9.921875 0 "/></g></g></g><g fill="rgb(100%, 100%, 100%)" fill-opacity="1"><g transform="translate(133.706631, 370.249984)"><g><path d="M 8.078125 -13 C 6.503906 -13 5.265625 -12.472656 4.359375 -11.421875 C 3.453125 -10.378906 3 -8.953125 3 -7.140625 C 3 -5.273438 3.4375 -3.832031 4.3125 -2.8125 C 5.1875 -1.789062 6.4375 -1.28125 8.0625 -1.28125 C 9.050781 -1.28125 10.1875 -1.457031 11.46875 -1.8125 L 11.46875 -0.359375 C 10.476562 0.015625 9.253906 0.203125 7.796875 0.203125 C 5.703125 0.203125 4.082031 -0.4375 2.9375 -1.71875 C 1.789062 -3 1.21875 -4.8125 1.21875 -7.15625 C 1.21875 -8.625 1.492188 -9.910156 2.046875 -11.015625 C 2.597656 -12.128906 3.390625 -12.984375 4.421875 -13.578125 C 5.460938 -14.179688 6.6875 -14.484375 8.09375 -14.484375 C 9.59375 -14.484375 10.898438 -14.207031 12.015625 -13.65625 L 11.3125 -12.234375 C 10.238281 -12.742188 9.160156 -13 8.078125 -13 Z M 8.078125 -13 "/></g></g></g><g fill="rgb(100%, 100%, 100%)" fill-opacity="1"><g transform="translate(146.318889, 370.249984)"><g><path d="M 12.796875 0 L 11.140625 0 L 11.140625 -6.71875 L 3.625 -6.71875 L 3.625 0 L 1.96875 0 L 1.96875 -14.28125 L 3.625 -14.28125 L 3.625 -8.203125 L 11.140625 -8.203125 L 11.140625 -14.28125 L 12.796875 -14.28125 Z M 12.796875 0 "/></g></g></g><g fill="rgb(100%, 100%, 100%)" fill-opacity="1"><g transform="translate(161.068983, 370.249984)"><g/></g></g><g fill="rgb(100%, 100%, 100%)" fill-opacity="1"><g transform="translate(166.262266, 370.249984)"><g><path d="M 8.078125 -13 C 6.503906 -13 5.265625 -12.472656 4.359375 -11.421875 C 3.453125 -10.378906 3 -8.953125 3 -7.140625 C 3 -5.273438 3.4375 -3.832031 4.3125 -2.8125 C 5.1875 -1.789062 6.4375 -1.28125 8.0625 -1.28125 C 9.050781 -1.28125 10.1875 -1.457031 11.46875 -1.8125 L 11.46875 -0.359375 C 10.476562 0.015625 9.253906 0.203125 7.796875 0.203125 C 5.703125 0.203125 4.082031 -0.4375 2.9375 -1.71875 C 1.789062 -3 1.21875 -4.8125 1.21875 -7.15625 C 1.21875 -8.625 1.492188 -9.910156 2.046875 -11.015625 C 2.597656 -12.128906 3.390625 -12.984375 4.421875 -13.578125 C 5.460938 -14.179688 6.6875 -14.484375 8.09375 -14.484375 C 9.59375 -14.484375 10.898438 -14.207031 12.015625 -13.65625 L 11.3125 -12.234375 C 10.238281 -12.742188 9.160156 -13 8.078125 -13 Z M 8.078125 -13 "/></g></g></g><g fill="rgb(100%, 100%, 100%)" fill-opacity="1"><g transform="translate(178.874524, 370.249984)"><g><path d="M 14.359375 -7.15625 C 14.359375 -4.875 13.78125 -3.078125 12.625 -1.765625 C 11.46875 -0.453125 9.859375 0.203125 7.796875 0.203125 C 5.703125 0.203125 4.082031 -0.4375 2.9375 -1.71875 C 1.789062 -3.007812 1.21875 -4.828125 1.21875 -7.171875 C 1.21875 -9.503906 1.789062 -11.304688 2.9375 -12.578125 C 4.082031 -13.859375 5.710938 -14.5 7.828125 -14.5 C 9.878906 -14.5 11.476562 -13.847656 12.625 -12.546875 C 13.78125 -11.242188 14.359375 -9.445312 14.359375 -7.15625 Z M 2.984375 -7.15625 C 2.984375 -5.226562 3.394531 -3.765625 4.21875 -2.765625 C 5.039062 -1.765625 6.234375 -1.265625 7.796875 -1.265625 C 9.378906 -1.265625 10.570312 -1.757812 11.375 -2.75 C 12.1875 -3.75 12.59375 -5.21875 12.59375 -7.15625 C 12.59375 -9.082031 12.191406 -10.539062 11.390625 -11.53125 C 10.585938 -12.519531 9.398438 -13.015625 7.828125 -13.015625 C 6.242188 -13.015625 5.039062 -12.515625 4.21875 -11.515625 C 3.394531 -10.515625 2.984375 -9.0625 2.984375 -7.15625 Z M 2.984375 -7.15625 "/></g></g></g><g fill="rgb(100%, 100%, 100%)" fill-opacity="1"><g transform="translate(194.444611, 370.249984)"><g><path d="M 8.28125 0 L 3.4375 -12.65625 L 3.359375 -12.65625 C 3.453125 -11.65625 3.5 -10.460938 3.5 -9.078125 L 3.5 0 L 1.96875 0 L 1.96875 -14.28125 L 4.46875 -14.28125 L 8.984375 -2.5 L 9.0625 -2.5 L 13.625 -14.28125 L 16.109375 -14.28125 L 16.109375 0 L 14.4375 0 L 14.4375 -9.203125 C 14.4375 -10.253906 14.484375 -11.398438 14.578125 -12.640625 L 14.5 -12.640625 L 9.625 0 Z M 8.28125 0 "/></g></g></g><g fill="rgb(100%, 100%, 100%)" fill-opacity="1"><g transform="translate(212.494196, 370.249984)"><g><path d="M 11.015625 -10.125 C 11.015625 -8.675781 10.519531 -7.5625 9.53125 -6.78125 C 8.550781 -6 7.140625 -5.609375 5.296875 -5.609375 L 3.625 -5.609375 L 3.625 0 L 1.96875 0 L 1.96875 -14.28125 L 5.671875 -14.28125 C 9.234375 -14.28125 11.015625 -12.894531 11.015625 -10.125 Z M 3.625 -7.046875 L 5.125 -7.046875 C 6.59375 -7.046875 7.65625 -7.28125 8.3125 -7.75 C 8.96875 -8.226562 9.296875 -8.992188 9.296875 -10.046875 C 9.296875 -10.984375 8.984375 -11.679688 8.359375 -12.140625 C 7.742188 -12.609375 6.785156 -12.84375 5.484375 -12.84375 L 3.625 -12.84375 Z M 3.625 -7.046875 "/></g></g></g><g fill="rgb(100%, 100%, 100%)" fill-opacity="1"><g transform="translate(224.530508, 370.249984)"><g><path d="M 10.9375 0 L 9.15625 -4.546875 L 3.4375 -4.546875 L 1.6875 0 L 0 0 L 5.640625 -14.34375 L 7.046875 -14.34375 L 12.65625 0 Z M 8.640625 -6.03125 L 6.984375 -10.453125 C 6.765625 -11.015625 6.539062 -11.703125 6.3125 -12.515625 C 6.175781 -11.890625 5.972656 -11.203125 5.703125 -10.453125 L 4.03125 -6.03125 Z M 8.640625 -6.03125 "/></g></g></g><g fill="rgb(100%, 100%, 100%)" fill-opacity="1"><g transform="translate(237.181813, 370.249984)"><g><path d="M 13.109375 0 L 11.21875 0 L 3.421875 -11.984375 L 3.34375 -11.984375 C 3.445312 -10.578125 3.5 -9.285156 3.5 -8.109375 L 3.5 0 L 1.96875 0 L 1.96875 -14.28125 L 3.84375 -14.28125 L 11.625 -2.34375 L 11.703125 -2.34375 C 11.691406 -2.519531 11.660156 -3.082031 11.609375 -4.03125 C 11.566406 -4.988281 11.550781 -5.671875 11.5625 -6.078125 L 11.5625 -14.28125 L 13.109375 -14.28125 Z M 13.109375 0 "/></g></g></g><g fill="rgb(100%, 100%, 100%)" fill-opacity="1"><g transform="translate(252.254047, 370.249984)"><g><path d="M 5.59375 -7.140625 L 9.40625 -14.28125 L 11.203125 -14.28125 L 6.4375 -5.53125 L 6.4375 0 L 4.75 0 L 4.75 -5.453125 L 0 -14.28125 L 1.8125 -14.28125 Z M 5.59375 -7.140625 "/></g></g></g><g clip-path="url(#id7)"><g clip-path="url(#id8)"><g clip-path="url(#id9)"><g clip-path="url(#id10)"><path fill="url(#id11)" d="M -115.71875 204.332031 L 188.402344 508.453125 L 492.523438 204.332031 L 188.402344 -99.789062 Z M -115.71875 204.332031 " fill-rule="nonzero"/></g></g></g></g></svg>