<svg xmlns="http://www.w3.org/2000/svg" xmlns:xlink="http://www.w3.org/1999/xlink" width="500" zoomAndPan="magnify" viewBox="0 0 375 374.999991" height="500" preserveAspectRatio="xMidYMid meet" version="1.0"><defs><g><g id="id1"/></g><clipPath id="id2"><path d="M 21 15 L 359 15 L 359 353 L 21 353 Z M 21 15 " clip-rule="nonzero"/></clipPath><clipPath id="id3"><path d="M -60.648438 185.21875 L 185.421875 -60.855469 L 435.738281 189.460938 L 189.667969 435.535156 Z M -60.648438 185.21875 " clip-rule="nonzero"/></clipPath><clipPath id="id4"><path d="M -60.648438 185.21875 L 185.421875 -60.855469 L 435.738281 189.460938 L 189.667969 435.535156 Z M -60.648438 185.21875 " clip-rule="nonzero"/></clipPath><clipPath id="id5"><path d="M 109.902344 330.160156 C 103.96875 324.4375 99.234375 317.6875 95.605469 310.195312 C 94.816406 308.554688 93.761719 307.835938 92.0625 307.394531 C 74.105469 302.78125 58.816406 293.652344 47.28125 279.121094 C 30.214844 257.621094 25.816406 233.449219 33.960938 207.136719 C 34.621094 205 34.386719 203.46875 33.335938 201.59375 C 20.609375 179.003906 17.515625 155.363281 26.671875 130.769531 C 33.503906 112.425781 46.070312 98.941406 63.484375 90.046875 C 65.472656 89.03125 66.394531 87.765625 66.953125 85.671875 C 71.414062 68.746094 79.925781 54.128906 93.375 42.878906 C 115.261719 24.566406 140.089844 19.648438 167.398438 28.085938 C 169.320312 28.679688 170.695312 28.488281 172.417969 27.507812 C 194.195312 15.136719 217.105469 11.679688 241.09375 19.75 C 260.445312 26.265625 274.714844 38.984375 284.050781 57.136719 C 285.160156 59.292969 286.539062 60.320312 288.84375 60.9375 C 305.246094 65.304688 319.519531 73.460938 330.585938 86.367188 C 349.355469 108.269531 354.582031 133.265625 346.105469 160.976562 C 345.503906 162.941406 345.519531 164.398438 346.59375 166.265625 C 357.636719 185.515625 361.585938 206.039062 356.328125 227.816406 C 350.832031 250.574219 337.296875 267.261719 316.558594 278.050781 C 314.574219 279.082031 313.664062 280.347656 313.117188 282.425781 C 308.585938 299.546875 299.921875 314.28125 286.246094 325.585938 C 264.515625 343.53125 239.925781 348.375 212.929688 340.089844 C 210.835938 339.445312 209.316406 339.644531 207.394531 340.726562 C 184.59375 353.546875 160.816406 356.539062 136.011719 347.300781 C 126.074219 343.589844 117.398438 337.835938 109.902344 330.160156 Z M 251.660156 280.035156 C 252.101562 280.3125 252.242188 280.445312 252.414062 280.503906 C 271.785156 286.589844 290.953125 286.320312 309.957031 278.835938 C 311.78125 278.121094 312.296875 276.9375 312.59375 275.230469 C 316.332031 253.632812 312.996094 233.226562 302.472656 214.007812 C 301.984375 213.121094 301.394531 212.292969 300.773438 211.308594 C 286.464844 217.964844 271.578125 220.855469 256.402344 220.269531 C 253.625 224.304688 251.097656 227.972656 248.484375 231.78125 C 254.21875 247.441406 255.121094 263.5625 251.660156 280.035156 Z M 211.171875 256.570312 C 207.335938 257.355469 203.824219 258.234375 200.265625 258.746094 C 198.246094 259.039062 197.152344 259.863281 196.25 261.691406 C 191.320312 271.703125 184.644531 280.417969 176.105469 287.632812 C 172.777344 290.445312 169.28125 293.054688 165.71875 295.863281 C 165.832031 296.179688 165.9375 296.636719 166.152344 297.042969 C 175.585938 314.75 189.199219 327.972656 207.738281 335.96875 C 209.230469 336.609375 210.417969 336.585938 211.660156 335.59375 C 214.925781 332.984375 218.347656 330.554688 221.453125 327.761719 C 234.652344 315.886719 243.585938 301.324219 248.382812 284.230469 C 248.609375 283.433594 248.726562 282.609375 248.921875 281.652344 C 234.242188 276.300781 221.757812 267.882812 211.171875 256.570312 Z M 287.8125 124.976562 C 286.777344 127.441406 285.910156 129.648438 284.9375 131.816406 C 280.167969 142.417969 273.644531 151.828125 265.390625 160.007812 C 263.992188 161.394531 263.695312 162.617188 264.132812 164.515625 C 264.90625 167.835938 265.386719 171.238281 265.785156 174.632812 C 265.96875 176.210938 266.476562 177.105469 267.972656 177.859375 C 281.4375 184.597656 292.179688 194.441406 300.597656 206.886719 C 300.945312 207.40625 301.484375 207.789062 301.953125 208.261719 C 302.707031 207.878906 303.394531 207.554688 304.0625 207.203125 C 314.074219 201.832031 322.714844 194.753906 329.949219 186.003906 C 334.945312 179.960938 338.945312 173.292969 342.011719 166.0625 C 342.589844 164.703125 342.765625 163.5625 341.683594 162.40625 C 341.304688 161.996094 341.066406 161.453125 340.734375 160.988281 C 331.574219 148.105469 319.878906 138.214844 305.65625 131.320312 C 300.003906 128.578125 294.132812 126.429688 287.8125 124.976562 Z M 153.6875 251.972656 C 149.488281 249.289062 145.699219 246.941406 142 244.453125 C 140.800781 243.644531 139.804688 243.355469 138.347656 243.816406 C 124.464844 248.285156 110.351562 248.886719 96.066406 246.214844 C 95.34375 246.082031 94.609375 246.035156 93.832031 245.945312 C 93.605469 246.40625 93.390625 246.726562 93.285156 247.078125 C 87.429688 266.300781 87.65625 285.304688 95.085938 304.101562 C 95.742188 305.761719 96.726562 306.398438 98.375 306.683594 C 120.480469 310.535156 141.328125 307.019531 160.886719 295.96875 C 161.441406 295.652344 161.910156 295.1875 162.554688 294.683594 C 156.226562 281.007812 153.277344 266.707031 153.6875 251.972656 Z M 286.183594 122.238281 C 286.433594 121.742188 286.597656 121.5 286.683594 121.234375 C 292.664062 101.933594 292.386719 82.839844 284.964844 63.949219 C 284.308594 62.269531 283.269531 61.6875 281.640625 61.402344 C 259.535156 57.574219 238.699219 61.070312 219.140625 72.144531 C 218.59375 72.453125 218.125 72.921875 217.539062 73.382812 C 217.996094 74.453125 218.410156 75.402344 218.808594 76.355469 C 219.210938 77.316406 219.613281 78.285156 219.984375 79.257812 C 223.980469 89.644531 226.1875 100.386719 226.328125 111.539062 C 226.34375 112.679688 226.367188 113.617188 227.578125 114.4375 C 231.578125 117.15625 235.476562 120.027344 239.316406 122.960938 C 240.644531 123.976562 241.769531 124.230469 243.429688 123.734375 C 256.527344 119.835938 269.8125 119.304688 283.226562 121.753906 C 284.160156 121.925781 285.097656 122.058594 286.183594 122.238281 Z M 92.070312 243.105469 C 92.355469 242.722656 92.515625 242.589844 92.578125 242.421875 C 97.203125 229.953125 104.171875 218.945312 113.375 209.359375 C 114.34375 208.351562 114.210938 207.476562 113.902344 206.289062 C 112.675781 201.511719 111.453125 196.730469 110.46875 191.902344 C 110.101562 190.09375 109.539062 188.921875 107.839844 187.945312 C 97.65625 182.105469 89.070312 174.433594 82.128906 164.953125 C 80.863281 163.21875 79.585938 161.492188 78.382812 159.855469 C 77.902344 159.992188 77.710938 160.011719 77.550781 160.097656 C 59.566406 169.511719 46.203125 183.269531 38.0625 201.96875 C 37.34375 203.609375 37.683594 204.789062 38.621094 206.136719 C 46.132812 217 55.519531 225.851562 66.816406 232.683594 C 74.660156 237.421875 83.027344 240.933594 92.070312 243.105469 Z M 214.277344 72.25 C 214.277344 72.15625 214.296875 72.050781 214.269531 71.964844 C 214.128906 71.617188 213.992188 71.261719 213.816406 70.929688 C 204.535156 53.492188 191.113281 40.472656 172.976562 32.371094 C 170.796875 31.398438 169.316406 31.792969 167.554688 33.046875 C 160.238281 38.28125 153.742188 44.363281 148.144531 51.417969 C 140.425781 61.160156 134.925781 72.015625 131.640625 83.992188 C 131.425781 84.777344 131.328125 85.597656 131.164062 86.472656 C 143.222656 90.859375 153.789062 97.285156 163.039062 105.820312 C 164.113281 106.804688 165.070312 106.515625 166.175781 106.207031 C 171.785156 104.640625 177.488281 103.625 183.3125 103.4375 C 184.84375 103.382812 185.644531 102.820312 186.410156 101.507812 C 191 93.644531 196.6875 86.660156 203.628906 80.746094 C 207.015625 77.84375 210.59375 75.171875 214.277344 72.25 Z M 128.328125 87.953125 C 127.675781 87.679688 127.171875 87.421875 126.636719 87.261719 C 107.8125 81.601562 89.175781 81.902344 70.710938 89 C 68.691406 89.777344 67.75 90.859375 67.386719 93.023438 C 63.742188 114.734375 67.097656 135.21875 77.800781 154.460938 C 78.207031 155.191406 78.707031 155.863281 79.175781 156.59375 C 79.679688 156.472656 80.066406 156.4375 80.394531 156.292969 C 91.515625 151.21875 103.179688 148.417969 115.382812 147.890625 C 116.78125 147.828125 117.359375 147.136719 117.902344 146.03125 C 120.5625 140.636719 123.863281 135.636719 127.75 131.054688 C 128.847656 129.757812 129.191406 128.679688 128.777344 127.007812 C 125.808594 115.023438 125.628906 102.933594 127.859375 90.792969 C 128.039062 89.863281 128.171875 88.9375 128.328125 87.953125 Z M 36.460938 206.859375 C 20.964844 250.640625 49.839844 295.527344 93.257812 305.253906 C 89.363281 295.566406 87.300781 285.667969 87.066406 275.410156 C 86.828125 265.164062 88.402344 255.164062 91.582031 245.269531 C 68.453125 239.242188 50.324219 226.390625 36.460938 206.859375 Z M 207.085938 338.050781 C 187.503906 329.5 173.382812 315.589844 163.582031 296.90625 C 156.78125 300.925781 149.871094 304.039062 142.582031 306.242188 C 135.273438 308.449219 127.808594 309.722656 120.171875 310.207031 C 112.585938 310.695312 105.082031 309.871094 97.375 308.789062 C 117.511719 350.753906 170.023438 361.894531 207.085938 338.050781 Z M 343.730469 161.503906 C 348.597656 146.789062 349.261719 132.554688 345.40625 118.226562 C 340.546875 100.148438 330.09375 85.933594 314.847656 75.238281 C 306.429688 69.332031 297.214844 65.117188 286.746094 62.644531 C 294.6875 82.78125 294.808594 102.644531 288.527344 122.789062 C 311.546875 128.964844 329.839844 141.589844 343.730469 161.503906 Z M 128.964844 85.648438 C 131.839844 74.265625 136.578125 63.964844 143.152344 54.527344 C 149.71875 45.101562 157.859375 37.226562 167.417969 30.527344 C 120.976562 14.019531 76.6875 47.910156 69.214844 87.292969 C 88.902344 79.535156 108.757812 79.363281 128.964844 85.648438 Z M 212.765625 337.5 C 256.269531 353.65625 302.210938 323.039062 310.949219 280.753906 C 291.179688 288.582031 271.253906 288.722656 251.097656 282.449219 C 248.179688 293.828125 243.507812 304.058594 236.988281 313.4375 C 230.429688 322.882812 222.269531 330.757812 212.765625 337.5 Z M 35.878906 201.5625 C 44.480469 181.785156 58.480469 167.597656 77.15625 157.746094 C 65.1875 137.027344 61.332031 115.148438 65.425781 91.757812 C 28.6875 108.210938 9.734375 157.742188 35.878906 201.5625 Z M 282.914062 59.472656 C 276.851562 47.332031 268.738281 37.757812 257.980469 30.503906 C 243.171875 20.511719 226.753906 16.5 208.992188 17.945312 C 196.128906 18.996094 184.207031 22.960938 172.574219 29.898438 C 182.570312 34.199219 190.980469 39.738281 198.394531 46.800781 C 205.785156 53.847656 211.636719 62.042969 216.472656 71.191406 C 226.59375 65.195312 237.121094 61.257812 248.359375 59.230469 C 259.699219 57.195312 271.023438 57.285156 282.914062 59.472656 Z M 302.894531 210.335938 C 306.773438 217.128906 309.949219 223.996094 312.140625 231.28125 C 314.335938 238.59375 315.617188 246.066406 316.09375 253.699219 C 316.570312 261.277344 315.773438 268.773438 314.640625 276.476562 C 357.128906 256.167969 367.640625 202.867188 344.027344 166.867188 C 335.550781 186.273438 321.628906 200.433594 302.894531 210.335938 Z M 181.636719 172.414062 C 181.773438 172.296875 181.914062 172.175781 182.058594 172.0625 C 181.714844 171.195312 181.386719 170.320312 181.03125 169.453125 C 178.632812 163.523438 177.003906 157.398438 176.152344 151.050781 C 175.128906 143.367188 175.265625 135.699219 176.617188 128.058594 C 176.832031 126.84375 176.964844 125.757812 176.179688 124.550781 C 172.902344 119.515625 169.046875 114.964844 165.007812 110.542969 C 164.039062 109.480469 163.089844 109.316406 161.742188 109.796875 C 150.8125 113.710938 141.421875 119.984375 133.15625 128.066406 C 131.964844 129.230469 131.78125 130.320312 132.308594 131.875 C 134.226562 137.5625 136.652344 142.996094 139.675781 148.195312 C 140.574219 149.730469 141.6875 150.484375 143.367188 150.929688 C 156.996094 154.578125 169.128906 160.992188 179.488281 170.648438 C 180.167969 171.28125 180.917969 171.828125 181.636719 172.414062 Z M 118.382812 149.925781 C 113.210938 161.617188 111.117188 173.65625 111.917969 186.21875 C 112.007812 187.570312 112.617188 188.304688 113.804688 188.738281 C 118.699219 190.539062 123.59375 192.34375 128.480469 194.167969 C 130.394531 194.878906 132.019531 194.558594 133.839844 193.507812 C 146.171875 186.398438 159.453125 182.457031 173.710938 181.960938 C 174.519531 181.933594 175.324219 181.835938 176.132812 181.769531 C 175.550781 181.082031 174.882812 180.777344 174.222656 180.46875 C 171.816406 179.339844 169.359375 178.308594 167.019531 177.054688 C 156.441406 171.410156 147.691406 163.664062 140.824219 153.835938 C 140.148438 152.871094 139.511719 152.097656 138.246094 151.839844 C 131.78125 150.546875 125.285156 149.824219 118.382812 149.925781 Z M 192.328125 170.167969 C 192.78125 169.855469 192.886719 169.820312 192.925781 169.753906 C 193.136719 169.332031 193.34375 168.902344 193.527344 168.464844 C 199.265625 154.574219 208.191406 143.230469 220.578125 134.664062 C 221.605469 133.953125 222.203125 133.128906 222.351562 131.910156 C 222.964844 126.820312 223.558594 121.726562 224.246094 116.644531 C 224.464844 115.054688 223.5625 114.449219 222.394531 113.863281 C 211.878906 108.558594 200.753906 105.714844 188.960938 105.375 C 187.132812 105.324219 186.269531 106.023438 185.519531 107.601562 C 183.1875 112.511719 181.320312 117.570312 179.894531 122.816406 C 179.40625 124.601562 179.605469 126.023438 180.539062 127.640625 C 187.671875 140.050781 191.65625 153.398438 192.152344 167.75 C 192.164062 168.492188 192.253906 169.234375 192.328125 170.167969 Z M 117.1875 208.511719 C 117.289062 209.09375 117.289062 209.390625 117.390625 209.644531 C 122.152344 221.523438 129.644531 231.402344 139.285156 239.734375 C 140.296875 240.613281 141.226562 240.742188 142.382812 240.164062 C 146.449219 238.121094 150.515625 236.082031 154.609375 234.09375 C 155.847656 233.492188 156.371094 232.542969 156.703125 231.265625 C 160.429688 217.019531 167.292969 204.484375 177.339844 193.703125 C 177.742188 193.273438 178.066406 192.769531 178.6875 191.949219 C 174.609375 193.347656 171.089844 194.742188 167.46875 195.769531 C 156.519531 198.886719 145.40625 199.480469 134.175781 197.554688 C 132.988281 197.351562 131.878906 197.078125 130.644531 197.886719 C 125.859375 201.023438 121.46875 204.628906 117.1875 208.511719 Z M 201.308594 176.074219 C 201.960938 175.984375 202.238281 176.003906 202.46875 175.90625 C 216.738281 169.757812 231.503906 167.957031 246.820312 170.648438 C 247.648438 170.789062 248.765625 170.558594 249.449219 170.078125 C 253.382812 167.285156 257.234375 164.371094 261.203125 161.421875 C 257.300781 147.84375 250.441406 136.519531 240.609375 126.925781 C 235.445312 128.554688 230.894531 130.875 226.40625 133.371094 C 224.652344 134.347656 223.648438 135.605469 223.105469 137.648438 C 219.804688 149.921875 214.171875 161.027344 205.882812 170.734375 C 204.433594 172.425781 202.988281 174.117188 201.308594 176.074219 Z M 187.699219 197.402344 C 187.148438 198.449219 186.804688 198.984375 186.5625 199.558594 C 180.796875 213.523438 171.84375 224.941406 159.347656 233.511719 C 158.285156 234.242188 157.851562 235.152344 157.683594 236.320312 C 157.148438 240.078125 156.546875 243.832031 156.089844 247.597656 C 155.761719 250.304688 155.839844 250.34375 158.328125 251.390625 C 169.71875 256.210938 181.585938 258.246094 193.941406 257.378906 C 194.675781 257.328125 195.398438 257.140625 196.363281 256.984375 C 197.574219 253.261719 198.714844 249.542969 199.996094 245.882812 C 200.734375 243.75 200.457031 241.980469 199.308594 239.992188 C 192.214844 227.679688 188.382812 214.398438 187.910156 200.167969 C 187.886719 199.4375 187.800781 198.703125 187.699219 197.402344 Z M 203.738281 186.289062 C 203.710938 186.414062 203.679688 186.546875 203.652344 186.671875 C 203.957031 186.816406 204.261719 186.957031 204.566406 187.101562 C 207.582031 188.5 210.679688 189.75 213.589844 191.335938 C 223.851562 196.921875 232.398438 204.492188 239.066406 214.109375 C 240.007812 215.457031 241.121094 216.230469 242.75 216.4375 C 245.957031 216.847656 249.144531 217.414062 252.347656 217.800781 C 254.996094 218.121094 255.019531 218.058594 256.226562 215.609375 C 261.644531 204.664062 264.214844 193.070312 264.058594 180.875 C 264.050781 180.035156 263.941406 179.191406 263.851562 177.976562 C 259.8125 176.648438 255.761719 175.34375 251.734375 173.96875 C 249.71875 173.277344 248.015625 173.558594 246.105469 174.65625 C 233.589844 181.855469 220.113281 185.773438 205.644531 186.164062 C 205.003906 186.171875 204.367188 186.242188 203.738281 186.289062 Z M 197.871094 195.664062 C 198.230469 196.59375 198.542969 197.460938 198.890625 198.316406 C 204.164062 211.289062 205.863281 224.726562 203.601562 238.558594 C 203.140625 241.355469 203.550781 243.519531 205.269531 245.648438 C 207.457031 248.359375 209.523438 251.171875 211.65625 253.957031 C 225.40625 249.441406 236.675781 241.917969 246.074219 230.984375 C 244.179688 227.304688 242.289062 223.695312 240.453125 220.066406 C 239.617188 218.421875 238.359375 217.601562 236.550781 217.128906 C 227.941406 214.894531 219.785156 211.492188 212.402344 206.53125 C 207.457031 203.207031 202.832031 199.394531 197.871094 195.664062 Z M 213.394531 255.679688 C 223.683594 266.660156 235.558594 274.421875 249.300781 279.472656 C 253.175781 267.820312 251.480469 241.179688 246.402344 233.964844 C 237.347656 243.917969 226.398438 251.042969 213.394531 255.679688 Z M 266.359375 179.421875 C 266.164062 183.074219 266.121094 186.398438 265.777344 189.6875 C 265.433594 192.898438 264.945312 196.113281 264.222656 199.253906 C 263.484375 202.492188 262.507812 205.6875 261.402344 208.816406 C 260.316406 211.894531 258.941406 214.859375 257.585938 218.152344 C 272.441406 218.484375 286.21875 215.695312 299.664062 209.40625 C 291.121094 196.339844 280.292969 186.351562 266.359375 179.421875 Z M 164.394531 293.472656 C 175.269531 288.152344 192.84375 268.207031 194.421875 259.5 C 181.097656 260.441406 168.351562 258.140625 155.847656 252.660156 C 155.582031 267.117188 158.417969 280.5 164.394531 293.472656 Z M 262.800781 159.210938 C 271.167969 152.371094 282.207031 135.785156 285.304688 124.671875 C 276.394531 121.066406 250.53125 122.125 243.28125 126.457031 C 252.207031 135.800781 258.855469 146.527344 262.800781 159.210938 Z M 115.445312 210.597656 C 107.820312 216.886719 95.652344 236.632812 94.917969 243.617188 C 106.832031 247.058594 131.808594 245.695312 137.703125 241.175781 C 127.9375 232.816406 120.539062 222.714844 115.445312 210.597656 Z M 224.25 112.378906 C 223.972656 98.828125 221.191406 86.476562 215.542969 74.398438 C 203.992188 81.832031 194.886719 91.183594 187.921875 103.230469 C 194.503906 103.433594 200.605469 104.164062 206.59375 105.675781 C 212.566406 107.175781 218.25 109.46875 224.25 112.378906 Z M 115.835938 150.375 C 107.898438 149.328125 86.363281 154.628906 80.734375 158.902344 C 86.246094 169.15625 102.15625 183.753906 109.273438 185.832031 C 109.765625 179.859375 110.054688 173.804688 110.796875 167.800781 C 111.546875 161.785156 113.53125 156.042969 115.835938 150.375 Z M 130.875 126.613281 C 135.855469 122.816406 140.378906 118.894531 145.367188 115.695312 C 150.363281 112.503906 155.824219 110.035156 161.054688 107.261719 C 156.902344 101.761719 138.832031 90.496094 130.4375 88.902344 C 127.796875 101.523438 127.828125 114.042969 130.875 126.613281 Z M 143.484375 153.128906 C 148.949219 164.816406 174.828125 181.828125 186.71875 181.609375 C 175.390625 167.300781 161 158.238281 143.484375 153.128906 Z M 201.265625 238.589844 C 204.96875 224.289062 198.785156 194.859375 190.824219 188.386719 C 187.753906 201.558594 193.203125 228.058594 201.265625 238.589844 Z M 221.0625 137.265625 C 208.222656 144.425781 191.273438 170.402344 192.546875 180.710938 C 206.722656 169.4375 215.863281 155.019531 221.0625 137.265625 Z M 187.679688 187.710938 C 173.265625 198.683594 164.164062 213.121094 159.457031 230.449219 C 174.324219 219.820312 183.699219 205.546875 187.679688 187.710938 Z M 244.480469 172.804688 C 226.480469 169.832031 209.777344 173.265625 194.371094 183.085938 C 212.253906 185.484375 228.898438 181.753906 244.480469 172.804688 Z M 178.851562 129.378906 C 174.9375 142.964844 180.445312 169.832031 189.070312 179.828125 C 192.714844 168.921875 187.355469 142.136719 178.851562 129.378906 Z M 135.046875 195.21875 C 148.976562 199.195312 179.84375 192.675781 185.78125 184.625 C 167.832031 182.628906 151.1875 186.320312 135.046875 195.21875 Z M 236.304688 214.621094 C 228.402344 201.421875 204.476562 185.828125 193.367188 186.53125 C 204.652344 200.71875 219 209.875 236.304688 214.621094 Z M 137.382812 149.210938 C 134.851562 143.519531 132.355469 137.925781 129.75 132.066406 C 125.589844 136.683594 122.355469 141.816406 119.570312 147.460938 C 125.628906 148.0625 131.449219 148.628906 137.382812 149.210938 Z M 177.523438 122.175781 C 179.609375 116.625 181.640625 111.195312 183.785156 105.488281 C 177.753906 105.808594 172.042969 106.691406 166.21875 108.425781 C 170.128906 113.1875 173.808594 117.65625 177.523438 122.175781 Z M 112.386719 190.800781 C 113.144531 196.09375 114.234375 201.144531 116.15625 206.292969 C 120.386719 202.910156 124.265625 199.8125 128.246094 196.632812 C 122.929688 194.6875 117.816406 192.804688 112.386719 190.800781 Z M 238.5 125.035156 C 234.714844 121.613281 230.945312 118.730469 226.578125 116.332031 C 225.980469 121.5625 225.425781 126.484375 224.839844 131.558594 C 229.421875 129.367188 233.746094 127.304688 238.5 125.035156 Z M 153.6875 249.398438 C 154.003906 246.632812 154.292969 244.570312 154.453125 242.507812 C 154.609375 240.546875 155.449219 238.609375 155.003906 236.578125 C 150.929688 238.574219 147.0625 240.46875 142.699219 242.605469 C 146.472656 244.9375 149.886719 247.042969 153.6875 249.398438 Z M 261.949219 163.496094 C 258.292969 166.328125 255.085938 168.824219 251.605469 171.523438 C 255.796875 172.933594 259.628906 174.21875 263.933594 175.671875 C 263.265625 171.585938 262.648438 167.808594 261.949219 163.496094 Z M 202.460938 245.550781 C 201.171875 249.453125 200.015625 252.972656 198.734375 256.863281 C 202.515625 256.339844 205.84375 255.738281 209.351562 254.550781 C 206.949219 251.414062 204.8125 248.628906 202.460938 245.550781 Z M 247.550781 229.070312 C 250.011719 226.238281 251.941406 223.453125 253.625 220.175781 C 251.484375 219.90625 249.714844 219.691406 247.949219 219.460938 C 246.148438 219.21875 244.347656 218.953125 242.28125 218.652344 C 244.125 222.289062 245.734375 225.472656 247.550781 229.070312 Z M 247.550781 229.070312 " clip-rule="nonzero"/></clipPath><linearGradient x1="-94.542109" gradientTransform="matrix(0.477126, -0.477126, 0.47652, 0.47652, -48.385229, 184.200656)" y1="649.504002" x2="589.429773" gradientUnits="userSpaceOnUse" y2="-143.611743" xlink:type="simple" xlink:actuate="onLoad" id="id6" xlink:show="other"><stop stop-opacity="1" stop-color="rgb(100%, 100%, 100%)" offset="0"/><stop stop-opacity="1" stop-color="rgb(100%, 100%, 100%)" offset="0.25"/><stop stop-opacity="1" stop-color="rgb(100%, 100%, 100%)" offset="0.375"/><stop stop-opacity="1" stop-color="rgb(100%, 100%, 100%)" offset="0.40625"/><stop stop-opacity="1" stop-color="rgb(99.598694%, 99.598694%, 99.598694%)" offset="0.410156"/><stop stop-opacity="1" stop-color="rgb(99.198914%, 99.198914%, 99.198914%)" offset="0.414062"/><stop stop-opacity="1" stop-color="rgb(97.920227%, 97.920227%, 97.920227%)" offset="0.417969"/><stop stop-opacity="1" stop-color="rgb(96.641541%, 96.641541%, 96.641541%)" offset="0.421875"/><stop stop-opacity="1" stop-color="rgb(95.362854%, 95.362854%, 95.362854%)" offset="0.425781"/><stop stop-opacity="1" stop-color="rgb(94.084167%, 94.084167%, 94.084167%)" offset="0.429688"/><stop stop-opacity="1" stop-color="rgb(92.805481%, 92.805481%, 92.805481%)" offset="0.433594"/><stop stop-opacity="1" stop-color="rgb(91.52832%, 91.52832%, 91.52832%)" offset="0.4375"/><stop stop-opacity="1" stop-color="rgb(90.249634%, 90.249634%, 90.249634%)" offset="0.441406"/><stop stop-opacity="1" stop-color="rgb(88.970947%, 88.970947%, 88.970947%)" offset="0.445312"/><stop stop-opacity="1" stop-color="rgb(87.692261%, 87.692261%, 87.692261%)" offset="0.449219"/><stop stop-opacity="1" stop-color="rgb(86.413574%, 86.413574%, 86.413574%)" offset="0.453125"/><stop stop-opacity="1" stop-color="rgb(85.134888%, 85.134888%, 85.134888%)" offset="0.457031"/><stop stop-opacity="1" stop-color="rgb(83.857727%, 83.857727%, 83.857727%)" offset="0.460938"/><stop stop-opacity="1" stop-color="rgb(82.579041%, 82.579041%, 82.579041%)" offset="0.464844"/><stop stop-opacity="1" stop-color="rgb(81.300354%, 81.300354%, 81.300354%)" offset="0.46875"/><stop stop-opacity="1" stop-color="rgb(80.021667%, 80.021667%, 80.021667%)" offset="0.472656"/><stop stop-opacity="1" stop-color="rgb(78.742981%, 78.742981%, 78.742981%)" offset="0.476562"/><stop stop-opacity="1" stop-color="rgb(77.464294%, 77.464294%, 77.464294%)" offset="0.480469"/><stop stop-opacity="1" stop-color="rgb(76.187134%, 76.187134%, 76.187134%)" offset="0.484375"/><stop stop-opacity="1" stop-color="rgb(74.908447%, 74.908447%, 74.908447%)" offset="0.488281"/><stop stop-opacity="1" stop-color="rgb(73.629761%, 73.629761%, 73.629761%)" offset="0.492188"/><stop stop-opacity="1" stop-color="rgb(72.351074%, 72.351074%, 72.351074%)" offset="0.496094"/><stop stop-opacity="1" stop-color="rgb(71.072388%, 71.072388%, 71.072388%)" offset="0.5"/><stop stop-opacity="1" stop-color="rgb(69.793701%, 69.793701%, 69.793701%)" offset="0.503906"/><stop stop-opacity="1" stop-color="rgb(68.516541%, 68.516541%, 68.516541%)" offset="0.507812"/><stop stop-opacity="1" stop-color="rgb(67.237854%, 67.237854%, 67.237854%)" offset="0.511719"/><stop stop-opacity="1" stop-color="rgb(65.959167%, 65.959167%, 65.959167%)" offset="0.515625"/><stop stop-opacity="1" stop-color="rgb(64.680481%, 64.680481%, 64.680481%)" offset="0.519531"/><stop stop-opacity="1" stop-color="rgb(63.401794%, 63.401794%, 63.401794%)" offset="0.523438"/><stop stop-opacity="1" stop-color="rgb(62.123108%, 62.123108%, 62.123108%)" offset="0.527344"/><stop stop-opacity="1" stop-color="rgb(60.845947%, 60.845947%, 60.845947%)" offset="0.53125"/><stop stop-opacity="1" stop-color="rgb(59.567261%, 59.567261%, 59.567261%)" offset="0.535156"/><stop stop-opacity="1" stop-color="rgb(58.288574%, 58.288574%, 58.288574%)" offset="0.539062"/><stop stop-opacity="1" stop-color="rgb(57.009888%, 57.009888%, 57.009888%)" offset="0.542969"/><stop stop-opacity="1" stop-color="rgb(55.731201%, 55.731201%, 55.731201%)" offset="0.546875"/><stop stop-opacity="1" stop-color="rgb(54.452515%, 54.452515%, 54.452515%)" offset="0.550781"/><stop stop-opacity="1" stop-color="rgb(53.173828%, 53.173828%, 53.173828%)" offset="0.554688"/><stop stop-opacity="1" stop-color="rgb(51.895142%, 51.895142%, 51.895142%)" offset="0.558594"/><stop stop-opacity="1" stop-color="rgb(50.617981%, 50.617981%, 50.617981%)" offset="0.5625"/><stop stop-opacity="1" stop-color="rgb(49.339294%, 49.339294%, 49.339294%)" offset="0.566406"/><stop stop-opacity="1" stop-color="rgb(48.060608%, 48.060608%, 48.060608%)" offset="0.570312"/><stop stop-opacity="1" stop-color="rgb(46.781921%, 46.781921%, 46.781921%)" offset="0.574219"/><stop stop-opacity="1" stop-color="rgb(45.503235%, 45.503235%, 45.503235%)" offset="0.578125"/><stop stop-opacity="1" stop-color="rgb(44.224548%, 44.224548%, 44.224548%)" offset="0.582031"/><stop stop-opacity="1" stop-color="rgb(42.947388%, 42.947388%, 42.947388%)" offset="0.585938"/><stop stop-opacity="1" stop-color="rgb(41.668701%, 41.668701%, 41.668701%)" offset="0.589844"/><stop stop-opacity="1" stop-color="rgb(40.390015%, 40.390015%, 40.390015%)" offset="0.59375"/><stop stop-opacity="1" stop-color="rgb(39.111328%, 39.111328%, 39.111328%)" offset="0.597656"/><stop stop-opacity="1" stop-color="rgb(37.832642%, 37.832642%, 37.832642%)" offset="0.601562"/><stop stop-opacity="1" stop-color="rgb(36.553955%, 36.553955%, 36.553955%)" offset="0.605469"/><stop stop-opacity="1" stop-color="rgb(35.276794%, 35.276794%, 35.276794%)" offset="0.609375"/><stop stop-opacity="1" stop-color="rgb(33.998108%, 33.998108%, 33.998108%)" offset="0.613281"/><stop stop-opacity="1" stop-color="rgb(32.719421%, 32.719421%, 32.719421%)" offset="0.617188"/><stop stop-opacity="1" stop-color="rgb(31.440735%, 31.440735%, 31.440735%)" offset="0.621094"/><stop stop-opacity="1" stop-color="rgb(30.162048%, 30.162048%, 30.162048%)" offset="0.625"/><stop stop-opacity="1" stop-color="rgb(28.883362%, 28.883362%, 28.883362%)" offset="0.628906"/><stop stop-opacity="1" stop-color="rgb(27.606201%, 27.606201%, 27.606201%)" offset="0.632812"/><stop stop-opacity="1" stop-color="rgb(26.327515%, 26.327515%, 26.327515%)" offset="0.636719"/><stop stop-opacity="1" stop-color="rgb(25.048828%, 25.048828%, 25.048828%)" offset="0.640625"/><stop stop-opacity="1" stop-color="rgb(23.770142%, 23.770142%, 23.770142%)" offset="0.644531"/><stop stop-opacity="1" stop-color="rgb(22.491455%, 22.491455%, 22.491455%)" offset="0.648438"/><stop stop-opacity="1" stop-color="rgb(21.212769%, 21.212769%, 21.212769%)" offset="0.652344"/><stop stop-opacity="1" stop-color="rgb(19.935608%, 19.935608%, 19.935608%)" offset="0.65625"/><stop stop-opacity="1" stop-color="rgb(18.656921%, 18.656921%, 18.656921%)" offset="0.660156"/><stop stop-opacity="1" stop-color="rgb(17.378235%, 17.378235%, 17.378235%)" offset="0.664062"/><stop stop-opacity="1" stop-color="rgb(16.099548%, 16.099548%, 16.099548%)" offset="0.667969"/><stop stop-opacity="1" stop-color="rgb(14.820862%, 14.820862%, 14.820862%)" offset="0.671875"/><stop stop-opacity="1" stop-color="rgb(13.542175%, 13.542175%, 13.542175%)" offset="0.675781"/><stop stop-opacity="1" stop-color="rgb(12.263489%, 12.263489%, 12.263489%)" offset="0.679688"/><stop stop-opacity="1" stop-color="rgb(10.984802%, 10.984802%, 10.984802%)" offset="0.683594"/><stop stop-opacity="1" stop-color="rgb(9.707642%, 9.707642%, 9.707642%)" offset="0.6875"/><stop stop-opacity="1" stop-color="rgb(8.428955%, 8.428955%, 8.428955%)" offset="0.691406"/><stop stop-opacity="1" stop-color="rgb(7.150269%, 7.150269%, 7.150269%)" offset="0.695313"/><stop stop-opacity="1" stop-color="rgb(5.871582%, 5.871582%, 5.871582%)" offset="0.699219"/><stop stop-opacity="1" stop-color="rgb(4.592896%, 4.592896%, 4.592896%)" offset="0.703125"/><stop stop-opacity="1" stop-color="rgb(3.314209%, 3.314209%, 3.314209%)" offset="0.707031"/><stop stop-opacity="1" stop-color="rgb(2.037048%, 2.037048%, 2.037048%)" offset="0.710938"/><stop stop-opacity="1" stop-color="rgb(1.017761%, 1.017761%, 1.017761%)" offset="0.714844"/><stop stop-opacity="1" stop-color="rgb(0%, 0%, 0%)" offset="0.71875"/><stop stop-opacity="1" stop-color="rgb(0%, 0%, 0%)" offset="0.75"/><stop stop-opacity="1" stop-color="rgb(0%, 0%, 0%)" offset="1"/></linearGradient><clipPath id="id7"><path d="M 21 15 L 359 15 L 359 353 L 21 353 Z M 21 15 " clip-rule="nonzero"/></clipPath><clipPath id="id8"><path d="M -60.648438 185.21875 L 185.421875 -60.855469 L 435.738281 189.460938 L 189.667969 435.535156 Z M -60.648438 185.21875 " clip-rule="nonzero"/></clipPath><clipPath id="id9"><path d="M -60.648438 185.21875 L 185.421875 -60.855469 L 435.738281 189.460938 L 189.667969 435.535156 Z M -60.648438 185.21875 " clip-rule="nonzero"/></clipPath><clipPath id="id10"><path d="M 109.902344 330.160156 C 103.96875 324.4375 99.234375 317.6875 95.605469 310.195312 C 94.816406 308.554688 93.761719 307.835938 92.0625 307.394531 C 74.105469 302.78125 58.816406 293.652344 47.28125 279.121094 C 30.214844 257.621094 25.816406 233.449219 33.960938 207.136719 C 34.621094 205 34.386719 203.46875 33.335938 201.59375 C 20.609375 179.003906 17.515625 155.363281 26.671875 130.769531 C 33.503906 112.425781 46.070312 98.941406 63.484375 90.046875 C 65.472656 89.03125 66.394531 87.765625 66.953125 85.671875 C 71.414062 68.746094 79.925781 54.128906 93.375 42.878906 C 115.261719 24.566406 140.089844 19.648438 167.398438 28.085938 C 169.320312 28.679688 170.695312 28.488281 172.417969 27.507812 C 194.195312 15.136719 217.105469 11.679688 241.09375 19.75 C 260.445312 26.265625 274.714844 38.984375 284.050781 57.136719 C 285.160156 59.292969 286.539062 60.320312 288.84375 60.9375 C 305.246094 65.304688 319.519531 73.460938 330.585938 86.367188 C 349.355469 108.269531 354.582031 133.265625 346.105469 160.976562 C 345.503906 162.941406 345.519531 164.398438 346.59375 166.265625 C 357.636719 185.515625 361.585938 206.039062 356.328125 227.816406 C 350.832031 250.574219 337.296875 267.261719 316.558594 278.050781 C 314.574219 279.082031 313.664062 280.347656 313.117188 282.425781 C 308.585938 299.546875 299.921875 314.28125 286.246094 325.585938 C 264.515625 343.53125 239.925781 348.375 212.929688 340.089844 C 210.835938 339.445312 209.316406 339.644531 207.394531 340.726562 C 184.59375 353.546875 160.816406 356.539062 136.011719 347.300781 C 126.074219 343.589844 117.398438 337.835938 109.902344 330.160156 Z M 251.660156 280.035156 C 252.101562 280.3125 252.242188 280.445312 252.414062 280.503906 C 271.785156 286.589844 290.953125 286.320312 309.957031 278.835938 C 311.78125 278.121094 312.296875 276.9375 312.59375 275.230469 C 316.332031 253.632812 312.996094 233.226562 302.472656 214.007812 C 301.984375 213.121094 301.394531 212.292969 300.773438 211.308594 C 286.464844 217.964844 271.578125 220.855469 256.402344 220.269531 C 253.625 224.304688 251.097656 227.972656 248.484375 231.78125 C 254.21875 247.441406 255.121094 263.5625 251.660156 280.035156 Z M 211.171875 256.570312 C 207.335938 257.355469 203.824219 258.234375 200.265625 258.746094 C 198.246094 259.039062 197.152344 259.863281 196.25 261.691406 C 191.320312 271.703125 184.644531 280.417969 176.105469 287.632812 C 172.777344 290.445312 169.28125 293.054688 165.71875 295.863281 C 165.832031 296.179688 165.9375 296.636719 166.152344 297.042969 C 175.585938 314.75 189.199219 327.972656 207.738281 335.96875 C 209.230469 336.609375 210.417969 336.585938 211.660156 335.59375 C 214.925781 332.984375 218.347656 330.554688 221.453125 327.761719 C 234.652344 315.886719 243.585938 301.324219 248.382812 284.230469 C 248.609375 283.433594 248.726562 282.609375 248.921875 281.652344 C 234.242188 276.300781 221.757812 267.882812 211.171875 256.570312 Z M 287.8125 124.976562 C 286.777344 127.441406 285.910156 129.648438 284.9375 131.816406 C 280.167969 142.417969 273.644531 151.828125 265.390625 160.007812 C 263.992188 161.394531 263.695312 162.617188 264.132812 164.515625 C 264.90625 167.835938 265.386719 171.238281 265.785156 174.632812 C 265.96875 176.210938 266.476562 177.105469 267.972656 177.859375 C 281.4375 184.597656 292.179688 194.441406 300.597656 206.886719 C 300.945312 207.40625 301.484375 207.789062 301.953125 208.261719 C 302.707031 207.878906 303.394531 207.554688 304.0625 207.203125 C 314.074219 201.832031 322.714844 194.753906 329.949219 186.003906 C 334.945312 179.960938 338.945312 173.292969 342.011719 166.0625 C 342.589844 164.703125 342.765625 163.5625 341.683594 162.40625 C 341.304688 161.996094 341.066406 161.453125 340.734375 160.988281 C 331.574219 148.105469 319.878906 138.214844 305.65625 131.320312 C 300.003906 128.578125 294.132812 126.429688 287.8125 124.976562 Z M 153.6875 251.972656 C 149.488281 249.289062 145.699219 246.941406 142 244.453125 C 140.800781 243.644531 139.804688 243.355469 138.347656 243.816406 C 124.464844 248.285156 110.351562 248.886719 96.066406 246.214844 C 95.34375 246.082031 94.609375 246.035156 93.832031 245.945312 C 93.605469 246.40625 93.390625 246.726562 93.285156 247.078125 C 87.429688 266.300781 87.65625 285.304688 95.085938 304.101562 C 95.742188 305.761719 96.726562 306.398438 98.375 306.683594 C 120.480469 310.535156 141.328125 307.019531 160.886719 295.96875 C 161.441406 295.652344 161.910156 295.1875 162.554688 294.683594 C 156.226562 281.007812 153.277344 266.707031 153.6875 251.972656 Z M 286.183594 122.238281 C 286.433594 121.742188 286.597656 121.5 286.683594 121.234375 C 292.664062 101.933594 292.386719 82.839844 284.964844 63.949219 C 284.308594 62.269531 283.269531 61.6875 281.640625 61.402344 C 259.535156 57.574219 238.699219 61.070312 219.140625 72.144531 C 218.59375 72.453125 218.125 72.921875 217.539062 73.382812 C 217.996094 74.453125 218.410156 75.402344 218.808594 76.355469 C 219.210938 77.316406 219.613281 78.285156 219.984375 79.257812 C 223.980469 89.644531 226.1875 100.386719 226.328125 111.539062 C 226.34375 112.679688 226.367188 113.617188 227.578125 114.4375 C 231.578125 117.15625 235.476562 120.027344 239.316406 122.960938 C 240.644531 123.976562 241.769531 124.230469 243.429688 123.734375 C 256.527344 119.835938 269.8125 119.304688 283.226562 121.753906 C 284.160156 121.925781 285.097656 122.058594 286.183594 122.238281 Z M 92.070312 243.105469 C 92.355469 242.722656 92.515625 242.589844 92.578125 242.421875 C 97.203125 229.953125 104.171875 218.945312 113.375 209.359375 C 114.34375 208.351562 114.210938 207.476562 113.902344 206.289062 C 112.675781 201.511719 111.453125 196.730469 110.46875 191.902344 C 110.101562 190.09375 109.539062 188.921875 107.839844 187.945312 C 97.65625 182.105469 89.070312 174.433594 82.128906 164.953125 C 80.863281 163.21875 79.585938 161.492188 78.382812 159.855469 C 77.902344 159.992188 77.710938 160.011719 77.550781 160.097656 C 59.566406 169.511719 46.203125 183.269531 38.0625 201.96875 C 37.34375 203.609375 37.683594 204.789062 38.621094 206.136719 C 46.132812 217 55.519531 225.851562 66.816406 232.683594 C 74.660156 237.421875 83.027344 240.933594 92.070312 243.105469 Z M 214.277344 72.25 C 214.277344 72.15625 214.296875 72.050781 214.269531 71.964844 C 214.128906 71.617188 213.992188 71.261719 213.816406 70.929688 C 204.535156 53.492188 191.113281 40.472656 172.976562 32.371094 C 170.796875 31.398438 169.316406 31.792969 167.554688 33.046875 C 160.238281 38.28125 153.742188 44.363281 148.144531 51.417969 C 140.425781 61.160156 134.925781 72.015625 131.640625 83.992188 C 131.425781 84.777344 131.328125 85.597656 131.164062 86.472656 C 143.222656 90.859375 153.789062 97.285156 163.039062 105.820312 C 164.113281 106.804688 165.070312 106.515625 166.175781 106.207031 C 171.785156 104.640625 177.488281 103.625 183.3125 103.4375 C 184.84375 103.382812 185.644531 102.820312 186.410156 101.507812 C 191 93.644531 196.6875 86.660156 203.628906 80.746094 C 207.015625 77.84375 210.59375 75.171875 214.277344 72.25 Z M 128.328125 87.953125 C 127.675781 87.679688 127.171875 87.421875 126.636719 87.261719 C 107.8125 81.601562 89.175781 81.902344 70.710938 89 C 68.691406 89.777344 67.75 90.859375 67.386719 93.023438 C 63.742188 114.734375 67.097656 135.21875 77.800781 154.460938 C 78.207031 155.191406 78.707031 155.863281 79.175781 156.59375 C 79.679688 156.472656 80.066406 156.4375 80.394531 156.292969 C 91.515625 151.21875 103.179688 148.417969 115.382812 147.890625 C 116.78125 147.828125 117.359375 147.136719 117.902344 146.03125 C 120.5625 140.636719 123.863281 135.636719 127.75 131.054688 C 128.847656 129.757812 129.191406 128.679688 128.777344 127.007812 C 125.808594 115.023438 125.628906 102.933594 127.859375 90.792969 C 128.039062 89.863281 128.171875 88.9375 128.328125 87.953125 Z M 36.460938 206.859375 C 20.964844 250.640625 49.839844 295.527344 93.257812 305.253906 C 89.363281 295.566406 87.300781 285.667969 87.066406 275.410156 C 86.828125 265.164062 88.402344 255.164062 91.582031 245.269531 C 68.453125 239.242188 50.324219 226.390625 36.460938 206.859375 Z M 207.085938 338.050781 C 187.503906 329.5 173.382812 315.589844 163.582031 296.90625 C 156.78125 300.925781 149.871094 304.039062 142.582031 306.242188 C 135.273438 308.449219 127.808594 309.722656 120.171875 310.207031 C 112.585938 310.695312 105.082031 309.871094 97.375 308.789062 C 117.511719 350.753906 170.023438 361.894531 207.085938 338.050781 Z M 343.730469 161.503906 C 348.597656 146.789062 349.261719 132.554688 345.40625 118.226562 C 340.546875 100.148438 330.09375 85.933594 314.847656 75.238281 C 306.429688 69.332031 297.214844 65.117188 286.746094 62.644531 C 294.6875 82.78125 294.808594 102.644531 288.527344 122.789062 C 311.546875 128.964844 329.839844 141.589844 343.730469 161.503906 Z M 128.964844 85.648438 C 131.839844 74.265625 136.578125 63.964844 143.152344 54.527344 C 149.71875 45.101562 157.859375 37.226562 167.417969 30.527344 C 120.976562 14.019531 76.6875 47.910156 69.214844 87.292969 C 88.902344 79.535156 108.757812 79.363281 128.964844 85.648438 Z M 212.765625 337.5 C 256.269531 353.65625 302.210938 323.039062 310.949219 280.753906 C 291.179688 288.582031 271.253906 288.722656 251.097656 282.449219 C 248.179688 293.828125 243.507812 304.058594 236.988281 313.4375 C 230.429688 322.882812 222.269531 330.757812 212.765625 337.5 Z M 35.878906 201.5625 C 44.480469 181.785156 58.480469 167.597656 77.15625 157.746094 C 65.1875 137.027344 61.332031 115.148438 65.425781 91.757812 C 28.6875 108.210938 9.734375 157.742188 35.878906 201.5625 Z M 282.914062 59.472656 C 276.851562 47.332031 268.738281 37.757812 257.980469 30.503906 C 243.171875 20.511719 226.753906 16.5 208.992188 17.945312 C 196.128906 18.996094 184.207031 22.960938 172.574219 29.898438 C 182.570312 34.199219 190.980469 39.738281 198.394531 46.800781 C 205.785156 53.847656 211.636719 62.042969 216.472656 71.191406 C 226.59375 65.195312 237.121094 61.257812 248.359375 59.230469 C 259.699219 57.195312 271.023438 57.285156 282.914062 59.472656 Z M 302.894531 210.335938 C 306.773438 217.128906 309.949219 223.996094 312.140625 231.28125 C 314.335938 238.59375 315.617188 246.066406 316.09375 253.699219 C 316.570312 261.277344 315.773438 268.773438 314.640625 276.476562 C 357.128906 256.167969 367.640625 202.867188 344.027344 166.867188 C 335.550781 186.273438 321.628906 200.433594 302.894531 210.335938 Z M 181.636719 172.414062 C 181.773438 172.296875 181.914062 172.175781 182.058594 172.0625 C 181.714844 171.195312 181.386719 170.320312 181.03125 169.453125 C 178.632812 163.523438 177.003906 157.398438 176.152344 151.050781 C 175.128906 143.367188 175.265625 135.699219 176.617188 128.058594 C 176.832031 126.84375 176.964844 125.757812 176.179688 124.550781 C 172.902344 119.515625 169.046875 114.964844 165.007812 110.542969 C 164.039062 109.480469 163.089844 109.316406 161.742188 109.796875 C 150.8125 113.710938 141.421875 119.984375 133.15625 128.066406 C 131.964844 129.230469 131.78125 130.320312 132.308594 131.875 C 134.226562 137.5625 136.652344 142.996094 139.675781 148.195312 C 140.574219 149.730469 141.6875 150.484375 143.367188 150.929688 C 156.996094 154.578125 169.128906 160.992188 179.488281 170.648438 C 180.167969 171.28125 180.917969 171.828125 181.636719 172.414062 Z M 118.382812 149.925781 C 113.210938 161.617188 111.117188 173.65625 111.917969 186.21875 C 112.007812 187.570312 112.617188 188.304688 113.804688 188.738281 C 118.699219 190.539062 123.59375 192.34375 128.480469 194.167969 C 130.394531 194.878906 132.019531 194.558594 133.839844 193.507812 C 146.171875 186.398438 159.453125 182.457031 173.710938 181.960938 C 174.519531 181.933594 175.324219 181.835938 176.132812 181.769531 C 175.550781 181.082031 174.882812 180.777344 174.222656 180.46875 C 171.816406 179.339844 169.359375 178.308594 167.019531 177.054688 C 156.441406 171.410156 147.691406 163.664062 140.824219 153.835938 C 140.148438 152.871094 139.511719 152.097656 138.246094 151.839844 C 131.78125 150.546875 125.285156 149.824219 118.382812 149.925781 Z M 192.328125 170.167969 C 192.78125 169.855469 192.886719 169.820312 192.925781 169.753906 C 193.136719 169.332031 193.34375 168.902344 193.527344 168.464844 C 199.265625 154.574219 208.191406 143.230469 220.578125 134.664062 C 221.605469 133.953125 222.203125 133.128906 222.351562 131.910156 C 222.964844 126.820312 223.558594 121.726562 224.246094 116.644531 C 224.464844 115.054688 223.5625 114.449219 222.394531 113.863281 C 211.878906 108.558594 200.753906 105.714844 188.960938 105.375 C 187.132812 105.324219 186.269531 106.023438 185.519531 107.601562 C 183.1875 112.511719 181.320312 117.570312 179.894531 122.816406 C 179.40625 124.601562 179.605469 126.023438 180.539062 127.640625 C 187.671875 140.050781 191.65625 153.398438 192.152344 167.75 C 192.164062 168.492188 192.253906 169.234375 192.328125 170.167969 Z M 117.1875 208.511719 C 117.289062 209.09375 117.289062 209.390625 117.390625 209.644531 C 122.152344 221.523438 129.644531 231.402344 139.285156 239.734375 C 140.296875 240.613281 141.226562 240.742188 142.382812 240.164062 C 146.449219 238.121094 150.515625 236.082031 154.609375 234.09375 C 155.847656 233.492188 156.371094 232.542969 156.703125 231.265625 C 160.429688 217.019531 167.292969 204.484375 177.339844 193.703125 C 177.742188 193.273438 178.066406 192.769531 178.6875 191.949219 C 174.609375 193.347656 171.089844 194.742188 167.46875 195.769531 C 156.519531 198.886719 145.40625 199.480469 134.175781 197.554688 C 132.988281 197.351562 131.878906 197.078125 130.644531 197.886719 C 125.859375 201.023438 121.46875 204.628906 117.1875 208.511719 Z M 201.308594 176.074219 C 201.960938 175.984375 202.238281 176.003906 202.46875 175.90625 C 216.738281 169.757812 231.503906 167.957031 246.820312 170.648438 C 247.648438 170.789062 248.765625 170.558594 249.449219 170.078125 C 253.382812 167.285156 257.234375 164.371094 261.203125 161.421875 C 257.300781 147.84375 250.441406 136.519531 240.609375 126.925781 C 235.445312 128.554688 230.894531 130.875 226.40625 133.371094 C 224.652344 134.347656 223.648438 135.605469 223.105469 137.648438 C 219.804688 149.921875 214.171875 161.027344 205.882812 170.734375 C 204.433594 172.425781 202.988281 174.117188 201.308594 176.074219 Z M 187.699219 197.402344 C 187.148438 198.449219 186.804688 198.984375 186.5625 199.558594 C 180.796875 213.523438 171.84375 224.941406 159.347656 233.511719 C 158.285156 234.242188 157.851562 235.152344 157.683594 236.320312 C 157.148438 240.078125 156.546875 243.832031 156.089844 247.597656 C 155.761719 250.304688 155.839844 250.34375 158.328125 251.390625 C 169.71875 256.210938 181.585938 258.246094 193.941406 257.378906 C 194.675781 257.328125 195.398438 257.140625 196.363281 256.984375 C 197.574219 253.261719 198.714844 249.542969 199.996094 245.882812 C 200.734375 243.75 200.457031 241.980469 199.308594 239.992188 C 192.214844 227.679688 188.382812 214.398438 187.910156 200.167969 C 187.886719 199.4375 187.800781 198.703125 187.699219 197.402344 Z M 203.738281 186.289062 C 203.710938 186.414062 203.679688 186.546875 203.652344 186.671875 C 203.957031 186.816406 204.261719 186.957031 204.566406 187.101562 C 207.582031 188.5 210.679688 189.75 213.589844 191.335938 C 223.851562 196.921875 232.398438 204.492188 239.066406 214.109375 C 240.007812 215.457031 241.121094 216.230469 242.75 216.4375 C 245.957031 216.847656 249.144531 217.414062 252.347656 217.800781 C 254.996094 218.121094 255.019531 218.058594 256.226562 215.609375 C 261.644531 204.664062 264.214844 193.070312 264.058594 180.875 C 264.050781 180.035156 263.941406 179.191406 263.851562 177.976562 C 259.8125 176.648438 255.761719 175.34375 251.734375 173.96875 C 249.71875 173.277344 248.015625 173.558594 246.105469 174.65625 C 233.589844 181.855469 220.113281 185.773438 205.644531 186.164062 C 205.003906 186.171875 204.367188 186.242188 203.738281 186.289062 Z M 197.871094 195.664062 C 198.230469 196.59375 198.542969 197.460938 198.890625 198.316406 C 204.164062 211.289062 205.863281 224.726562 203.601562 238.558594 C 203.140625 241.355469 203.550781 243.519531 205.269531 245.648438 C 207.457031 248.359375 209.523438 251.171875 211.65625 253.957031 C 225.40625 249.441406 236.675781 241.917969 246.074219 230.984375 C 244.179688 227.304688 242.289062 223.695312 240.453125 220.066406 C 239.617188 218.421875 238.359375 217.601562 236.550781 217.128906 C 227.941406 214.894531 219.785156 211.492188 212.402344 206.53125 C 207.457031 203.207031 202.832031 199.394531 197.871094 195.664062 Z M 213.394531 255.679688 C 223.683594 266.660156 235.558594 274.421875 249.300781 279.472656 C 253.175781 267.820312 251.480469 241.179688 246.402344 233.964844 C 237.347656 243.917969 226.398438 251.042969 213.394531 255.679688 Z M 266.359375 179.421875 C 266.164062 183.074219 266.121094 186.398438 265.777344 189.6875 C 265.433594 192.898438 264.945312 196.113281 264.222656 199.253906 C 263.484375 202.492188 262.507812 205.6875 261.402344 208.816406 C 260.316406 211.894531 258.941406 214.859375 257.585938 218.152344 C 272.441406 218.484375 286.21875 215.695312 299.664062 209.40625 C 291.121094 196.339844 280.292969 186.351562 266.359375 179.421875 Z M 164.394531 293.472656 C 175.269531 288.152344 192.84375 268.207031 194.421875 259.5 C 181.097656 260.441406 168.351562 258.140625 155.847656 252.660156 C 155.582031 267.117188 158.417969 280.5 164.394531 293.472656 Z M 262.800781 159.210938 C 271.167969 152.371094 282.207031 135.785156 285.304688 124.671875 C 276.394531 121.066406 250.53125 122.125 243.28125 126.457031 C 252.207031 135.800781 258.855469 146.527344 262.800781 159.210938 Z M 115.445312 210.597656 C 107.820312 216.886719 95.652344 236.632812 94.917969 243.617188 C 106.832031 247.058594 131.808594 245.695312 137.703125 241.175781 C 127.9375 232.816406 120.539062 222.714844 115.445312 210.597656 Z M 224.25 112.378906 C 223.972656 98.828125 221.191406 86.476562 215.542969 74.398438 C 203.992188 81.832031 194.886719 91.183594 187.921875 103.230469 C 194.503906 103.433594 200.605469 104.164062 206.59375 105.675781 C 212.566406 107.175781 218.25 109.46875 224.25 112.378906 Z M 115.835938 150.375 C 107.898438 149.328125 86.363281 154.628906 80.734375 158.902344 C 86.246094 169.15625 102.15625 183.753906 109.273438 185.832031 C 109.765625 179.859375 110.054688 173.804688 110.796875 167.800781 C 111.546875 161.785156 113.53125 156.042969 115.835938 150.375 Z M 130.875 126.613281 C 135.855469 122.816406 140.378906 118.894531 145.367188 115.695312 C 150.363281 112.503906 155.824219 110.035156 161.054688 107.261719 C 156.902344 101.761719 138.832031 90.496094 130.4375 88.902344 C 127.796875 101.523438 127.828125 114.042969 130.875 126.613281 Z M 143.484375 153.128906 C 148.949219 164.816406 174.828125 181.828125 186.71875 181.609375 C 175.390625 167.300781 161 158.238281 143.484375 153.128906 Z M 201.265625 238.589844 C 204.96875 224.289062 198.785156 194.859375 190.824219 188.386719 C 187.753906 201.558594 193.203125 228.058594 201.265625 238.589844 Z M 221.0625 137.265625 C 208.222656 144.425781 191.273438 170.402344 192.546875 180.710938 C 206.722656 169.4375 215.863281 155.019531 221.0625 137.265625 Z M 187.679688 187.710938 C 173.265625 198.683594 164.164062 213.121094 159.457031 230.449219 C 174.324219 219.820312 183.699219 205.546875 187.679688 187.710938 Z M 244.480469 172.804688 C 226.480469 169.832031 209.777344 173.265625 194.371094 183.085938 C 212.253906 185.484375 228.898438 181.753906 244.480469 172.804688 Z M 178.851562 129.378906 C 174.9375 142.964844 180.445312 169.832031 189.070312 179.828125 C 192.714844 168.921875 187.355469 142.136719 178.851562 129.378906 Z M 135.046875 195.21875 C 148.976562 199.195312 179.84375 192.675781 185.78125 184.625 C 167.832031 182.628906 151.1875 186.320312 135.046875 195.21875 Z M 236.304688 214.621094 C 228.402344 201.421875 204.476562 185.828125 193.367188 186.53125 C 204.652344 200.71875 219 209.875 236.304688 214.621094 Z M 137.382812 149.210938 C 134.851562 143.519531 132.355469 137.925781 129.75 132.066406 C 125.589844 136.683594 122.355469 141.816406 119.570312 147.460938 C 125.628906 148.0625 131.449219 148.628906 137.382812 149.210938 Z M 177.523438 122.175781 C 179.609375 116.625 181.640625 111.195312 183.785156 105.488281 C 177.753906 105.808594 172.042969 106.691406 166.21875 108.425781 C 170.128906 113.1875 173.808594 117.65625 177.523438 122.175781 Z M 112.386719 190.800781 C 113.144531 196.09375 114.234375 201.144531 116.15625 206.292969 C 120.386719 202.910156 124.265625 199.8125 128.246094 196.632812 C 122.929688 194.6875 117.816406 192.804688 112.386719 190.800781 Z M 238.5 125.035156 C 234.714844 121.613281 230.945312 118.730469 226.578125 116.332031 C 225.980469 121.5625 225.425781 126.484375 224.839844 131.558594 C 229.421875 129.367188 233.746094 127.304688 238.5 125.035156 Z M 153.6875 249.398438 C 154.003906 246.632812 154.292969 244.570312 154.453125 242.507812 C 154.609375 240.546875 155.449219 238.609375 155.003906 236.578125 C 150.929688 238.574219 147.0625 240.46875 142.699219 242.605469 C 146.472656 244.9375 149.886719 247.042969 153.6875 249.398438 Z M 261.949219 163.496094 C 258.292969 166.328125 255.085938 168.824219 251.605469 171.523438 C 255.796875 172.933594 259.628906 174.21875 263.933594 175.671875 C 263.265625 171.585938 262.648438 167.808594 261.949219 163.496094 Z M 202.460938 245.550781 C 201.171875 249.453125 200.015625 252.972656 198.734375 256.863281 C 202.515625 256.339844 205.84375 255.738281 209.351562 254.550781 C 206.949219 251.414062 204.8125 248.628906 202.460938 245.550781 Z M 247.550781 229.070312 C 250.011719 226.238281 251.941406 223.453125 253.625 220.175781 C 251.484375 219.90625 249.714844 219.691406 247.949219 219.460938 C 246.148438 219.21875 244.347656 218.953125 242.28125 218.652344 C 244.125 222.289062 245.734375 225.472656 247.550781 229.070312 Z M 247.550781 229.070312 " clip-rule="nonzero"/></clipPath><linearGradient x1="-94.542109" gradientTransform="matrix(0.477126, -0.477126, 0.47652, 0.47652, -48.385229, 184.200656)" y1="649.504002" x2="589.429773" gradientUnits="userSpaceOnUse" y2="-143.611743" xlink:type="simple" xlink:actuate="onLoad" id="id11" xlink:show="other"><stop stop-opacity="1" stop-color="rgb(100%, 100%, 100%)" offset="0"/><stop stop-opacity="1" stop-color="rgb(100%, 100%, 100%)" offset="0.25"/><stop stop-opacity="1" stop-color="rgb(100%, 100%, 100%)" offset="0.375"/><stop stop-opacity="1" stop-color="rgb(100%, 100%, 100%)" offset="0.40625"/><stop stop-opacity="1" stop-color="rgb(99.598694%, 99.598694%, 99.598694%)" offset="0.410156"/><stop stop-opacity="1" stop-color="rgb(99.198914%, 99.198914%, 99.198914%)" offset="0.414062"/><stop stop-opacity="1" stop-color="rgb(97.920227%, 97.920227%, 97.920227%)" offset="0.417969"/><stop stop-opacity="1" stop-color="rgb(96.641541%, 96.641541%, 96.641541%)" offset="0.421875"/><stop stop-opacity="1" stop-color="rgb(95.362854%, 95.362854%, 95.362854%)" offset="0.425781"/><stop stop-opacity="1" stop-color="rgb(94.084167%, 94.084167%, 94.084167%)" offset="0.429688"/><stop stop-opacity="1" stop-color="rgb(92.805481%, 92.805481%, 92.805481%)" offset="0.433594"/><stop stop-opacity="1" stop-color="rgb(91.52832%, 91.52832%, 91.52832%)" offset="0.4375"/><stop stop-opacity="1" stop-color="rgb(90.249634%, 90.249634%, 90.249634%)" offset="0.441406"/><stop stop-opacity="1" stop-color="rgb(88.970947%, 88.970947%, 88.970947%)" offset="0.445312"/><stop stop-opacity="1" stop-color="rgb(87.692261%, 87.692261%, 87.692261%)" offset="0.449219"/><stop stop-opacity="1" stop-color="rgb(86.413574%, 86.413574%, 86.413574%)" offset="0.453125"/><stop stop-opacity="1" stop-color="rgb(85.134888%, 85.134888%, 85.134888%)" offset="0.457031"/><stop stop-opacity="1" stop-color="rgb(83.857727%, 83.857727%, 83.857727%)" offset="0.460938"/><stop stop-opacity="1" stop-color="rgb(82.579041%, 82.579041%, 82.579041%)" offset="0.464844"/><stop stop-opacity="1" stop-color="rgb(81.300354%, 81.300354%, 81.300354%)" offset="0.46875"/><stop stop-opacity="1" stop-color="rgb(80.021667%, 80.021667%, 80.021667%)" offset="0.472656"/><stop stop-opacity="1" stop-color="rgb(78.742981%, 78.742981%, 78.742981%)" offset="0.476562"/><stop stop-opacity="1" stop-color="rgb(77.464294%, 77.464294%, 77.464294%)" offset="0.480469"/><stop stop-opacity="1" stop-color="rgb(76.187134%, 76.187134%, 76.187134%)" offset="0.484375"/><stop stop-opacity="1" stop-color="rgb(74.908447%, 74.908447%, 74.908447%)" offset="0.488281"/><stop stop-opacity="1" stop-color="rgb(73.629761%, 73.629761%, 73.629761%)" offset="0.492188"/><stop stop-opacity="1" stop-color="rgb(72.351074%, 72.351074%, 72.351074%)" offset="0.496094"/><stop stop-opacity="1" stop-color="rgb(71.072388%, 71.072388%, 71.072388%)" offset="0.5"/><stop stop-opacity="1" stop-color="rgb(69.793701%, 69.793701%, 69.793701%)" offset="0.503906"/><stop stop-opacity="1" stop-color="rgb(68.516541%, 68.516541%, 68.516541%)" offset="0.507812"/><stop stop-opacity="1" stop-color="rgb(67.237854%, 67.237854%, 67.237854%)" offset="0.511719"/><stop stop-opacity="1" stop-color="rgb(65.959167%, 65.959167%, 65.959167%)" offset="0.515625"/><stop stop-opacity="1" stop-color="rgb(64.680481%, 64.680481%, 64.680481%)" offset="0.519531"/><stop stop-opacity="1" stop-color="rgb(63.401794%, 63.401794%, 63.401794%)" offset="0.523438"/><stop stop-opacity="1" stop-color="rgb(62.123108%, 62.123108%, 62.123108%)" offset="0.527344"/><stop stop-opacity="1" stop-color="rgb(60.845947%, 60.845947%, 60.845947%)" offset="0.53125"/><stop stop-opacity="1" stop-color="rgb(59.567261%, 59.567261%, 59.567261%)" offset="0.535156"/><stop stop-opacity="1" stop-color="rgb(58.288574%, 58.288574%, 58.288574%)" offset="0.539062"/><stop stop-opacity="1" stop-color="rgb(57.009888%, 57.009888%, 57.009888%)" offset="0.542969"/><stop stop-opacity="1" stop-color="rgb(55.731201%, 55.731201%, 55.731201%)" offset="0.546875"/><stop stop-opacity="1" stop-color="rgb(54.452515%, 54.452515%, 54.452515%)" offset="0.550781"/><stop stop-opacity="1" stop-color="rgb(53.173828%, 53.173828%, 53.173828%)" offset="0.554688"/><stop stop-opacity="1" stop-color="rgb(51.895142%, 51.895142%, 51.895142%)" offset="0.558594"/><stop stop-opacity="1" stop-color="rgb(50.617981%, 50.617981%, 50.617981%)" offset="0.5625"/><stop stop-opacity="1" stop-color="rgb(49.339294%, 49.339294%, 49.339294%)" offset="0.566406"/><stop stop-opacity="1" stop-color="rgb(48.060608%, 48.060608%, 48.060608%)" offset="0.570312"/><stop stop-opacity="1" stop-color="rgb(46.781921%, 46.781921%, 46.781921%)" offset="0.574219"/><stop stop-opacity="1" stop-color="rgb(45.503235%, 45.503235%, 45.503235%)" offset="0.578125"/><stop stop-opacity="1" stop-color="rgb(44.224548%, 44.224548%, 44.224548%)" offset="0.582031"/><stop stop-opacity="1" stop-color="rgb(42.947388%, 42.947388%, 42.947388%)" offset="0.585938"/><stop stop-opacity="1" stop-color="rgb(41.668701%, 41.668701%, 41.668701%)" offset="0.589844"/><stop stop-opacity="1" stop-color="rgb(40.390015%, 40.390015%, 40.390015%)" offset="0.59375"/><stop stop-opacity="1" stop-color="rgb(39.111328%, 39.111328%, 39.111328%)" offset="0.597656"/><stop stop-opacity="1" stop-color="rgb(37.832642%, 37.832642%, 37.832642%)" offset="0.601562"/><stop stop-opacity="1" stop-color="rgb(36.553955%, 36.553955%, 36.553955%)" offset="0.605469"/><stop stop-opacity="1" stop-color="rgb(35.276794%, 35.276794%, 35.276794%)" offset="0.609375"/><stop stop-opacity="1" stop-color="rgb(33.998108%, 33.998108%, 33.998108%)" offset="0.613281"/><stop stop-opacity="1" stop-color="rgb(32.719421%, 32.719421%, 32.719421%)" offset="0.617188"/><stop stop-opacity="1" stop-color="rgb(31.440735%, 31.440735%, 31.440735%)" offset="0.621094"/><stop stop-opacity="1" stop-color="rgb(30.162048%, 30.162048%, 30.162048%)" offset="0.625"/><stop stop-opacity="1" stop-color="rgb(28.883362%, 28.883362%, 28.883362%)" offset="0.628906"/><stop stop-opacity="1" stop-color="rgb(27.606201%, 27.606201%, 27.606201%)" offset="0.632812"/><stop stop-opacity="1" stop-color="rgb(26.327515%, 26.327515%, 26.327515%)" offset="0.636719"/><stop stop-opacity="1" stop-color="rgb(25.048828%, 25.048828%, 25.048828%)" offset="0.640625"/><stop stop-opacity="1" stop-color="rgb(23.770142%, 23.770142%, 23.770142%)" offset="0.644531"/><stop stop-opacity="1" stop-color="rgb(22.491455%, 22.491455%, 22.491455%)" offset="0.648438"/><stop stop-opacity="1" stop-color="rgb(21.212769%, 21.212769%, 21.212769%)" offset="0.652344"/><stop stop-opacity="1" stop-color="rgb(19.935608%, 19.935608%, 19.935608%)" offset="0.65625"/><stop stop-opacity="1" stop-color="rgb(18.656921%, 18.656921%, 18.656921%)" offset="0.660156"/><stop stop-opacity="1" stop-color="rgb(17.378235%, 17.378235%, 17.378235%)" offset="0.664062"/><stop stop-opacity="1" stop-color="rgb(16.099548%, 16.099548%, 16.099548%)" offset="0.667969"/><stop stop-opacity="1" stop-color="rgb(14.820862%, 14.820862%, 14.820862%)" offset="0.671875"/><stop stop-opacity="1" stop-color="rgb(13.542175%, 13.542175%, 13.542175%)" offset="0.675781"/><stop stop-opacity="1" stop-color="rgb(12.263489%, 12.263489%, 12.263489%)" offset="0.679688"/><stop stop-opacity="1" stop-color="rgb(10.984802%, 10.984802%, 10.984802%)" offset="0.683594"/><stop stop-opacity="1" stop-color="rgb(9.707642%, 9.707642%, 9.707642%)" offset="0.6875"/><stop stop-opacity="1" stop-color="rgb(8.428955%, 8.428955%, 8.428955%)" offset="0.691406"/><stop stop-opacity="1" stop-color="rgb(7.150269%, 7.150269%, 7.150269%)" offset="0.695313"/><stop stop-opacity="1" stop-color="rgb(5.871582%, 5.871582%, 5.871582%)" offset="0.699219"/><stop stop-opacity="1" stop-color="rgb(4.592896%, 4.592896%, 4.592896%)" offset="0.703125"/><stop stop-opacity="1" stop-color="rgb(3.314209%, 3.314209%, 3.314209%)" offset="0.707031"/><stop stop-opacity="1" stop-color="rgb(2.037048%, 2.037048%, 2.037048%)" offset="0.710938"/><stop stop-opacity="1" stop-color="rgb(1.017761%, 1.017761%, 1.017761%)" offset="0.714844"/><stop stop-opacity="1" stop-color="rgb(0%, 0%, 0%)" offset="0.71875"/><stop stop-opacity="1" stop-color="rgb(0%, 0%, 0%)" offset="0.75"/><stop stop-opacity="1" stop-color="rgb(0%, 0%, 0%)" offset="1"/></linearGradient></defs><g clip-path="url(#id2)"><g clip-path="url(#id3)"><g clip-path="url(#id4)"><g clip-path="url(#id5)"><path fill="url(#id6)" d="M -165.375 186.785156 L 188.6875 540.847656 L 542.746094 186.785156 L 188.6875 -167.273438 Z M -165.375 186.785156 " fill-rule="nonzero"/></g></g></g></g><g fill="rgb(100%, 100%, 100%)" fill-opacity="1"><g transform="translate(1.869453, 347.574851)"><g><path d="M 2.308594 -9.46875 C 2.308594 -8.699219 2.617188 -8.007812 3.15625 -7.46875 L 9.546875 -0.925781 C 10.164062 -0.308594 10.855469 0 11.855469 0 L 36.648438 0 C 37.652344 0 38.34375 -0.308594 38.960938 -0.925781 L 45.351562 -7.46875 C 45.890625 -8.007812 46.195312 -8.699219 46.195312 -9.46875 L 46.195312 -28.640625 C 46.195312 -29.410156 45.890625 -30.105469 45.351562 -30.644531 L 38.574219 -37.574219 C 37.957031 -38.191406 37.265625 -38.496094 36.265625 -38.496094 L 12.242188 -38.496094 C 11.242188 -38.496094 10.546875 -38.191406 9.933594 -37.574219 L 3.15625 -30.644531 C 2.617188 -30.105469 2.308594 -29.410156 2.308594 -28.640625 Z M 9.777344 -11.472656 L 9.777344 -26.640625 C 9.777344 -27.179688 9.933594 -27.5625 10.316406 -27.949219 L 12.78125 -30.257812 L 13.242188 -30.644531 C 13.398438 -30.796875 13.628906 -30.875 14.011719 -30.875 L 34.492188 -30.875 C 34.800781 -30.875 35.03125 -30.796875 35.265625 -30.644531 L 35.726562 -30.257812 L 38.191406 -27.949219 C 38.574219 -27.5625 38.726562 -27.179688 38.726562 -26.640625 L 38.726562 -11.472656 C 38.726562 -10.933594 38.574219 -10.546875 38.191406 -10.164062 L 36.109375 -8.238281 L 35.648438 -7.851562 C 35.417969 -7.699219 35.1875 -7.621094 34.878906 -7.621094 L 13.628906 -7.621094 C 13.242188 -7.621094 13.011719 -7.699219 12.859375 -7.851562 L 12.394531 -8.238281 L 10.316406 -10.164062 C 9.933594 -10.546875 9.777344 -10.933594 9.777344 -11.472656 Z M 14.167969 3.542969 L 14.167969 8.855469 C 14.167969 9.46875 14.707031 10.007812 15.320312 10.007812 L 33.339844 10.007812 C 33.953125 10.007812 34.492188 9.46875 34.492188 8.855469 L 34.492188 3.542969 C 34.492188 2.925781 33.953125 2.386719 33.339844 2.386719 L 15.320312 2.386719 C 14.707031 2.386719 14.167969 2.925781 14.167969 3.542969 Z M 14.167969 3.542969 "/></g></g></g><g fill="rgb(100%, 100%, 100%)" fill-opacity="1"><g transform="translate(50.374581, 347.574851)"><g><path d="M 2.308594 -37.34375 L 2.308594 -9.316406 C 2.308594 -8.546875 2.617188 -7.851562 3.15625 -7.316406 L 9.933594 -0.925781 C 10.625 -0.386719 11.242188 0 12.242188 0 L 34.339844 0 C 35.339844 0 36.035156 -0.386719 36.648438 -0.925781 L 43.425781 -7.316406 C 44.042969 -7.851562 44.273438 -8.546875 44.273438 -9.316406 L 44.273438 -37.34375 C 44.273438 -37.957031 43.734375 -38.496094 43.117188 -38.496094 L 37.957031 -38.496094 C 37.34375 -38.496094 36.804688 -37.957031 36.804688 -37.34375 L 36.804688 -11.855469 C 36.804688 -11.316406 36.726562 -10.933594 36.265625 -10.546875 L 33.339844 -7.851562 C 33.109375 -7.699219 32.875 -7.621094 32.570312 -7.621094 L 14.011719 -7.621094 C 13.628906 -7.621094 13.398438 -7.699219 13.242188 -7.851562 L 10.316406 -10.546875 C 9.933594 -10.933594 9.777344 -11.316406 9.777344 -11.855469 L 9.777344 -37.34375 C 9.777344 -37.957031 9.238281 -38.496094 8.625 -38.496094 L 3.464844 -38.496094 C 2.847656 -38.496094 2.308594 -37.957031 2.308594 -37.34375 Z M 2.308594 -37.34375 "/></g></g></g><g fill="rgb(100%, 100%, 100%)" fill-opacity="1"><g transform="translate(96.954904, 347.574851)"><g><path d="M 43.425781 -30.644531 L 36.648438 -37.574219 C 36.035156 -38.191406 35.339844 -38.496094 34.339844 -38.496094 L 12.242188 -38.496094 C 11.242188 -38.496094 10.546875 -38.191406 9.933594 -37.574219 L 3.15625 -30.644531 C 2.617188 -30.105469 2.308594 -29.410156 2.308594 -28.640625 L 2.308594 -1.15625 C 2.308594 -0.539062 2.847656 0 3.464844 0 L 8.625 0 C 9.238281 0 9.777344 -0.539062 9.777344 -1.15625 L 9.777344 -12.628906 L 36.804688 -12.628906 L 36.804688 -1.15625 C 36.804688 -0.539062 37.34375 0 37.957031 0 L 43.117188 0 C 43.734375 0 44.273438 -0.539062 44.273438 -1.15625 L 44.273438 -28.640625 C 44.273438 -29.410156 43.964844 -30.105469 43.425781 -30.644531 Z M 9.777344 -19.324219 L 9.777344 -26.640625 C 9.777344 -27.179688 9.933594 -27.5625 10.316406 -27.949219 L 12.78125 -30.257812 L 13.242188 -30.644531 C 13.398438 -30.796875 13.628906 -30.875 14.011719 -30.875 L 32.570312 -30.875 C 32.875 -30.875 33.109375 -30.796875 33.339844 -30.644531 L 33.800781 -30.257812 L 36.265625 -27.949219 C 36.648438 -27.5625 36.804688 -27.179688 36.804688 -26.640625 L 36.804688 -19.324219 Z M 9.777344 -19.324219 "/></g></g></g><g fill="rgb(100%, 100%, 100%)" fill-opacity="1"><g transform="translate(143.535226, 347.574851)"><g><path d="M 2.308594 -1.15625 C 2.308594 -0.539062 2.847656 0 3.464844 0 L 8.625 0 C 9.238281 0 9.777344 -0.539062 9.777344 -1.15625 L 9.777344 -30.875 L 30.488281 -30.875 C 30.796875 -30.875 31.027344 -30.796875 31.261719 -30.644531 L 36.265625 -25.871094 C 36.648438 -25.484375 36.804688 -25.101562 36.804688 -24.5625 L 36.804688 -1.15625 C 36.804688 -0.539062 37.34375 0 37.957031 0 L 43.117188 0 C 43.734375 0 44.273438 -0.539062 44.273438 -1.15625 L 44.273438 -26.71875 C 44.273438 -27.488281 43.964844 -28.179688 43.425781 -28.71875 L 34.726562 -37.574219 C 34.109375 -38.191406 33.414062 -38.496094 32.414062 -38.496094 L 4.695312 -38.496094 C 3.386719 -38.496094 2.308594 -37.496094 2.308594 -36.1875 Z M 2.308594 -1.15625 "/></g></g></g><g fill="rgb(100%, 100%, 100%)" fill-opacity="1"><g transform="translate(190.115549, 347.574851)"><g><path d="M 51.203125 -38.496094 L 3.464844 -38.496094 C 2.847656 -38.496094 2.308594 -37.957031 2.308594 -37.34375 L 2.308594 -31.566406 C 2.308594 -30.953125 2.847656 -30.414062 3.464844 -30.414062 L 23.328125 -30.414062 L 23.328125 -1.15625 C 23.328125 -0.539062 23.867188 0 24.484375 0 L 30.257812 0 C 30.875 0 31.414062 -0.539062 31.414062 -1.15625 L 31.414062 -30.414062 L 51.203125 -30.414062 C 51.816406 -30.414062 52.355469 -30.953125 52.355469 -31.566406 L 52.355469 -37.34375 C 52.355469 -37.957031 51.816406 -38.496094 51.203125 -38.496094 Z M 51.203125 -38.496094 "/></g></g></g><g fill="rgb(100%, 100%, 100%)" fill-opacity="1"><g transform="translate(244.780058, 347.574851)"><g><path d="M 2.308594 -37.34375 L 2.308594 -9.316406 C 2.308594 -8.546875 2.617188 -7.851562 3.15625 -7.316406 L 9.933594 -0.925781 C 10.625 -0.386719 11.242188 0 12.242188 0 L 34.339844 0 C 35.339844 0 36.035156 -0.386719 36.648438 -0.925781 L 43.425781 -7.316406 C 44.042969 -7.851562 44.273438 -8.546875 44.273438 -9.316406 L 44.273438 -37.34375 C 44.273438 -37.957031 43.734375 -38.496094 43.117188 -38.496094 L 37.957031 -38.496094 C 37.34375 -38.496094 36.804688 -37.957031 36.804688 -37.34375 L 36.804688 -11.855469 C 36.804688 -11.316406 36.726562 -10.933594 36.265625 -10.546875 L 33.339844 -7.851562 C 33.109375 -7.699219 32.875 -7.621094 32.570312 -7.621094 L 14.011719 -7.621094 C 13.628906 -7.621094 13.398438 -7.699219 13.242188 -7.851562 L 10.316406 -10.546875 C 9.933594 -10.933594 9.777344 -11.316406 9.777344 -11.855469 L 9.777344 -37.34375 C 9.777344 -37.957031 9.238281 -38.496094 8.625 -38.496094 L 3.464844 -38.496094 C 2.847656 -38.496094 2.308594 -37.957031 2.308594 -37.34375 Z M 2.308594 -37.34375 "/></g></g></g><g fill="rgb(100%, 100%, 100%)" fill-opacity="1"><g transform="translate(291.36037, 347.574851)"><g><path d="M 78.613281 -29.875 L 71.066406 -37.574219 C 70.449219 -38.191406 69.757812 -38.496094 68.757812 -38.496094 L 48.816406 -38.496094 C 47.8125 -38.496094 47.042969 -38.191406 46.503906 -37.574219 L 41.886719 -32.800781 L 37.1875 -37.574219 C 36.648438 -38.191406 35.878906 -38.496094 34.878906 -38.496094 L 13.011719 -38.496094 C 12.011719 -38.496094 11.316406 -38.191406 10.703125 -37.574219 L 3.15625 -29.875 C 2.695312 -29.335938 2.308594 -28.640625 2.308594 -27.871094 L 2.308594 -1.15625 C 2.308594 -0.539062 2.847656 0 3.464844 0 L 8.625 0 C 9.238281 0 9.777344 -0.539062 9.777344 -1.15625 L 9.777344 -25.484375 C 9.777344 -26.023438 9.933594 -26.410156 10.316406 -26.792969 L 14.242188 -30.644531 C 14.476562 -30.796875 14.707031 -30.875 15.015625 -30.875 L 33.109375 -30.875 C 33.414062 -30.875 33.648438 -30.796875 33.878906 -30.644531 L 37.574219 -27.179688 C 37.957031 -26.871094 38.113281 -26.410156 38.113281 -25.871094 L 38.113281 -1.15625 C 38.113281 -0.539062 38.652344 0 39.265625 0 L 44.425781 0 C 45.042969 0 45.582031 -0.539062 45.582031 -1.15625 L 45.582031 -25.871094 C 45.582031 -26.410156 45.734375 -26.871094 46.121094 -27.179688 L 49.816406 -30.644531 C 50.046875 -30.796875 50.277344 -30.875 50.585938 -30.875 L 66.832031 -30.875 C 67.140625 -30.875 67.371094 -30.796875 67.601562 -30.644531 L 71.453125 -26.871094 C 71.835938 -26.5625 71.992188 -26.101562 71.992188 -25.5625 L 71.992188 -1.15625 C 71.992188 -0.539062 72.527344 0 73.144531 0 L 78.304688 0 C 78.917969 0 79.457031 -0.539062 79.457031 -1.15625 L 79.457031 -27.871094 C 79.457031 -28.640625 79.074219 -29.335938 78.613281 -29.875 Z M 78.613281 -29.875 "/></g></g></g><g fill="rgb(100%, 100%, 100%)" fill-opacity="1"><g transform="translate(111.527799, 370.249984)"><g><path d="M 6.359375 0 L 4.703125 0 L 4.703125 -12.796875 L 0.171875 -12.796875 L 0.171875 -14.28125 L 10.875 -14.28125 L 10.875 -12.796875 L 6.359375 -12.796875 Z M 6.359375 0 "/></g></g></g><g fill="rgb(100%, 100%, 100%)" fill-opacity="1"><g transform="translate(122.58793, 370.249984)"><g><path d="M 9.921875 0 L 1.96875 0 L 1.96875 -14.28125 L 9.921875 -14.28125 L 9.921875 -12.796875 L 3.625 -12.796875 L 3.625 -8.203125 L 9.546875 -8.203125 L 9.546875 -6.734375 L 3.625 -6.734375 L 3.625 -1.484375 L 9.921875 -1.484375 Z M 9.921875 0 "/></g></g></g><g fill="rgb(100%, 100%, 100%)" fill-opacity="1"><g transform="translate(133.706631, 370.249984)"><g><path d="M 8.078125 -13 C 6.503906 -13 5.265625 -12.472656 4.359375 -11.421875 C 3.453125 -10.378906 3 -8.953125 3 -7.140625 C 3 -5.273438 3.4375 -3.832031 4.3125 -2.8125 C 5.1875 -1.789062 6.4375 -1.28125 8.0625 -1.28125 C 9.050781 -1.28125 10.1875 -1.457031 11.46875 -1.8125 L 11.46875 -0.359375 C 10.476562 0.015625 9.253906 0.203125 7.796875 0.203125 C 5.703125 0.203125 4.082031 -0.4375 2.9375 -1.71875 C 1.789062 -3 1.21875 -4.8125 1.21875 -7.15625 C 1.21875 -8.625 1.492188 -9.910156 2.046875 -11.015625 C 2.597656 -12.128906 3.390625 -12.984375 4.421875 -13.578125 C 5.460938 -14.179688 6.6875 -14.484375 8.09375 -14.484375 C 9.59375 -14.484375 10.898438 -14.207031 12.015625 -13.65625 L 11.3125 -12.234375 C 10.238281 -12.742188 9.160156 -13 8.078125 -13 Z M 8.078125 -13 "/></g></g></g><g fill="rgb(100%, 100%, 100%)" fill-opacity="1"><g transform="translate(146.318889, 370.249984)"><g><path d="M 12.796875 0 L 11.140625 0 L 11.140625 -6.71875 L 3.625 -6.71875 L 3.625 0 L 1.96875 0 L 1.96875 -14.28125 L 3.625 -14.28125 L 3.625 -8.203125 L 11.140625 -8.203125 L 11.140625 -14.28125 L 12.796875 -14.28125 Z M 12.796875 0 "/></g></g></g><g fill="rgb(100%, 100%, 100%)" fill-opacity="1"><g transform="translate(161.068983, 370.249984)"><g/></g></g><g fill="rgb(100%, 100%, 100%)" fill-opacity="1"><g transform="translate(166.262266, 370.249984)"><g><path d="M 8.078125 -13 C 6.503906 -13 5.265625 -12.472656 4.359375 -11.421875 C 3.453125 -10.378906 3 -8.953125 3 -7.140625 C 3 -5.273438 3.4375 -3.832031 4.3125 -2.8125 C 5.1875 -1.789062 6.4375 -1.28125 8.0625 -1.28125 C 9.050781 -1.28125 10.1875 -1.457031 11.46875 -1.8125 L 11.46875 -0.359375 C 10.476562 0.015625 9.253906 0.203125 7.796875 0.203125 C 5.703125 0.203125 4.082031 -0.4375 2.9375 -1.71875 C 1.789062 -3 1.21875 -4.8125 1.21875 -7.15625 C 1.21875 -8.625 1.492188 -9.910156 2.046875 -11.015625 C 2.597656 -12.128906 3.390625 -12.984375 4.421875 -13.578125 C 5.460938 -14.179688 6.6875 -14.484375 8.09375 -14.484375 C 9.59375 -14.484375 10.898438 -14.207031 12.015625 -13.65625 L 11.3125 -12.234375 C 10.238281 -12.742188 9.160156 -13 8.078125 -13 Z M 8.078125 -13 "/></g></g></g><g fill="rgb(100%, 100%, 100%)" fill-opacity="1"><g transform="translate(178.874524, 370.249984)"><g><path d="M 14.359375 -7.15625 C 14.359375 -4.875 13.78125 -3.078125 12.625 -1.765625 C 11.46875 -0.453125 9.859375 0.203125 7.796875 0.203125 C 5.703125 0.203125 4.082031 -0.4375 2.9375 -1.71875 C 1.789062 -3.007812 1.21875 -4.828125 1.21875 -7.171875 C 1.21875 -9.503906 1.789062 -11.304688 2.9375 -12.578125 C 4.082031 -13.859375 5.710938 -14.5 7.828125 -14.5 C 9.878906 -14.5 11.476562 -13.847656 12.625 -12.546875 C 13.78125 -11.242188 14.359375 -9.445312 14.359375 -7.15625 Z M 2.984375 -7.15625 C 2.984375 -5.226562 3.394531 -3.765625 4.21875 -2.765625 C 5.039062 -1.765625 6.234375 -1.265625 7.796875 -1.265625 C 9.378906 -1.265625 10.570312 -1.757812 11.375 -2.75 C 12.1875 -3.75 12.59375 -5.21875 12.59375 -7.15625 C 12.59375 -9.082031 12.191406 -10.539062 11.390625 -11.53125 C 10.585938 -12.519531 9.398438 -13.015625 7.828125 -13.015625 C 6.242188 -13.015625 5.039062 -12.515625 4.21875 -11.515625 C 3.394531 -10.515625 2.984375 -9.0625 2.984375 -7.15625 Z M 2.984375 -7.15625 "/></g></g></g><g fill="rgb(100%, 100%, 100%)" fill-opacity="1"><g transform="translate(194.444611, 370.249984)"><g><path d="M 8.28125 0 L 3.4375 -12.65625 L 3.359375 -12.65625 C 3.453125 -11.65625 3.5 -10.460938 3.5 -9.078125 L 3.5 0 L 1.96875 0 L 1.96875 -14.28125 L 4.46875 -14.28125 L 8.984375 -2.5 L 9.0625 -2.5 L 13.625 -14.28125 L 16.109375 -14.28125 L 16.109375 0 L 14.4375 0 L 14.4375 -9.203125 C 14.4375 -10.253906 14.484375 -11.398438 14.578125 -12.640625 L 14.5 -12.640625 L 9.625 0 Z M 8.28125 0 "/></g></g></g><g fill="rgb(100%, 100%, 100%)" fill-opacity="1"><g transform="translate(212.494196, 370.249984)"><g><path d="M 11.015625 -10.125 C 11.015625 -8.675781 10.519531 -7.5625 9.53125 -6.78125 C 8.550781 -6 7.140625 -5.609375 5.296875 -5.609375 L 3.625 -5.609375 L 3.625 0 L 1.96875 0 L 1.96875 -14.28125 L 5.671875 -14.28125 C 9.234375 -14.28125 11.015625 -12.894531 11.015625 -10.125 Z M 3.625 -7.046875 L 5.125 -7.046875 C 6.59375 -7.046875 7.65625 -7.28125 8.3125 -7.75 C 8.96875 -8.226562 9.296875 -8.992188 9.296875 -10.046875 C 9.296875 -10.984375 8.984375 -11.679688 8.359375 -12.140625 C 7.742188 -12.609375 6.785156 -12.84375 5.484375 -12.84375 L 3.625 -12.84375 Z M 3.625 -7.046875 "/></g></g></g><g fill="rgb(100%, 100%, 100%)" fill-opacity="1"><g transform="translate(224.530508, 370.249984)"><g><path d="M 10.9375 0 L 9.15625 -4.546875 L 3.4375 -4.546875 L 1.6875 0 L 0 0 L 5.640625 -14.34375 L 7.046875 -14.34375 L 12.65625 0 Z M 8.640625 -6.03125 L 6.984375 -10.453125 C 6.765625 -11.015625 6.539062 -11.703125 6.3125 -12.515625 C 6.175781 -11.890625 5.972656 -11.203125 5.703125 -10.453125 L 4.03125 -6.03125 Z M 8.640625 -6.03125 "/></g></g></g><g fill="rgb(100%, 100%, 100%)" fill-opacity="1"><g transform="translate(237.181813, 370.249984)"><g><path d="M 13.109375 0 L 11.21875 0 L 3.421875 -11.984375 L 3.34375 -11.984375 C 3.445312 -10.578125 3.5 -9.285156 3.5 -8.109375 L 3.5 0 L 1.96875 0 L 1.96875 -14.28125 L 3.84375 -14.28125 L 11.625 -2.34375 L 11.703125 -2.34375 C 11.691406 -2.519531 11.660156 -3.082031 11.609375 -4.03125 C 11.566406 -4.988281 11.550781 -5.671875 11.5625 -6.078125 L 11.5625 -14.28125 L 13.109375 -14.28125 Z M 13.109375 0 "/></g></g></g><g fill="rgb(100%, 100%, 100%)" fill-opacity="1"><g transform="translate(252.254047, 370.249984)"><g><path d="M 5.59375 -7.140625 L 9.40625 -14.28125 L 11.203125 -14.28125 L 6.4375 -5.53125 L 6.4375 0 L 4.75 0 L 4.75 -5.453125 L 0 -14.28125 L 1.8125 -14.28125 Z M 5.59375 -7.140625 "/></g></g></g><g clip-path="url(#id7)"><g clip-path="url(#id8)"><g clip-path="url(#id9)"><g clip-path="url(#id10)"><path fill="url(#id11)" d="M -165.375 186.785156 L 188.6875 540.847656 L 542.746094 186.785156 L 188.6875 -167.273438 Z M -165.375 186.785156 " fill-rule="nonzero"/></g></g></g></g></svg>