<svg xmlns="http://www.w3.org/2000/svg" xmlns:xlink="http://www.w3.org/1999/xlink" width="500" zoomAndPan="magnify" viewBox="0 0 375 374.999991" height="500" preserveAspectRatio="xMidYMid meet" version="1.0"><defs><g><g id="id1"/></g><clipPath id="id2"><path d="M 134 114 L 243 114 L 243 224 L 134 224 Z M 134 114 " clip-rule="nonzero"/></clipPath><clipPath id="id3"><path d="M 107.636719 169.183594 L 186.65625 90.164062 L 267.265625 170.773438 L 188.246094 249.792969 Z M 107.636719 169.183594 " clip-rule="nonzero"/></clipPath><clipPath id="id4"><path d="M 107.636719 169.183594 L 186.65625 90.164062 L 267.265625 170.773438 L 188.246094 249.792969 Z M 107.636719 169.183594 " clip-rule="nonzero"/></clipPath><clipPath id="id5"><path d="M 162.550781 215.867188 C 160.640625 214.023438 159.113281 211.851562 157.945312 209.441406 C 157.691406 208.914062 157.351562 208.679688 156.804688 208.539062 C 151.027344 207.046875 146.105469 204.101562 142.390625 199.425781 C 136.890625 192.503906 135.464844 184.726562 138.074219 176.269531 C 138.285156 175.585938 138.207031 175.09375 137.871094 174.488281 C 133.765625 167.21875 132.761719 159.613281 135.691406 151.710938 C 137.878906 145.816406 141.914062 141.484375 147.511719 138.632812 C 148.148438 138.308594 148.445312 137.902344 148.625 137.230469 C 150.050781 131.789062 152.78125 127.089844 157.101562 123.480469 C 164.128906 117.601562 172.109375 116.03125 180.898438 118.757812 C 181.515625 118.949219 181.957031 118.890625 182.511719 118.574219 C 189.507812 114.609375 196.871094 113.507812 204.589844 116.113281 C 210.816406 118.21875 215.410156 122.3125 218.421875 128.15625 C 218.777344 128.851562 219.222656 129.179688 219.964844 129.378906 C 225.238281 130.792969 229.835938 133.421875 233.398438 137.578125 C 239.445312 144.628906 241.136719 152.667969 238.425781 161.574219 C 238.230469 162.207031 238.238281 162.675781 238.582031 163.277344 C 242.144531 169.472656 243.425781 176.074219 241.742188 183.074219 C 239.984375 190.390625 235.640625 195.75 228.980469 199.207031 C 228.339844 199.539062 228.046875 199.945312 227.875 200.613281 C 226.425781 206.117188 223.644531 210.851562 219.253906 214.480469 C 212.273438 220.238281 204.371094 221.785156 195.683594 219.109375 C 195.011719 218.902344 194.523438 218.964844 193.90625 219.3125 C 186.578125 223.421875 178.933594 224.375 170.957031 221.390625 C 167.757812 220.191406 164.964844 218.339844 162.550781 215.867188 Z M 208.113281 199.816406 C 208.253906 199.90625 208.296875 199.949219 208.355469 199.964844 C 214.585938 201.933594 220.75 201.855469 226.855469 199.457031 C 227.441406 199.226562 227.609375 198.847656 227.703125 198.300781 C 228.894531 191.355469 227.8125 184.792969 224.417969 178.609375 C 224.261719 178.324219 224.070312 178.054688 223.871094 177.738281 C 219.273438 179.875 214.488281 180.796875 209.605469 180.597656 C 208.714844 181.894531 207.90625 183.074219 207.066406 184.296875 C 208.917969 189.335938 209.214844 194.519531 208.113281 199.816406 Z M 195.078125 192.25 C 193.847656 192.5 192.71875 192.78125 191.574219 192.945312 C 190.925781 193.039062 190.574219 193.304688 190.285156 193.890625 C 188.703125 197.109375 186.5625 199.90625 183.820312 202.222656 C 182.75 203.125 181.628906 203.964844 180.484375 204.863281 C 180.519531 204.964844 180.554688 205.113281 180.621094 205.242188 C 183.664062 210.941406 188.050781 215.199219 194.015625 217.78125 C 194.496094 217.988281 194.875 217.980469 195.273438 217.660156 C 196.324219 216.824219 197.421875 216.042969 198.421875 215.148438 C 202.660156 211.335938 205.523438 206.65625 207.058594 201.164062 C 207.132812 200.90625 207.167969 200.640625 207.230469 200.332031 C 202.507812 198.605469 198.488281 195.894531 195.078125 192.25 Z M 219.664062 149.972656 C 219.332031 150.765625 219.054688 151.472656 218.742188 152.167969 C 217.210938 155.578125 215.121094 158.601562 212.46875 161.226562 C 212.019531 161.671875 211.925781 162.0625 212.066406 162.675781 C 212.316406 163.742188 212.472656 164.835938 212.601562 165.929688 C 212.664062 166.4375 212.824219 166.722656 213.308594 166.96875 C 217.640625 169.140625 221.101562 172.3125 223.8125 176.316406 C 223.925781 176.484375 224.097656 176.609375 224.25 176.761719 C 224.492188 176.636719 224.710938 176.535156 224.925781 176.421875 C 228.144531 174.699219 230.917969 172.425781 233.242188 169.617188 C 234.84375 167.675781 236.128906 165.53125 237.109375 163.210938 C 237.296875 162.773438 237.351562 162.40625 237.003906 162.03125 C 236.878906 161.902344 236.804688 161.726562 236.699219 161.578125 C 233.746094 157.429688 229.980469 154.246094 225.402344 152.019531 C 223.585938 151.136719 221.695312 150.441406 219.664062 149.972656 Z M 176.59375 190.746094 C 175.242188 189.878906 174.023438 189.125 172.832031 188.324219 C 172.445312 188.0625 172.125 187.96875 171.65625 188.117188 C 167.195312 189.546875 162.65625 189.730469 158.0625 188.867188 C 157.828125 188.824219 157.59375 188.808594 157.34375 188.777344 C 157.269531 188.925781 157.203125 189.03125 157.167969 189.144531 C 155.292969 195.320312 155.375 201.433594 157.773438 207.480469 C 157.988281 208.015625 158.300781 208.21875 158.832031 208.3125 C 165.945312 209.5625 172.644531 208.441406 178.929688 204.894531 C 179.109375 204.796875 179.257812 204.644531 179.464844 204.484375 C 177.421875 200.082031 176.46875 195.484375 176.59375 190.746094 Z M 219.136719 149.089844 C 219.21875 148.929688 219.269531 148.851562 219.296875 148.769531 C 221.210938 142.5625 221.113281 136.425781 218.71875 130.347656 C 218.507812 129.804688 218.171875 129.621094 217.648438 129.527344 C 210.539062 128.285156 203.839844 129.398438 197.554688 132.949219 C 197.378906 133.050781 197.230469 133.199219 197.039062 133.347656 C 197.1875 133.691406 197.320312 133.996094 197.449219 134.304688 C 197.578125 134.613281 197.710938 134.925781 197.832031 135.238281 C 199.121094 138.582031 199.835938 142.035156 199.886719 145.621094 C 199.890625 145.988281 199.898438 146.289062 200.289062 146.554688 C 201.574219 147.429688 202.832031 148.355469 204.066406 149.300781 C 204.496094 149.628906 204.855469 149.710938 205.390625 149.550781 C 209.601562 148.304688 213.871094 148.140625 218.1875 148.933594 C 218.488281 148.988281 218.789062 149.03125 219.136719 149.089844 Z M 156.773438 187.863281 C 156.867188 187.742188 156.917969 187.699219 156.9375 187.644531 C 158.417969 183.636719 160.65625 180.101562 163.609375 177.023438 C 163.921875 176.699219 163.878906 176.417969 163.777344 176.035156 C 163.382812 174.5 162.984375 172.960938 162.667969 171.40625 C 162.550781 170.828125 162.367188 170.449219 161.820312 170.132812 C 158.542969 168.253906 155.777344 165.78125 153.542969 162.730469 C 153.132812 162.171875 152.722656 161.617188 152.335938 161.089844 C 152.179688 161.132812 152.121094 161.136719 152.066406 161.167969 C 146.289062 164.183594 142 168.601562 139.390625 174.613281 C 139.160156 175.140625 139.269531 175.519531 139.570312 175.953125 C 141.992188 179.449219 145.015625 182.300781 148.652344 184.5 C 151.175781 186.027344 153.867188 187.164062 156.773438 187.863281 Z M 195.992188 132.984375 C 195.992188 132.953125 195.996094 132.917969 195.988281 132.890625 C 195.945312 132.777344 195.898438 132.664062 195.84375 132.558594 C 192.847656 126.945312 188.527344 122.753906 182.691406 120.140625 C 181.992188 119.824219 181.515625 119.953125 180.949219 120.355469 C 178.597656 122.03125 176.511719 123.988281 174.714844 126.253906 C 172.238281 129.382812 170.476562 132.871094 169.425781 136.71875 C 169.355469 136.972656 169.324219 137.234375 169.273438 137.515625 C 173.152344 138.933594 176.554688 141.003906 179.53125 143.753906 C 179.878906 144.070312 180.183594 143.976562 180.539062 143.878906 C 182.34375 143.378906 184.175781 143.054688 186.050781 142.996094 C 186.542969 142.980469 186.796875 142.800781 187.046875 142.378906 C 188.515625 139.851562 190.34375 137.605469 192.570312 135.710938 C 193.660156 134.777344 194.808594 133.921875 195.992188 132.984375 Z M 168.363281 137.992188 C 168.152344 137.902344 167.988281 137.820312 167.816406 137.769531 C 161.761719 135.941406 155.769531 136.027344 149.832031 138.300781 C 149.1875 138.550781 148.882812 138.898438 148.769531 139.59375 C 147.605469 146.570312 148.695312 153.160156 152.144531 159.355469 C 152.277344 159.589844 152.4375 159.804688 152.589844 160.039062 C 152.75 160 152.875 159.992188 152.980469 159.941406 C 156.554688 158.316406 160.304688 157.421875 164.226562 157.257812 C 164.675781 157.238281 164.863281 157.015625 165.035156 156.660156 C 165.890625 154.929688 166.949219 153.320312 168.195312 151.851562 C 168.546875 151.433594 168.65625 151.089844 168.523438 150.550781 C 167.5625 146.695312 167.5 142.808594 168.210938 138.902344 C 168.269531 138.605469 168.3125 138.308594 168.363281 137.992188 Z M 138.875 176.183594 C 133.914062 190.253906 143.222656 204.703125 157.1875 207.847656 C 155.929688 204.734375 155.261719 201.550781 155.179688 198.25 C 155.101562 194.957031 155.601562 191.742188 156.621094 188.558594 C 149.179688 186.613281 143.34375 182.46875 138.875 176.183594 Z M 193.804688 218.449219 C 187.503906 215.691406 182.957031 211.210938 179.796875 205.199219 C 177.609375 206.488281 175.390625 207.484375 173.046875 208.191406 C 170.699219 208.898438 168.296875 209.304688 165.84375 209.457031 C 163.40625 209.609375 160.992188 209.339844 158.511719 208.988281 C 165.007812 222.492188 181.898438 226.097656 193.804688 218.449219 Z M 237.660156 161.742188 C 239.21875 157.015625 239.425781 152.4375 238.179688 147.828125 C 236.609375 142.011719 233.238281 137.4375 228.332031 133.992188 C 225.621094 132.085938 222.65625 130.726562 219.289062 129.929688 C 221.851562 136.40625 221.902344 142.792969 219.890625 149.269531 C 227.296875 151.265625 233.183594 155.332031 237.660156 161.742188 Z M 168.566406 137.25 C 169.484375 133.589844 171.003906 130.28125 173.113281 127.25 C 175.21875 124.222656 177.832031 121.695312 180.902344 119.542969 C 165.960938 114.214844 151.738281 125.089844 149.351562 137.75 C 155.679688 135.265625 162.0625 135.21875 168.566406 137.25 Z M 195.628906 218.277344 C 209.628906 223.492188 224.386719 213.667969 227.175781 200.074219 C 220.824219 202.582031 214.414062 202.617188 207.929688 200.59375 C 207 204.25 205.5 207.535156 203.410156 210.550781 C 201.304688 213.582031 198.683594 216.113281 195.628906 218.277344 Z M 138.6875 174.480469 C 141.445312 168.125 145.9375 163.566406 151.9375 160.410156 C 148.082031 153.742188 146.832031 146.703125 148.136719 139.183594 C 136.332031 144.457031 130.257812 160.375 138.6875 174.480469 Z M 218.058594 128.90625 C 216.101562 125 213.488281 121.917969 210.023438 119.578125 C 205.257812 116.359375 199.976562 115.0625 194.265625 115.519531 C 190.132812 115.851562 186.300781 117.121094 182.5625 119.34375 C 185.777344 120.730469 188.484375 122.515625 190.871094 124.792969 C 193.253906 127.0625 195.136719 129.699219 196.695312 132.644531 C 199.949219 130.71875 203.332031 129.457031 206.945312 128.8125 C 210.589844 128.164062 214.230469 128.199219 218.058594 128.90625 Z M 224.550781 177.425781 C 225.804688 179.613281 226.828125 181.824219 227.535156 184.167969 C 228.246094 186.519531 228.660156 188.921875 228.816406 191.378906 C 228.972656 193.8125 228.722656 196.222656 228.363281 198.703125 C 242.015625 192.191406 245.367188 175.054688 237.757812 163.46875 C 235.042969 169.707031 230.574219 174.253906 224.550781 177.425781 Z M 185.542969 165.175781 C 185.585938 165.136719 185.632812 165.097656 185.679688 165.0625 C 185.566406 164.785156 185.460938 164.503906 185.347656 164.222656 C 184.574219 162.316406 184.046875 160.34375 183.769531 158.304688 C 183.4375 155.832031 183.476562 153.367188 183.90625 150.910156 C 183.976562 150.519531 184.019531 150.171875 183.765625 149.78125 C 182.710938 148.160156 181.46875 146.695312 180.167969 145.273438 C 179.855469 144.929688 179.550781 144.875 179.117188 145.03125 C 175.605469 146.285156 172.585938 148.296875 169.933594 150.894531 C 169.550781 151.265625 169.492188 151.617188 169.660156 152.117188 C 170.28125 153.945312 171.0625 155.695312 172.039062 157.367188 C 172.328125 157.863281 172.6875 158.105469 173.226562 158.25 C 177.613281 159.429688 181.515625 161.496094 184.851562 164.605469 C 185.070312 164.8125 185.3125 164.988281 185.542969 165.175781 Z M 165.191406 157.914062 C 163.535156 161.671875 162.867188 165.542969 163.128906 169.582031 C 163.160156 170.015625 163.355469 170.253906 163.738281 170.390625 C 165.3125 170.976562 166.890625 171.558594 168.460938 172.144531 C 169.074219 172.375 169.597656 172.273438 170.183594 171.9375 C 174.144531 169.65625 178.414062 168.394531 183 168.242188 C 183.257812 168.234375 183.515625 168.203125 183.777344 168.179688 C 183.589844 167.960938 183.375 167.863281 183.164062 167.761719 C 182.386719 167.398438 181.597656 167.066406 180.84375 166.660156 C 177.441406 164.839844 174.625 162.34375 172.410156 159.183594 C 172.191406 158.871094 171.988281 158.621094 171.582031 158.539062 C 169.5 158.121094 167.414062 157.886719 165.191406 157.914062 Z M 188.980469 164.457031 C 189.125 164.359375 189.160156 164.347656 189.171875 164.324219 C 189.238281 164.191406 189.304688 164.050781 189.363281 163.910156 C 191.203125 159.449219 194.066406 155.804688 198.046875 153.054688 C 198.378906 152.828125 198.570312 152.5625 198.617188 152.171875 C 198.8125 150.535156 199 148.894531 199.21875 147.261719 C 199.289062 146.75 198.996094 146.554688 198.621094 146.367188 C 195.238281 144.65625 191.660156 143.738281 187.867188 143.621094 C 187.28125 143.605469 187.003906 143.828125 186.761719 144.335938 C 186.011719 145.914062 185.414062 147.539062 184.960938 149.226562 C 184.804688 149.800781 184.867188 150.257812 185.167969 150.777344 C 187.46875 154.769531 188.757812 159.066406 188.921875 163.679688 C 188.925781 163.921875 188.957031 164.15625 188.980469 164.457031 Z M 164.835938 176.753906 C 164.871094 176.941406 164.871094 177.035156 164.902344 177.117188 C 166.4375 180.9375 168.851562 184.121094 171.957031 186.804688 C 172.28125 187.085938 172.582031 187.128906 172.953125 186.941406 C 174.257812 186.289062 175.566406 185.632812 176.882812 184.996094 C 177.28125 184.804688 177.445312 184.5 177.554688 184.089844 C 178.746094 179.507812 180.945312 175.480469 184.171875 172.019531 C 184.300781 171.882812 184.40625 171.71875 184.605469 171.457031 C 183.292969 171.902344 182.164062 172.351562 181 172.679688 C 177.480469 173.675781 173.90625 173.863281 170.292969 173.238281 C 169.914062 173.171875 169.554688 173.082031 169.15625 173.34375 C 167.621094 174.347656 166.210938 175.507812 164.835938 176.753906 Z M 191.871094 166.363281 C 192.082031 166.332031 192.167969 166.339844 192.242188 166.308594 C 196.828125 164.335938 201.578125 163.765625 206.503906 164.636719 C 206.769531 164.683594 207.128906 164.613281 207.347656 164.457031 C 208.613281 163.5625 209.847656 162.625 211.121094 161.679688 C 209.863281 157.3125 207.652344 153.664062 204.484375 150.578125 C 202.824219 151.097656 201.363281 151.84375 199.921875 152.644531 C 199.355469 152.957031 199.035156 153.359375 198.859375 154.015625 C 197.804688 157.960938 196 161.53125 193.339844 164.648438 C 192.875 165.191406 192.410156 165.734375 191.871094 166.363281 Z M 187.503906 173.214844 C 187.328125 173.550781 187.21875 173.722656 187.140625 173.90625 C 185.292969 178.394531 182.417969 182.0625 178.40625 184.8125 C 178.0625 185.046875 177.925781 185.339844 177.871094 185.714844 C 177.699219 186.921875 177.507812 188.128906 177.363281 189.339844 C 177.261719 190.210938 177.285156 190.222656 178.085938 190.5625 C 181.75 192.117188 185.566406 192.777344 189.539062 192.503906 C 189.777344 192.488281 190.007812 192.425781 190.320312 192.378906 C 190.707031 191.179688 191.070312 189.984375 191.480469 188.808594 C 191.71875 188.125 191.628906 187.554688 191.257812 186.914062 C 188.972656 182.953125 187.730469 178.679688 187.574219 174.101562 C 187.566406 173.867188 187.539062 173.632812 187.503906 173.214844 Z M 192.65625 169.648438 C 192.648438 169.6875 192.636719 169.730469 192.628906 169.769531 C 192.726562 169.816406 192.824219 169.863281 192.921875 169.910156 C 193.894531 170.359375 194.890625 170.761719 195.828125 171.273438 C 199.128906 173.074219 201.882812 175.515625 204.03125 178.609375 C 204.332031 179.042969 204.691406 179.292969 205.214844 179.363281 C 206.246094 179.496094 207.273438 179.675781 208.304688 179.804688 C 209.152344 179.90625 209.160156 179.886719 209.550781 179.101562 C 211.285156 175.582031 212.105469 171.855469 212.050781 167.933594 C 212.046875 167.664062 212.011719 167.394531 211.984375 167.003906 C 210.683594 166.574219 209.378906 166.152344 208.085938 165.707031 C 207.4375 165.484375 206.886719 165.574219 206.273438 165.929688 C 202.253906 168.238281 197.921875 169.492188 193.269531 169.609375 C 193.0625 169.609375 192.859375 169.632812 192.65625 169.648438 Z M 190.773438 172.660156 C 190.890625 172.957031 190.992188 173.238281 191.105469 173.511719 C 192.804688 177.6875 193.359375 182.007812 192.636719 186.457031 C 192.492188 187.355469 192.625 188.050781 193.175781 188.738281 C 193.882812 189.609375 194.546875 190.515625 195.234375 191.410156 C 199.65625 189.964844 203.273438 187.550781 206.292969 184.039062 C 205.679688 182.855469 205.070312 181.695312 204.476562 180.527344 C 204.210938 179.996094 203.804688 179.734375 203.222656 179.582031 C 200.453125 178.859375 197.828125 177.757812 195.453125 176.160156 C 193.859375 175.089844 192.371094 173.863281 190.773438 172.660156 Z M 195.792969 191.964844 C 199.109375 195.5 202.929688 198.003906 207.351562 199.632812 C 208.59375 195.886719 208.035156 187.320312 206.398438 185 C 203.492188 188.195312 199.972656 190.480469 195.792969 191.964844 Z M 212.789062 167.46875 C 212.730469 168.644531 212.714844 169.710938 212.605469 170.769531 C 212.5 171.800781 212.34375 172.835938 212.113281 173.847656 C 211.875 174.886719 211.5625 175.914062 211.210938 176.917969 C 210.863281 177.90625 210.421875 178.863281 209.988281 179.917969 C 214.765625 180.035156 219.195312 179.144531 223.515625 177.128906 C 220.761719 172.921875 217.273438 169.703125 212.789062 167.46875 Z M 180.054688 204.09375 C 183.550781 202.390625 189.191406 195.984375 189.695312 193.183594 C 185.410156 193.480469 181.3125 192.734375 177.289062 190.96875 C 177.210938 195.617188 178.128906 199.921875 180.054688 204.09375 Z M 211.636719 160.96875 C 214.324219 158.773438 217.867188 153.445312 218.855469 149.871094 C 215.988281 148.710938 207.671875 149.035156 205.34375 150.425781 C 208.21875 153.4375 210.363281 156.886719 211.636719 160.96875 Z M 164.277344 177.421875 C 161.828125 179.441406 157.925781 185.785156 157.691406 188.03125 C 161.523438 189.140625 169.554688 188.714844 171.449219 187.265625 C 168.304688 184.574219 165.921875 181.320312 164.277344 177.421875 Z M 199.21875 145.890625 C 199.121094 141.535156 198.222656 137.558594 196.398438 133.671875 C 192.6875 136.058594 189.765625 139.0625 187.53125 142.929688 C 189.648438 143 191.609375 143.238281 193.535156 143.726562 C 195.457031 144.210938 197.285156 144.953125 199.21875 145.890625 Z M 164.375 158.058594 C 161.820312 157.714844 154.898438 159.410156 153.089844 160.785156 C 154.867188 164.082031 159.992188 168.785156 162.28125 169.457031 C 162.4375 167.535156 162.527344 165.589844 162.761719 163.660156 C 163 161.722656 163.636719 159.878906 164.375 158.058594 Z M 169.199219 150.425781 C 170.796875 149.207031 172.25 147.945312 173.855469 146.921875 C 175.457031 145.894531 177.214844 145.105469 178.894531 144.214844 C 177.554688 142.445312 171.738281 138.8125 169.039062 138.296875 C 168.195312 142.355469 168.210938 146.378906 169.199219 150.425781 Z M 173.265625 158.957031 C 175.027344 162.71875 183.359375 168.199219 187.183594 168.136719 C 183.53125 163.527344 178.902344 160.609375 173.265625 158.957031 Z M 191.886719 186.464844 C 193.070312 181.867188 191.066406 172.402344 188.503906 170.316406 C 187.523438 174.550781 189.289062 183.074219 191.886719 186.464844 Z M 198.203125 153.890625 C 194.078125 156.1875 188.640625 164.53125 189.054688 167.847656 C 193.609375 164.230469 196.542969 159.597656 198.203125 153.890625 Z M 187.492188 170.097656 C 182.863281 173.617188 179.945312 178.257812 178.4375 183.828125 C 183.214844 180.417969 186.222656 175.832031 187.492188 170.097656 Z M 205.75 165.332031 C 199.960938 164.367188 194.59375 165.460938 189.644531 168.613281 C 195.394531 169.394531 200.746094 168.203125 205.75 165.332031 Z M 184.628906 151.335938 C 183.375 155.703125 185.160156 164.34375 187.9375 167.5625 C 189.105469 164.058594 187.367188 155.441406 184.628906 151.335938 Z M 170.574219 172.488281 C 175.054688 173.773438 184.976562 171.691406 186.882812 169.105469 C 181.109375 168.453125 175.757812 169.632812 170.574219 172.488281 Z M 203.144531 178.773438 C 200.59375 174.527344 192.894531 169.5 189.320312 169.722656 C 192.957031 174.289062 197.574219 177.238281 203.144531 178.773438 Z M 171.300781 157.695312 C 170.484375 155.863281 169.679688 154.0625 168.839844 152.175781 C 167.503906 153.660156 166.464844 155.308594 165.574219 157.121094 C 167.523438 157.316406 169.394531 157.503906 171.300781 157.695312 Z M 184.199219 149.019531 C 184.863281 147.234375 185.515625 145.492188 186.203125 143.65625 C 184.261719 143.757812 182.425781 144.039062 180.554688 144.59375 C 181.816406 146.125 183 147.5625 184.199219 149.019531 Z M 163.285156 171.054688 C 163.53125 172.757812 163.882812 174.382812 164.503906 176.039062 C 165.863281 174.953125 167.109375 173.957031 168.386719 172.9375 C 166.675781 172.308594 165.03125 171.703125 163.285156 171.054688 Z M 203.804688 149.96875 C 202.585938 148.867188 201.375 147.9375 199.96875 147.164062 C 199.777344 148.84375 199.601562 150.425781 199.417969 152.058594 C 200.890625 151.355469 202.277344 150.695312 203.804688 149.96875 Z M 176.59375 189.917969 C 176.691406 189.027344 176.785156 188.367188 176.835938 187.703125 C 176.886719 187.070312 177.152344 186.449219 177.007812 185.796875 C 175.699219 186.4375 174.457031 187.042969 173.054688 187.726562 C 174.269531 188.480469 175.367188 189.160156 176.59375 189.917969 Z M 211.363281 162.347656 C 210.191406 163.253906 209.160156 164.054688 208.042969 164.921875 C 209.390625 165.378906 210.625 165.792969 212.007812 166.261719 C 211.792969 164.949219 211.589844 163.734375 211.363281 162.347656 Z M 192.273438 188.703125 C 191.859375 189.957031 191.492188 191.089844 191.082031 192.339844 C 192.296875 192.171875 193.367188 191.980469 194.492188 191.601562 C 193.71875 190.589844 193.03125 189.695312 192.273438 188.703125 Z M 206.765625 183.425781 C 207.554688 182.515625 208.175781 181.621094 208.714844 180.566406 C 208.027344 180.480469 207.457031 180.410156 206.886719 180.335938 C 206.308594 180.257812 205.730469 180.171875 205.066406 180.074219 C 205.660156 181.242188 206.179688 182.269531 206.765625 183.425781 Z M 206.765625 183.425781 " clip-rule="nonzero"/></clipPath></defs><g clip-path="url(#id2)"><g clip-path="url(#id3)"><g clip-path="url(#id4)"><g clip-path="url(#id5)"><path fill="rgb(0%, 0%, 0%)" d="M 73.960938 169.804688 L 187.8125 283.652344 L 301.664062 169.804688 L 187.8125 55.953125 Z M 73.960938 169.804688 " fill-opacity="1" fill-rule="nonzero"/><path fill="rgb(0%, 0%, 0%)" d="M 73.960938 169.804688 L 187.8125 283.652344 L 301.664062 169.804688 L 187.8125 55.953125 Z M 73.960938 169.804688 " fill-opacity="1" fill-rule="nonzero"/></g></g></g></g><g fill="rgb(0%, 0%, 0%)" fill-opacity="1"><g transform="translate(88.664061, 218.033878)"><g><path d="M 1.230469 -5.042969 C 1.230469 -4.632812 1.394531 -4.261719 1.679688 -3.976562 L 5.082031 -0.492188 C 5.410156 -0.164062 5.78125 0 6.3125 0 L 19.511719 0 C 20.046875 0 20.414062 -0.164062 20.742188 -0.492188 L 24.144531 -3.976562 C 24.433594 -4.261719 24.597656 -4.632812 24.597656 -5.042969 L 24.597656 -15.25 C 24.597656 -15.660156 24.433594 -16.027344 24.144531 -16.316406 L 20.539062 -20.003906 C 20.210938 -20.332031 19.839844 -20.496094 19.308594 -20.496094 L 6.519531 -20.496094 C 5.984375 -20.496094 5.617188 -20.332031 5.289062 -20.003906 L 1.679688 -16.316406 C 1.394531 -16.027344 1.230469 -15.660156 1.230469 -15.25 Z M 5.207031 -6.109375 L 5.207031 -14.183594 C 5.207031 -14.472656 5.289062 -14.675781 5.492188 -14.882812 L 6.804688 -16.109375 L 7.050781 -16.316406 C 7.132812 -16.398438 7.257812 -16.4375 7.460938 -16.4375 L 18.367188 -16.4375 C 18.53125 -16.4375 18.652344 -16.398438 18.777344 -16.316406 L 19.023438 -16.109375 L 20.332031 -14.882812 C 20.539062 -14.675781 20.621094 -14.472656 20.621094 -14.183594 L 20.621094 -6.109375 C 20.621094 -5.820312 20.539062 -5.617188 20.332031 -5.410156 L 19.226562 -4.386719 L 18.980469 -4.179688 C 18.859375 -4.097656 18.734375 -4.058594 18.570312 -4.058594 L 7.257812 -4.058594 C 7.050781 -4.058594 6.929688 -4.097656 6.847656 -4.179688 L 6.601562 -4.386719 L 5.492188 -5.410156 C 5.289062 -5.617188 5.207031 -5.820312 5.207031 -6.109375 Z M 7.542969 1.886719 L 7.542969 4.714844 C 7.542969 5.042969 7.828125 5.328125 8.15625 5.328125 L 17.75 5.328125 C 18.078125 5.328125 18.367188 5.042969 18.367188 4.714844 L 18.367188 1.886719 C 18.367188 1.558594 18.078125 1.269531 17.75 1.269531 L 8.15625 1.269531 C 7.828125 1.269531 7.542969 1.558594 7.542969 1.886719 Z M 7.542969 1.886719 "/></g></g></g><g fill="rgb(0%, 0%, 0%)" fill-opacity="1"><g transform="translate(114.48914, 218.033878)"><g><path d="M 1.230469 -19.882812 L 1.230469 -4.960938 C 1.230469 -4.550781 1.394531 -4.179688 1.679688 -3.894531 L 5.289062 -0.492188 C 5.65625 -0.203125 5.984375 0 6.519531 0 L 18.285156 0 C 18.816406 0 19.1875 -0.203125 19.511719 -0.492188 L 23.121094 -3.894531 C 23.449219 -4.179688 23.570312 -4.550781 23.570312 -4.960938 L 23.570312 -19.882812 C 23.570312 -20.210938 23.285156 -20.496094 22.957031 -20.496094 L 20.210938 -20.496094 C 19.882812 -20.496094 19.59375 -20.210938 19.59375 -19.882812 L 19.59375 -6.3125 C 19.59375 -6.027344 19.554688 -5.820312 19.308594 -5.617188 L 17.75 -4.179688 C 17.628906 -4.097656 17.503906 -4.058594 17.339844 -4.058594 L 7.460938 -4.058594 C 7.257812 -4.058594 7.132812 -4.097656 7.050781 -4.179688 L 5.492188 -5.617188 C 5.289062 -5.820312 5.207031 -6.027344 5.207031 -6.3125 L 5.207031 -19.882812 C 5.207031 -20.210938 4.917969 -20.496094 4.589844 -20.496094 L 1.84375 -20.496094 C 1.515625 -20.496094 1.230469 -20.210938 1.230469 -19.882812 Z M 1.230469 -19.882812 "/></g></g></g><g fill="rgb(0%, 0%, 0%)" fill-opacity="1"><g transform="translate(139.289424, 218.033878)"><g><path d="M 23.121094 -16.316406 L 19.511719 -20.003906 C 19.1875 -20.332031 18.816406 -20.496094 18.285156 -20.496094 L 6.519531 -20.496094 C 5.984375 -20.496094 5.617188 -20.332031 5.289062 -20.003906 L 1.679688 -16.316406 C 1.394531 -16.027344 1.230469 -15.660156 1.230469 -15.25 L 1.230469 -0.613281 C 1.230469 -0.285156 1.515625 0 1.84375 0 L 4.589844 0 C 4.917969 0 5.207031 -0.285156 5.207031 -0.613281 L 5.207031 -6.722656 L 19.59375 -6.722656 L 19.59375 -0.613281 C 19.59375 -0.285156 19.882812 0 20.210938 0 L 22.957031 0 C 23.285156 0 23.570312 -0.285156 23.570312 -0.613281 L 23.570312 -15.25 C 23.570312 -15.660156 23.40625 -16.027344 23.121094 -16.316406 Z M 5.207031 -10.289062 L 5.207031 -14.183594 C 5.207031 -14.472656 5.289062 -14.675781 5.492188 -14.882812 L 6.804688 -16.109375 L 7.050781 -16.316406 C 7.132812 -16.398438 7.257812 -16.4375 7.460938 -16.4375 L 17.339844 -16.4375 C 17.503906 -16.4375 17.628906 -16.398438 17.75 -16.316406 L 17.996094 -16.109375 L 19.308594 -14.882812 C 19.511719 -14.675781 19.59375 -14.472656 19.59375 -14.183594 L 19.59375 -10.289062 Z M 5.207031 -10.289062 "/></g></g></g><g fill="rgb(0%, 0%, 0%)" fill-opacity="1"><g transform="translate(164.089707, 218.033878)"><g><path d="M 1.230469 -0.613281 C 1.230469 -0.285156 1.515625 0 1.84375 0 L 4.589844 0 C 4.917969 0 5.207031 -0.285156 5.207031 -0.613281 L 5.207031 -16.4375 L 16.234375 -16.4375 C 16.398438 -16.4375 16.519531 -16.398438 16.644531 -16.316406 L 19.308594 -13.773438 C 19.511719 -13.570312 19.59375 -13.363281 19.59375 -13.078125 L 19.59375 -0.613281 C 19.59375 -0.285156 19.882812 0 20.210938 0 L 22.957031 0 C 23.285156 0 23.570312 -0.285156 23.570312 -0.613281 L 23.570312 -14.226562 C 23.570312 -14.636719 23.40625 -15.003906 23.121094 -15.292969 L 18.488281 -20.003906 C 18.160156 -20.332031 17.792969 -20.496094 17.257812 -20.496094 L 2.5 -20.496094 C 1.804688 -20.496094 1.230469 -19.964844 1.230469 -19.269531 Z M 1.230469 -0.613281 "/></g></g></g><g fill="rgb(0%, 0%, 0%)" fill-opacity="1"><g transform="translate(188.889991, 218.033878)"><g><path d="M 27.261719 -20.496094 L 1.84375 -20.496094 C 1.515625 -20.496094 1.230469 -20.210938 1.230469 -19.882812 L 1.230469 -16.808594 C 1.230469 -16.480469 1.515625 -16.191406 1.84375 -16.191406 L 12.421875 -16.191406 L 12.421875 -0.613281 C 12.421875 -0.285156 12.707031 0 13.035156 0 L 16.109375 0 C 16.4375 0 16.726562 -0.285156 16.726562 -0.613281 L 16.726562 -16.191406 L 27.261719 -16.191406 C 27.589844 -16.191406 27.875 -16.480469 27.875 -16.808594 L 27.875 -19.882812 C 27.875 -20.210938 27.589844 -20.496094 27.261719 -20.496094 Z M 27.261719 -20.496094 "/></g></g></g><g fill="rgb(0%, 0%, 0%)" fill-opacity="1"><g transform="translate(217.994455, 218.033878)"><g><path d="M 1.230469 -19.882812 L 1.230469 -4.960938 C 1.230469 -4.550781 1.394531 -4.179688 1.679688 -3.894531 L 5.289062 -0.492188 C 5.65625 -0.203125 5.984375 0 6.519531 0 L 18.285156 0 C 18.816406 0 19.1875 -0.203125 19.511719 -0.492188 L 23.121094 -3.894531 C 23.449219 -4.179688 23.570312 -4.550781 23.570312 -4.960938 L 23.570312 -19.882812 C 23.570312 -20.210938 23.285156 -20.496094 22.957031 -20.496094 L 20.210938 -20.496094 C 19.882812 -20.496094 19.59375 -20.210938 19.59375 -19.882812 L 19.59375 -6.3125 C 19.59375 -6.027344 19.554688 -5.820312 19.308594 -5.617188 L 17.75 -4.179688 C 17.628906 -4.097656 17.503906 -4.058594 17.339844 -4.058594 L 7.460938 -4.058594 C 7.257812 -4.058594 7.132812 -4.097656 7.050781 -4.179688 L 5.492188 -5.617188 C 5.289062 -5.820312 5.207031 -6.027344 5.207031 -6.3125 L 5.207031 -19.882812 C 5.207031 -20.210938 4.917969 -20.496094 4.589844 -20.496094 L 1.84375 -20.496094 C 1.515625 -20.496094 1.230469 -20.210938 1.230469 -19.882812 Z M 1.230469 -19.882812 "/></g></g></g><g fill="rgb(0%, 0%, 0%)" fill-opacity="1"><g transform="translate(242.794738, 218.033878)"><g><path d="M 41.855469 -15.90625 L 37.839844 -20.003906 C 37.511719 -20.332031 37.140625 -20.496094 36.609375 -20.496094 L 25.992188 -20.496094 C 25.457031 -20.496094 25.046875 -20.332031 24.761719 -20.003906 L 22.300781 -17.464844 L 19.800781 -20.003906 C 19.511719 -20.332031 19.105469 -20.496094 18.570312 -20.496094 L 6.929688 -20.496094 C 6.394531 -20.496094 6.027344 -20.332031 5.699219 -20.003906 L 1.679688 -15.90625 C 1.433594 -15.617188 1.230469 -15.25 1.230469 -14.839844 L 1.230469 -0.613281 C 1.230469 -0.285156 1.515625 0 1.84375 0 L 4.589844 0 C 4.917969 0 5.207031 -0.285156 5.207031 -0.613281 L 5.207031 -13.570312 C 5.207031 -13.855469 5.289062 -14.0625 5.492188 -14.265625 L 7.585938 -16.316406 C 7.707031 -16.398438 7.828125 -16.4375 7.992188 -16.4375 L 17.628906 -16.4375 C 17.792969 -16.4375 17.914062 -16.398438 18.039062 -16.316406 L 20.003906 -14.472656 C 20.210938 -14.308594 20.292969 -14.0625 20.292969 -13.773438 L 20.292969 -0.613281 C 20.292969 -0.285156 20.578125 0 20.90625 0 L 23.652344 0 C 23.980469 0 24.269531 -0.285156 24.269531 -0.613281 L 24.269531 -13.773438 C 24.269531 -14.0625 24.351562 -14.308594 24.554688 -14.472656 L 26.523438 -16.316406 C 26.648438 -16.398438 26.769531 -16.4375 26.933594 -16.4375 L 35.582031 -16.4375 C 35.746094 -16.4375 35.871094 -16.398438 35.992188 -16.316406 L 38.042969 -14.308594 C 38.25 -14.144531 38.332031 -13.898438 38.332031 -13.609375 L 38.332031 -0.613281 C 38.332031 -0.285156 38.617188 0 38.945312 0 L 41.691406 0 C 42.019531 0 42.308594 -0.285156 42.308594 -0.613281 L 42.308594 -14.839844 C 42.308594 -15.25 42.101562 -15.617188 41.855469 -15.90625 Z M 41.855469 -15.90625 "/></g></g></g><g fill="rgb(0%, 0%, 0%)" fill-opacity="1"><g transform="translate(141.904769, 237.483836)"><g><path d="M 3.8125 0 L 2.8125 0 L 2.8125 -7.6875 L 0.109375 -7.6875 L 0.109375 -8.5625 L 6.53125 -8.5625 L 6.53125 -7.6875 L 3.8125 -7.6875 Z M 3.8125 0 "/></g></g><g transform="translate(148.543441, 237.483836)"><g><path d="M 5.953125 0 L 1.171875 0 L 1.171875 -8.5625 L 5.953125 -8.5625 L 5.953125 -7.6875 L 2.171875 -7.6875 L 2.171875 -4.921875 L 5.71875 -4.921875 L 5.71875 -4.046875 L 2.171875 -4.046875 L 2.171875 -0.890625 L 5.953125 -0.890625 Z M 5.953125 0 "/></g></g><g transform="translate(155.217269, 237.483836)"><g><path d="M 4.84375 -7.796875 C 3.90625 -7.796875 3.160156 -7.484375 2.609375 -6.859375 C 2.066406 -6.234375 1.796875 -5.375 1.796875 -4.28125 C 1.796875 -3.164062 2.054688 -2.300781 2.578125 -1.6875 C 3.109375 -1.070312 3.859375 -0.765625 4.828125 -0.765625 C 5.429688 -0.765625 6.113281 -0.875 6.875 -1.09375 L 6.875 -0.21875 C 6.28125 0.0078125 5.550781 0.125 4.6875 0.125 C 3.425781 0.125 2.453125 -0.257812 1.765625 -1.03125 C 1.078125 -1.800781 0.734375 -2.890625 0.734375 -4.296875 C 0.734375 -5.179688 0.894531 -5.953125 1.21875 -6.609375 C 1.550781 -7.273438 2.03125 -7.785156 2.65625 -8.140625 C 3.28125 -8.503906 4.015625 -8.6875 4.859375 -8.6875 C 5.753906 -8.6875 6.539062 -8.523438 7.21875 -8.203125 L 6.796875 -7.34375 C 6.140625 -7.644531 5.488281 -7.796875 4.84375 -7.796875 Z M 4.84375 -7.796875 "/></g></g><g transform="translate(162.787581, 237.483836)"><g><path d="M 7.6875 0 L 6.6875 0 L 6.6875 -4.03125 L 2.171875 -4.03125 L 2.171875 0 L 1.171875 0 L 1.171875 -8.5625 L 2.171875 -8.5625 L 2.171875 -4.921875 L 6.6875 -4.921875 L 6.6875 -8.5625 L 7.6875 -8.5625 Z M 7.6875 0 "/></g></g><g transform="translate(171.641096, 237.483836)"><g/></g><g transform="translate(174.758283, 237.483836)"><g><path d="M 4.84375 -7.796875 C 3.90625 -7.796875 3.160156 -7.484375 2.609375 -6.859375 C 2.066406 -6.234375 1.796875 -5.375 1.796875 -4.28125 C 1.796875 -3.164062 2.054688 -2.300781 2.578125 -1.6875 C 3.109375 -1.070312 3.859375 -0.765625 4.828125 -0.765625 C 5.429688 -0.765625 6.113281 -0.875 6.875 -1.09375 L 6.875 -0.21875 C 6.28125 0.0078125 5.550781 0.125 4.6875 0.125 C 3.425781 0.125 2.453125 -0.257812 1.765625 -1.03125 C 1.078125 -1.800781 0.734375 -2.890625 0.734375 -4.296875 C 0.734375 -5.179688 0.894531 -5.953125 1.21875 -6.609375 C 1.550781 -7.273438 2.03125 -7.785156 2.65625 -8.140625 C 3.28125 -8.503906 4.015625 -8.6875 4.859375 -8.6875 C 5.753906 -8.6875 6.539062 -8.523438 7.21875 -8.203125 L 6.796875 -7.34375 C 6.140625 -7.644531 5.488281 -7.796875 4.84375 -7.796875 Z M 4.84375 -7.796875 "/></g></g><g transform="translate(182.328595, 237.483836)"><g><path d="M 8.609375 -4.296875 C 8.609375 -2.921875 8.257812 -1.835938 7.5625 -1.046875 C 6.875 -0.265625 5.914062 0.125 4.6875 0.125 C 3.425781 0.125 2.453125 -0.257812 1.765625 -1.03125 C 1.078125 -1.8125 0.734375 -2.90625 0.734375 -4.3125 C 0.734375 -5.707031 1.078125 -6.785156 1.765625 -7.546875 C 2.453125 -8.316406 3.425781 -8.703125 4.6875 -8.703125 C 5.925781 -8.703125 6.890625 -8.3125 7.578125 -7.53125 C 8.265625 -6.75 8.609375 -5.671875 8.609375 -4.296875 Z M 1.78125 -4.296875 C 1.78125 -3.140625 2.023438 -2.257812 2.515625 -1.65625 C 3.015625 -1.050781 3.738281 -0.75 4.6875 -0.75 C 5.632812 -0.75 6.347656 -1.046875 6.828125 -1.640625 C 7.316406 -2.242188 7.5625 -3.128906 7.5625 -4.296875 C 7.5625 -5.453125 7.316406 -6.328125 6.828125 -6.921875 C 6.347656 -7.515625 5.632812 -7.8125 4.6875 -7.8125 C 3.738281 -7.8125 3.015625 -7.507812 2.515625 -6.90625 C 2.023438 -6.3125 1.78125 -5.441406 1.78125 -4.296875 Z M 1.78125 -4.296875 "/></g></g><g transform="translate(191.674298, 237.483836)"><g><path d="M 4.96875 0 L 2.0625 -7.59375 L 2.015625 -7.59375 C 2.066406 -6.988281 2.09375 -6.273438 2.09375 -5.453125 L 2.09375 0 L 1.171875 0 L 1.171875 -8.5625 L 2.671875 -8.5625 L 5.390625 -1.5 L 5.4375 -1.5 L 8.171875 -8.5625 L 9.65625 -8.5625 L 9.65625 0 L 8.671875 0 L 8.671875 -5.515625 C 8.671875 -6.148438 8.695312 -6.835938 8.75 -7.578125 L 8.703125 -7.578125 L 5.765625 0 Z M 4.96875 0 "/></g></g><g transform="translate(202.508281, 237.483836)"><g><path d="M 6.609375 -6.078125 C 6.609375 -5.203125 6.3125 -4.53125 5.71875 -4.0625 C 5.125 -3.601562 4.28125 -3.375 3.1875 -3.375 L 2.171875 -3.375 L 2.171875 0 L 1.171875 0 L 1.171875 -8.5625 L 3.40625 -8.5625 C 5.539062 -8.5625 6.609375 -7.734375 6.609375 -6.078125 Z M 2.171875 -4.21875 L 3.078125 -4.21875 C 3.953125 -4.21875 4.585938 -4.359375 4.984375 -4.640625 C 5.378906 -4.929688 5.578125 -5.394531 5.578125 -6.03125 C 5.578125 -6.59375 5.390625 -7.007812 5.015625 -7.28125 C 4.648438 -7.5625 4.070312 -7.703125 3.28125 -7.703125 L 2.171875 -7.703125 Z M 2.171875 -4.21875 "/></g></g><g transform="translate(209.73289, 237.483836)"><g><path d="M 6.5625 0 L 5.5 -2.71875 L 2.0625 -2.71875 L 1.015625 0 L 0 0 L 3.390625 -8.609375 L 4.21875 -8.609375 L 7.59375 0 Z M 5.1875 -3.625 L 4.1875 -6.28125 C 4.0625 -6.613281 3.929688 -7.023438 3.796875 -7.515625 C 3.703125 -7.140625 3.578125 -6.726562 3.421875 -6.28125 L 2.421875 -3.625 Z M 5.1875 -3.625 "/></g></g><g transform="translate(217.32664, 237.483836)"><g><path d="M 7.875 0 L 6.734375 0 L 2.046875 -7.1875 L 2 -7.1875 C 2.0625 -6.34375 2.09375 -5.570312 2.09375 -4.875 L 2.09375 0 L 1.171875 0 L 1.171875 -8.5625 L 2.296875 -8.5625 L 6.96875 -1.40625 L 7.015625 -1.40625 C 7.015625 -1.507812 7 -1.847656 6.96875 -2.421875 C 6.9375 -2.992188 6.925781 -3.40625 6.9375 -3.65625 L 6.9375 -8.5625 L 7.875 -8.5625 Z M 7.875 0 "/></g></g><g transform="translate(226.373514, 237.483836)"><g><path d="M 3.359375 -4.28125 L 5.640625 -8.5625 L 6.71875 -8.5625 L 3.859375 -3.328125 L 3.859375 0 L 2.859375 0 L 2.859375 -3.28125 L 0 -8.5625 L 1.09375 -8.5625 Z M 3.359375 -4.28125 "/></g></g></g></svg>